{"glyphs":{"0":{"ha":833,"x_min":69,"x_max":789,"o":"m 408 -11 q 156 100 243 -11 q 69 422 69 211 q 115 728 69 600 q 244 923 160 856 q 449 990 329 990 q 702 879 615 990 q 789 557 789 768 q 744 251 789 379 q 613 56 699 124 q 408 -11 528 -11 m 413 129 q 563 244 511 129 q 614 582 614 358 q 573 785 614 721 q 446 850 532 850 q 296 734 347 850 q 244 397 244 618 q 285 194 244 260 q 413 129 326 129 z "},"1":{"ha":833,"x_min":121,"x_max":758,"o":"m 679 144 q 739 126 719 144 q 758 76 758 108 q 671 0 758 0 l 200 0 q 140 18 160 0 q 121 68 121 36 q 210 144 121 144 l 357 144 l 407 771 l 286 701 q 246 690 268 690 q 194 714 215 690 q 174 768 174 738 q 210 829 174 807 l 438 963 q 518 986 479 986 q 576 964 554 986 q 594 901 597 942 l 535 144 l 679 144 z "},"2":{"ha":835,"x_min":64,"x_max":756,"o":"m 678 144 q 736 128 717 144 q 756 79 756 111 q 667 0 756 0 l 138 0 q 83 19 103 0 q 64 67 64 38 q 104 150 64 111 l 447 489 q 548 614 517 558 q 579 724 579 669 q 542 816 579 783 q 438 849 504 849 q 217 774 325 849 q 168 758 192 758 q 125 776 142 758 q 108 821 108 794 q 154 900 108 867 q 290 967 211 943 q 451 992 368 990 q 674 920 593 992 q 756 725 756 849 q 714 567 756 642 q 571 394 672 492 l 313 144 l 678 144 z "},"3":{"ha":833,"x_min":42,"x_max":756,"o":"m 578 500 q 699 423 654 478 q 743 288 743 368 q 700 132 743 200 q 576 26 657 64 q 383 -11 494 -11 q 207 14 288 -11 q 76 76 126 39 q 42 140 42 100 q 61 193 42 171 q 110 215 81 215 q 150 204 132 215 q 265 150 210 168 q 386 132 321 132 q 524 172 476 132 q 572 288 572 213 q 527 392 572 358 q 390 425 482 425 l 313 425 q 268 444 285 425 q 251 496 251 464 q 272 547 251 526 q 325 567 293 567 l 385 567 q 531 608 479 567 q 582 724 582 649 q 542 815 582 782 q 432 849 503 849 q 217 774 325 849 q 168 758 192 758 q 125 776 142 758 q 108 821 108 794 q 154 900 108 867 q 290 967 211 943 q 451 992 368 990 q 610 961 540 992 q 717 875 679 931 q 756 746 756 819 q 709 594 756 658 q 578 500 663 531 z "},"4":{"ha":833,"x_min":36,"x_max":807,"o":"m 729 331 q 807 261 807 331 q 785 210 807 228 q 719 192 763 192 l 646 192 l 638 81 q 609 15 635 38 q 544 -8 583 -8 q 483 15 506 -8 q 464 82 460 39 l 472 192 l 110 192 q 56 212 75 192 q 36 263 36 232 q 63 333 36 299 l 538 947 q 575 977 553 967 q 619 988 597 988 q 681 964 656 988 q 703 899 706 940 l 657 331 l 729 331 m 483 331 l 513 700 l 228 331 l 483 331 z "},"5":{"ha":833,"x_min":69,"x_max":796,"o":"m 481 626 q 635 590 568 626 q 740 489 703 554 q 778 339 778 424 q 733 154 778 233 q 603 32 688 75 q 408 -11 519 -11 q 241 17 322 -11 q 101 92 160 44 q 69 153 69 118 q 91 203 69 182 q 143 224 113 224 q 194 208 169 224 q 410 132 310 132 q 554 183 501 132 q 607 321 607 233 q 560 442 607 397 q 431 486 513 486 q 336 471 376 486 q 246 418 296 456 q 193 401 219 401 q 146 419 164 401 q 131 467 128 438 l 164 894 q 191 957 167 935 q 256 979 215 979 l 717 979 q 796 914 796 979 q 772 860 796 879 q 707 840 749 840 l 335 840 l 315 583 q 481 626 389 626 z "},"6":{"ha":833,"x_min":69,"x_max":819,"o":"m 501 849 q 328 759 392 849 q 250 500 264 669 q 347 592 285 558 q 481 626 408 626 q 633 589 567 626 q 737 483 700 551 q 774 328 774 415 q 731 153 774 231 q 613 31 689 75 q 442 -12 538 -12 q 167 100 264 -12 q 69 418 69 213 q 122 722 69 593 q 272 922 174 851 q 504 992 369 992 q 665 967 588 992 q 783 903 742 942 q 819 833 819 876 q 802 783 819 804 q 757 763 785 763 q 713 776 736 763 q 610 829 665 810 q 501 849 556 849 m 439 486 q 313 434 361 486 q 264 300 264 382 q 312 176 264 224 q 436 129 360 129 q 558 182 511 129 q 604 319 604 235 q 559 441 604 396 q 439 486 514 486 z "},"7":{"ha":833,"x_min":107,"x_max":817,"o":"m 747 979 q 799 961 782 979 q 817 913 817 943 q 794 840 817 876 l 322 40 q 284 0 307 14 q 238 -14 261 -14 q 184 8 207 -14 q 161 61 161 29 q 176 114 161 88 l 604 835 l 188 835 q 107 903 107 835 q 130 960 107 940 q 194 979 153 979 l 747 979 z "},"8":{"ha":833,"x_min":43,"x_max":790,"o":"m 618 501 q 779 274 779 447 q 733 125 779 189 q 601 26 686 61 q 404 -10 517 -10 q 138 61 233 -10 q 43 258 43 132 q 96 415 43 349 q 240 506 149 481 q 138 588 174 533 q 103 715 103 642 q 146 861 103 799 q 269 958 189 924 q 456 992 349 992 q 703 925 615 992 q 790 740 790 858 q 743 592 790 657 q 618 501 696 528 m 454 851 q 319 813 365 851 q 272 703 272 775 q 317 601 272 638 q 442 565 361 565 q 575 606 529 565 q 621 719 621 646 q 454 851 621 851 m 404 129 q 557 169 504 129 q 610 283 610 208 q 564 391 610 356 q 419 426 518 426 q 264 387 317 426 q 211 269 211 347 q 260 166 211 203 q 404 129 308 129 z "},"9":{"ha":833,"x_min":39,"x_max":788,"o":"m 417 992 q 691 879 594 992 q 788 561 788 767 q 735 257 788 386 q 585 58 683 128 q 354 -12 488 -12 q 192 13 269 -12 q 74 76 115 38 q 39 146 39 101 q 56 196 39 175 q 101 217 74 217 q 146 203 122 217 q 247 150 193 169 q 356 131 301 131 q 531 220 465 131 q 608 479 596 310 q 512 387 574 421 q 376 353 450 353 q 224 390 290 353 q 120 496 157 428 q 83 651 83 564 q 126 826 83 749 q 245 948 169 904 q 417 992 321 992 m 418 493 q 545 545 496 493 q 594 679 594 597 q 547 803 594 756 q 422 850 499 850 q 299 797 346 850 q 253 660 253 744 q 298 538 253 583 q 418 493 343 493 z "},"\u0000":{"ha":0,"x_min":0,"x_max":0,"o":""},"\r":{"ha":376,"x_min":0,"x_max":0,"o":""}," ":{"ha":376,"x_min":0,"x_max":0,"o":""},"A":{"ha":1031,"x_min":19,"x_max":975,"o":"m 969 101 q 975 72 975 89 q 948 15 975 38 q 888 -7 921 -7 q 844 6 864 -7 q 817 44 825 18 l 751 229 l 271 229 l 176 42 q 144 6 164 18 q 101 -7 125 -7 q 44 15 69 -7 q 19 68 19 36 q 31 110 19 92 l 467 929 q 508 972 482 957 q 565 988 535 988 q 622 972 596 988 q 658 928 647 956 l 969 101 m 701 368 l 554 786 l 342 368 l 701 368 z "},"Á":{"ha":1031,"x_min":19,"x_max":975,"o":"m 969 101 q 975 72 975 89 q 948 15 975 38 q 888 -7 921 -7 q 844 6 864 -7 q 817 44 825 18 l 751 229 l 271 229 l 176 42 q 144 6 164 18 q 101 -7 125 -7 q 44 15 69 -7 q 19 68 19 36 q 31 110 19 92 l 467 929 q 508 972 482 957 q 565 988 535 988 q 622 972 596 988 q 658 928 647 956 l 969 101 m 701 368 l 554 786 l 342 368 l 701 368 m 636 1074 q 596 1057 618 1057 q 566 1067 578 1057 q 554 1094 554 1078 q 565 1126 554 1111 l 656 1254 q 710 1286 678 1286 q 753 1269 735 1286 q 772 1228 772 1251 q 749 1181 772 1203 l 636 1074 z "},"Ă":{"ha":1031,"x_min":19,"x_max":975,"o":"m 969 101 q 975 72 975 89 q 948 15 975 38 q 888 -7 921 -7 q 844 6 864 -7 q 817 44 825 18 l 751 229 l 271 229 l 176 42 q 144 6 164 18 q 101 -7 125 -7 q 44 15 69 -7 q 19 68 19 36 q 31 110 19 92 l 467 929 q 508 972 482 957 q 565 988 535 988 q 622 972 596 988 q 658 928 647 956 l 969 101 m 701 368 l 554 786 l 342 368 l 701 368 m 579 1076 q 449 1106 504 1076 q 364 1186 393 1135 q 354 1217 354 1201 q 369 1250 354 1238 q 406 1263 385 1263 q 451 1242 432 1263 q 583 1185 494 1185 q 721 1242 669 1185 q 771 1264 743 1264 q 801 1253 789 1264 q 814 1224 814 1242 q 801 1186 814 1207 q 709 1106 767 1135 q 579 1076 651 1076 z "},"Ắ":{"ha":1031,"x_min":19,"x_max":975,"o":"m 969 101 q 975 72 975 89 q 948 15 975 38 q 888 -7 921 -7 q 844 6 864 -7 q 817 44 825 18 l 751 229 l 271 229 l 176 42 q 144 6 164 18 q 101 -7 125 -7 q 44 15 69 -7 q 19 68 19 36 q 31 110 19 92 l 467 929 q 508 972 482 957 q 565 988 535 988 q 622 972 596 988 q 658 928 647 956 l 969 101 m 701 368 l 554 786 l 342 368 l 701 368 m 636 1213 q 606 1200 621 1200 q 578 1211 590 1200 q 567 1236 567 1222 q 576 1261 567 1250 l 668 1388 q 718 1417 689 1417 q 760 1399 742 1417 q 778 1360 778 1382 q 757 1319 778 1339 l 636 1213 m 579 1056 q 446 1085 501 1056 q 363 1167 390 1114 q 354 1194 354 1182 q 366 1225 354 1213 q 394 1238 378 1238 q 431 1219 414 1238 q 586 1150 482 1150 q 739 1219 678 1150 q 778 1239 757 1239 q 803 1228 793 1239 q 814 1201 814 1218 q 801 1167 814 1186 q 708 1085 767 1115 q 579 1056 650 1056 z "},"Ặ":{"ha":1031,"x_min":19,"x_max":975,"o":"m 969 101 q 975 72 975 89 q 948 15 975 38 q 888 -7 921 -7 q 844 6 864 -7 q 817 44 825 18 l 751 229 l 271 229 l 176 42 q 144 6 164 18 q 101 -7 125 -7 q 44 15 69 -7 q 19 68 19 36 q 31 110 19 92 l 467 929 q 508 972 482 957 q 565 988 535 988 q 622 972 596 988 q 658 928 647 956 l 969 101 m 701 368 l 554 786 l 342 368 l 701 368 m 475 -275 q 409 -251 435 -275 q 383 -186 383 -226 q 408 -124 383 -147 q 475 -100 433 -100 q 541 -124 515 -100 q 567 -186 567 -147 q 541 -251 567 -226 q 475 -275 515 -275 m 579 1076 q 449 1106 504 1076 q 364 1186 393 1135 q 354 1217 354 1201 q 369 1250 354 1238 q 406 1263 385 1263 q 451 1242 432 1263 q 583 1185 494 1185 q 721 1242 669 1185 q 771 1264 743 1264 q 801 1253 789 1264 q 814 1224 814 1242 q 801 1186 814 1207 q 709 1106 767 1135 q 579 1076 651 1076 z "},"Ằ":{"ha":1031,"x_min":19,"x_max":975,"o":"m 969 101 q 975 72 975 89 q 948 15 975 38 q 888 -7 921 -7 q 844 6 864 -7 q 817 44 825 18 l 751 229 l 271 229 l 176 42 q 144 6 164 18 q 101 -7 125 -7 q 44 15 69 -7 q 19 68 19 36 q 31 110 19 92 l 467 929 q 508 972 482 957 q 565 988 535 988 q 622 972 596 988 q 658 928 647 956 l 969 101 m 701 368 l 554 786 l 342 368 l 701 368 m 429 1322 q 411 1360 411 1340 q 429 1399 411 1382 q 471 1415 447 1415 q 518 1388 500 1415 l 599 1261 q 606 1239 606 1250 q 594 1212 606 1224 q 565 1200 582 1200 q 532 1215 547 1200 l 429 1322 m 579 1056 q 446 1085 501 1056 q 363 1167 390 1114 q 354 1194 354 1182 q 366 1225 354 1213 q 394 1238 378 1238 q 431 1219 414 1238 q 586 1150 482 1150 q 739 1219 678 1150 q 778 1239 757 1239 q 803 1228 793 1239 q 814 1201 814 1218 q 801 1167 814 1186 q 708 1085 767 1115 q 579 1056 650 1056 z "},"Ẳ":{"ha":1031,"x_min":19,"x_max":975,"o":"m 969 101 q 975 72 975 89 q 948 15 975 38 q 888 -7 921 -7 q 844 6 864 -7 q 817 44 825 18 l 751 229 l 271 229 l 176 42 q 144 6 164 18 q 101 -7 125 -7 q 44 15 69 -7 q 19 68 19 36 q 31 110 19 92 l 467 929 q 508 972 482 957 q 565 988 535 988 q 622 972 596 988 q 658 928 647 956 l 969 101 m 701 368 l 554 786 l 342 368 l 701 368 m 631 1226 q 614 1209 626 1215 q 585 1203 601 1203 q 552 1212 565 1203 q 540 1239 539 1221 q 559 1275 542 1263 q 606 1300 576 1288 q 627 1310 618 1304 q 636 1322 636 1315 q 626 1334 636 1331 q 593 1338 617 1338 q 551 1335 574 1338 q 518 1331 528 1332 q 489 1339 500 1329 q 478 1363 478 1349 q 504 1396 478 1386 q 614 1413 549 1413 q 714 1391 678 1413 q 750 1335 750 1369 q 733 1291 750 1306 q 681 1263 715 1276 q 646 1245 657 1251 q 631 1226 635 1239 m 576 1056 q 444 1085 499 1056 q 361 1167 389 1114 q 353 1194 353 1182 q 365 1225 353 1213 q 393 1238 376 1238 q 429 1219 413 1238 q 583 1150 481 1150 q 668 1167 629 1150 q 736 1219 707 1185 q 775 1239 754 1239 q 801 1228 790 1239 q 811 1200 811 1217 q 800 1167 811 1183 q 707 1085 765 1115 q 576 1056 649 1056 z "},"Ẵ":{"ha":1031,"x_min":19,"x_max":975,"o":"m 969 101 q 975 72 975 89 q 948 15 975 38 q 888 -7 921 -7 q 844 6 864 -7 q 817 44 825 18 l 751 229 l 271 229 l 176 42 q 144 6 164 18 q 101 -7 125 -7 q 44 15 69 -7 q 19 68 19 36 q 31 110 19 92 l 467 929 q 508 972 482 957 q 565 988 535 988 q 622 972 596 988 q 658 928 647 956 l 969 101 m 701 368 l 554 786 l 342 368 l 701 368 m 690 1267 q 641 1274 665 1267 q 576 1296 617 1281 q 530 1311 553 1304 q 492 1318 507 1318 q 438 1290 463 1318 q 416 1273 424 1278 q 396 1268 408 1268 q 361 1307 361 1268 q 380 1351 361 1326 q 431 1394 399 1376 q 499 1411 463 1411 q 544 1405 521 1411 q 587 1392 567 1399 q 614 1383 607 1386 q 649 1371 621 1381 q 697 1361 676 1361 q 727 1368 715 1361 q 751 1389 739 1375 q 771 1406 763 1400 q 792 1411 779 1411 q 819 1401 810 1411 q 829 1372 829 1390 q 810 1327 829 1353 q 758 1284 790 1301 q 690 1267 726 1267 m 578 1056 q 445 1085 500 1056 q 363 1167 390 1114 q 354 1194 354 1182 q 366 1227 354 1214 q 394 1240 378 1240 q 431 1219 414 1240 q 585 1150 478 1150 q 669 1167 631 1150 q 738 1219 708 1185 q 776 1239 756 1239 q 802 1228 792 1239 q 813 1200 813 1217 q 801 1167 813 1183 q 708 1085 767 1115 q 578 1056 650 1056 z "},"Â":{"ha":1031,"x_min":19,"x_max":975,"o":"m 969 101 q 975 72 975 89 q 948 15 975 38 q 888 -7 921 -7 q 844 6 864 -7 q 817 44 825 18 l 751 229 l 271 229 l 176 42 q 144 6 164 18 q 101 -7 125 -7 q 44 15 69 -7 q 19 68 19 36 q 31 110 19 92 l 467 929 q 508 972 482 957 q 565 988 535 988 q 622 972 596 988 q 658 928 647 956 l 969 101 m 701 368 l 554 786 l 342 368 l 701 368 m 499 1085 q 443 1056 475 1056 q 408 1069 422 1056 q 393 1100 393 1082 q 411 1139 393 1119 l 519 1257 q 592 1285 546 1285 q 656 1257 636 1285 l 744 1140 q 757 1107 757 1124 q 740 1072 757 1086 q 701 1057 724 1057 q 649 1089 668 1057 l 586 1190 l 499 1085 z "},"Ấ":{"ha":1031,"x_min":19,"x_max":975,"o":"m 969 101 q 975 72 975 89 q 948 15 975 38 q 888 -7 921 -7 q 844 6 864 -7 q 817 44 825 18 l 751 229 l 271 229 l 176 42 q 144 6 164 18 q 101 -7 125 -7 q 44 15 69 -7 q 19 68 19 36 q 31 110 19 92 l 467 929 q 508 972 482 957 q 565 988 535 988 q 622 972 596 988 q 658 928 647 956 l 969 101 m 701 368 l 554 786 l 342 368 l 701 368 m 796 1214 q 765 1201 781 1201 q 738 1213 750 1201 q 726 1238 726 1224 q 736 1263 726 1251 l 826 1388 q 876 1417 847 1417 q 918 1399 900 1417 q 936 1360 936 1382 q 913 1315 936 1335 l 796 1214 m 492 1074 q 451 1054 474 1054 q 417 1069 432 1054 q 403 1103 403 1083 q 422 1143 403 1125 l 522 1243 q 593 1272 556 1272 q 654 1243 629 1272 l 742 1136 q 756 1103 756 1121 q 739 1069 756 1083 q 701 1054 722 1054 q 657 1078 675 1054 l 586 1175 l 492 1074 z "},"Ậ":{"ha":1031,"x_min":19,"x_max":975,"o":"m 969 101 q 975 72 975 89 q 948 15 975 38 q 888 -7 921 -7 q 844 6 864 -7 q 817 44 825 18 l 751 229 l 271 229 l 176 42 q 144 6 164 18 q 101 -7 125 -7 q 44 15 69 -7 q 19 68 19 36 q 31 110 19 92 l 467 929 q 508 972 482 957 q 565 988 535 988 q 622 972 596 988 q 658 928 647 956 l 969 101 m 701 368 l 554 786 l 342 368 l 701 368 m 475 -275 q 409 -251 435 -275 q 383 -186 383 -226 q 408 -124 383 -147 q 475 -100 433 -100 q 541 -124 515 -100 q 567 -186 567 -147 q 541 -251 567 -226 q 475 -275 515 -275 m 499 1085 q 443 1056 475 1056 q 408 1069 422 1056 q 393 1100 393 1082 q 411 1139 393 1119 l 519 1257 q 592 1285 546 1285 q 656 1257 636 1285 l 744 1140 q 757 1107 757 1124 q 740 1072 757 1086 q 701 1057 724 1057 q 649 1089 668 1057 l 586 1190 l 499 1085 z "},"Ầ":{"ha":1031,"x_min":19,"x_max":975,"o":"m 969 101 q 975 72 975 89 q 948 15 975 38 q 888 -7 921 -7 q 844 6 864 -7 q 817 44 825 18 l 751 229 l 271 229 l 176 42 q 144 6 164 18 q 101 -7 125 -7 q 44 15 69 -7 q 19 68 19 36 q 31 110 19 92 l 467 929 q 508 972 482 957 q 565 988 535 988 q 622 972 596 988 q 658 928 647 956 l 969 101 m 701 368 l 554 786 l 342 368 l 701 368 m 810 1222 q 778 1206 796 1206 q 753 1215 764 1206 q 742 1239 742 1225 q 746 1254 742 1246 l 775 1374 q 822 1410 789 1410 q 859 1395 843 1410 q 875 1360 875 1381 q 865 1329 875 1343 l 810 1222 m 492 1074 q 451 1054 474 1054 q 417 1069 432 1054 q 403 1103 403 1083 q 422 1143 403 1125 l 522 1243 q 593 1272 556 1272 q 654 1243 629 1272 l 742 1136 q 756 1103 756 1121 q 739 1069 756 1083 q 701 1054 722 1054 q 657 1078 675 1054 l 586 1175 l 492 1074 z "},"Ẩ":{"ha":1031,"x_min":19,"x_max":975,"o":"m 969 101 q 975 72 975 89 q 948 15 975 38 q 888 -7 921 -7 q 844 6 864 -7 q 817 44 825 18 l 751 229 l 271 229 l 176 42 q 144 6 164 18 q 101 -7 125 -7 q 44 15 69 -7 q 19 68 19 36 q 31 110 19 92 l 467 929 q 508 972 482 957 q 565 988 535 988 q 622 972 596 988 q 658 928 647 956 l 969 101 m 701 368 l 554 786 l 342 368 l 701 368 m 804 1226 q 787 1209 800 1215 q 758 1203 774 1203 q 727 1211 740 1203 q 714 1235 714 1219 q 732 1276 714 1261 q 779 1301 750 1290 q 801 1311 792 1306 q 810 1322 810 1317 q 765 1339 810 1339 q 724 1335 744 1339 q 690 1332 701 1332 q 661 1340 672 1331 q 650 1363 650 1349 q 678 1396 650 1386 q 786 1413 721 1413 q 887 1391 850 1413 q 924 1335 924 1369 q 906 1291 924 1306 q 854 1263 888 1276 q 820 1246 832 1254 q 804 1226 808 1238 m 492 1074 q 451 1054 474 1054 q 417 1069 432 1054 q 403 1103 403 1083 q 422 1143 403 1125 l 522 1243 q 593 1272 556 1272 q 654 1243 629 1272 l 742 1136 q 756 1103 756 1121 q 739 1069 756 1083 q 701 1054 722 1054 q 657 1078 675 1054 l 586 1175 l 492 1074 z "},"Ẫ":{"ha":1031,"x_min":19,"x_max":975,"o":"m 969 101 q 975 72 975 89 q 948 15 975 38 q 888 -7 921 -7 q 844 6 864 -7 q 817 44 825 18 l 751 229 l 271 229 l 176 42 q 144 6 164 18 q 101 -7 125 -7 q 44 15 69 -7 q 19 68 19 36 q 31 110 19 92 l 467 929 q 508 972 482 957 q 565 988 535 988 q 622 972 596 988 q 658 928 647 956 l 969 101 m 701 368 l 554 786 l 342 368 l 701 368 m 397 1282 q 363 1321 363 1282 q 381 1365 363 1340 q 432 1406 400 1389 q 500 1424 464 1424 q 615 1396 540 1424 q 661 1381 639 1388 q 699 1375 683 1375 q 728 1382 717 1375 q 753 1401 740 1389 q 772 1418 764 1413 q 793 1424 781 1424 q 821 1413 811 1424 q 831 1385 831 1403 q 811 1340 831 1365 q 760 1298 792 1315 q 692 1281 728 1281 q 640 1288 667 1281 q 578 1308 614 1294 q 531 1324 554 1317 q 493 1331 508 1331 q 463 1324 475 1331 q 439 1304 451 1317 q 417 1287 425 1292 q 397 1282 410 1282 m 492 1074 q 451 1054 474 1054 q 417 1069 432 1054 q 403 1103 403 1083 q 422 1143 403 1125 l 522 1243 q 593 1272 556 1272 q 654 1243 629 1272 l 742 1136 q 756 1103 756 1121 q 739 1069 756 1083 q 701 1054 722 1054 q 657 1078 675 1054 l 586 1175 l 492 1074 z "},"Ȁ":{"ha":1031,"x_min":19,"x_max":975,"o":"m 969 101 q 975 72 975 89 q 948 15 975 38 q 888 -7 921 -7 q 844 6 864 -7 q 817 44 825 18 l 751 229 l 271 229 l 176 42 q 144 6 164 18 q 101 -7 125 -7 q 44 15 69 -7 q 19 68 19 36 q 31 110 19 92 l 467 929 q 508 972 482 957 q 565 988 535 988 q 622 972 596 988 q 658 928 647 956 l 969 101 m 701 368 l 554 786 l 342 368 l 701 368 m 358 1203 q 349 1233 349 1218 q 365 1269 349 1254 q 401 1285 381 1285 q 451 1246 436 1285 l 503 1113 q 506 1096 506 1107 q 494 1068 506 1079 q 468 1057 483 1057 q 432 1079 446 1057 l 358 1203 m 540 1203 q 531 1233 531 1218 q 547 1269 531 1254 q 585 1285 564 1285 q 635 1246 619 1285 l 686 1113 q 689 1096 689 1107 q 678 1068 689 1079 q 651 1057 667 1057 q 615 1079 629 1057 l 540 1203 z "},"Ä":{"ha":1031,"x_min":19,"x_max":975,"o":"m 969 101 q 975 72 975 89 q 948 15 975 38 q 888 -7 921 -7 q 844 6 864 -7 q 817 44 825 18 l 751 229 l 271 229 l 176 42 q 144 6 164 18 q 101 -7 125 -7 q 44 15 69 -7 q 19 68 19 36 q 31 110 19 92 l 467 929 q 508 972 482 957 q 565 988 535 988 q 622 972 596 988 q 658 928 647 956 l 969 101 m 701 368 l 554 786 l 342 368 l 701 368 m 454 1083 q 389 1108 414 1083 q 364 1171 364 1132 q 389 1233 364 1210 q 454 1257 414 1257 q 520 1233 494 1257 q 546 1171 546 1210 q 520 1108 546 1132 q 454 1083 494 1083 m 710 1083 q 644 1108 669 1083 q 619 1171 619 1132 q 644 1233 619 1210 q 710 1257 669 1257 q 774 1233 749 1257 q 800 1171 800 1210 q 775 1108 800 1132 q 710 1083 750 1083 z "},"Ạ":{"ha":1031,"x_min":19,"x_max":975,"o":"m 969 101 q 975 72 975 89 q 948 15 975 38 q 888 -7 921 -7 q 844 6 864 -7 q 817 44 825 18 l 751 229 l 271 229 l 176 42 q 144 6 164 18 q 101 -7 125 -7 q 44 15 69 -7 q 19 68 19 36 q 31 110 19 92 l 467 929 q 508 972 482 957 q 565 988 535 988 q 622 972 596 988 q 658 928 647 956 l 969 101 m 701 368 l 554 786 l 342 368 l 701 368 m 475 -275 q 409 -251 435 -275 q 383 -186 383 -226 q 408 -124 383 -147 q 475 -100 433 -100 q 541 -124 515 -100 q 567 -186 567 -147 q 541 -251 567 -226 q 475 -275 515 -275 z "},"À":{"ha":1031,"x_min":19,"x_max":975,"o":"m 969 101 q 975 72 975 89 q 948 15 975 38 q 888 -7 921 -7 q 844 6 864 -7 q 817 44 825 18 l 751 229 l 271 229 l 176 42 q 144 6 164 18 q 101 -7 125 -7 q 44 15 69 -7 q 19 68 19 36 q 31 110 19 92 l 467 929 q 508 972 482 957 q 565 988 535 988 q 622 972 596 988 q 658 928 647 956 l 969 101 m 701 368 l 554 786 l 342 368 l 701 368 m 413 1189 q 396 1229 396 1207 q 415 1269 396 1253 q 458 1286 433 1286 q 513 1253 493 1286 l 590 1119 q 597 1096 597 1106 q 584 1067 597 1078 q 551 1056 571 1056 q 510 1075 528 1056 l 413 1189 z "},"Ả":{"ha":1031,"x_min":19,"x_max":975,"o":"m 969 101 q 975 72 975 89 q 948 15 975 38 q 888 -7 921 -7 q 844 6 864 -7 q 817 44 825 18 l 751 229 l 271 229 l 176 42 q 144 6 164 18 q 101 -7 125 -7 q 44 15 69 -7 q 19 68 19 36 q 31 110 19 92 l 467 929 q 508 972 482 957 q 565 988 535 988 q 622 972 596 988 q 658 928 647 956 l 969 101 m 701 368 l 554 786 l 342 368 l 701 368 m 622 1083 q 605 1063 618 1071 q 576 1056 592 1056 q 544 1065 557 1056 q 531 1090 531 1075 q 547 1131 531 1117 q 592 1157 563 1144 q 619 1171 611 1165 q 628 1186 628 1176 q 583 1206 628 1206 q 510 1196 551 1206 q 481 1202 492 1192 q 469 1228 469 1213 q 497 1265 469 1256 q 603 1282 540 1282 q 705 1259 668 1282 q 742 1200 742 1236 q 724 1155 742 1171 q 674 1124 707 1139 q 638 1104 650 1113 q 622 1083 626 1096 z "},"Ȃ":{"ha":1031,"x_min":19,"x_max":975,"o":"m 969 101 q 975 72 975 89 q 948 15 975 38 q 888 -7 921 -7 q 844 6 864 -7 q 817 44 825 18 l 751 229 l 271 229 l 176 42 q 144 6 164 18 q 101 -7 125 -7 q 44 15 69 -7 q 19 68 19 36 q 31 110 19 92 l 467 929 q 508 972 482 957 q 565 988 535 988 q 622 972 596 988 q 658 928 647 956 l 969 101 m 701 368 l 554 786 l 342 368 l 701 368 m 582 1264 q 713 1235 657 1264 q 797 1154 768 1207 q 807 1122 807 1139 q 793 1090 807 1103 q 758 1078 779 1078 q 711 1100 732 1078 q 578 1157 665 1157 q 440 1100 493 1157 q 390 1078 418 1078 q 360 1089 372 1078 q 347 1118 347 1100 q 360 1154 347 1133 q 452 1235 394 1206 q 582 1264 510 1264 z "},"Ā":{"ha":1031,"x_min":19,"x_max":975,"o":"m 969 101 q 975 72 975 89 q 948 15 975 38 q 888 -7 921 -7 q 844 6 864 -7 q 817 44 825 18 l 751 229 l 271 229 l 176 42 q 144 6 164 18 q 101 -7 125 -7 q 44 15 69 -7 q 19 68 19 36 q 31 110 19 92 l 467 929 q 508 972 482 957 q 565 988 535 988 q 622 972 596 988 q 658 928 647 956 l 969 101 m 701 368 l 554 786 l 342 368 l 701 368 m 410 1114 q 367 1128 383 1114 q 351 1167 351 1143 q 370 1211 351 1196 q 418 1226 389 1226 l 754 1226 q 797 1212 782 1226 q 813 1171 813 1197 q 794 1128 813 1143 q 746 1114 775 1114 l 410 1114 z "},"Ą":{"ha":1031,"x_min":18,"x_max":1015,"o":"m 969 -162 q 985 -160 981 -160 q 1007 -170 999 -160 q 1015 -196 1015 -181 q 1008 -222 1015 -210 q 988 -242 1001 -235 q 878 -271 933 -271 q 756 -231 801 -271 q 711 -128 711 -192 q 819 33 711 -17 l 750 229 l 271 229 l 176 42 q 144 6 164 18 q 101 -7 125 -7 q 44 15 69 -7 q 18 68 18 36 q 31 110 18 88 l 467 929 q 508 972 482 957 q 565 988 535 988 q 622 972 596 988 q 658 928 647 956 l 964 108 q 971 72 971 93 q 957 28 971 47 q 921 1 943 10 q 856 -36 883 -10 q 829 -101 829 -62 q 849 -156 829 -137 q 904 -175 869 -175 q 969 -162 936 -175 m 701 368 l 553 785 l 342 368 l 701 368 z "},"Å":{"ha":1031,"x_min":19,"x_max":975,"o":"m 969 101 q 975 72 975 89 q 948 15 975 38 q 888 -7 921 -7 q 844 6 864 -7 q 817 44 825 18 l 751 229 l 271 229 l 176 42 q 144 5 164 17 q 101 -7 125 -7 q 44 15 69 -7 q 19 68 19 36 q 31 110 19 89 l 483 963 q 441 1013 457 983 q 425 1078 425 1043 q 468 1181 425 1139 q 574 1222 511 1222 q 678 1181 635 1222 q 721 1078 721 1139 q 701 1005 721 1038 q 649 953 682 972 l 969 101 m 574 1143 q 528 1124 546 1143 q 510 1078 510 1106 q 528 1031 510 1050 q 574 1013 546 1013 q 618 1031 600 1013 q 636 1078 636 1050 q 618 1124 636 1106 q 574 1143 600 1143 m 701 368 l 554 786 l 342 368 l 701 368 z "},"Ǻ":{"ha":1031,"x_min":19,"x_max":975,"o":"m 969 101 q 975 72 975 89 q 948 15 975 38 q 888 -7 921 -7 q 844 6 864 -7 q 817 44 825 18 l 751 229 l 271 229 l 176 42 q 144 5 164 17 q 101 -7 125 -7 q 44 15 69 -7 q 19 68 19 36 q 31 110 19 89 l 483 963 q 441 1013 457 983 q 425 1078 425 1043 q 468 1181 425 1139 q 574 1222 511 1222 q 653 1200 617 1222 l 796 1299 q 850 1318 824 1318 q 896 1299 878 1318 q 914 1254 914 1281 q 899 1213 914 1232 q 851 1182 883 1193 l 710 1132 q 721 1078 721 1106 q 701 1005 721 1038 q 649 953 682 972 l 969 101 m 574 1143 q 528 1124 546 1143 q 510 1078 510 1106 q 528 1031 510 1050 q 574 1013 546 1013 q 618 1031 600 1013 q 636 1078 636 1050 q 618 1124 636 1106 q 574 1143 600 1143 m 701 368 l 554 786 l 342 368 l 701 368 z "},"Ã":{"ha":1031,"x_min":19,"x_max":975,"o":"m 969 101 q 975 72 975 89 q 948 15 975 38 q 888 -7 921 -7 q 844 6 864 -7 q 817 44 825 18 l 751 229 l 271 229 l 176 42 q 144 6 164 18 q 101 -7 125 -7 q 44 15 69 -7 q 19 68 19 36 q 31 110 19 92 l 467 929 q 508 972 482 957 q 565 988 535 988 q 622 972 596 988 q 658 928 647 956 l 969 101 m 701 368 l 554 786 l 342 368 l 701 368 m 676 1082 q 629 1090 653 1082 q 569 1115 606 1099 q 521 1137 540 1129 q 483 1144 501 1144 q 449 1136 463 1144 q 422 1111 436 1128 q 403 1093 411 1099 q 383 1088 396 1088 q 349 1131 349 1088 q 366 1190 349 1160 q 415 1241 383 1221 q 488 1261 446 1261 q 536 1252 511 1261 q 594 1226 561 1243 q 643 1205 624 1213 q 681 1197 663 1197 q 715 1206 701 1197 q 742 1231 728 1214 q 760 1249 753 1243 q 781 1254 768 1254 q 815 1213 815 1254 q 798 1153 815 1183 q 749 1102 781 1122 q 676 1082 718 1082 z "},"Æ":{"ha":1385,"x_min":8,"x_max":1389,"o":"m 807 838 l 844 568 l 1250 568 q 1308 550 1288 568 q 1329 501 1329 532 q 1242 428 1329 428 l 864 428 l 904 142 l 1244 142 q 1303 124 1282 142 q 1324 74 1324 106 q 1235 0 1324 0 l 833 0 q 780 15 801 0 q 756 54 758 29 l 731 229 l 296 229 l 171 42 q 130 2 153 15 q 82 -11 107 -11 q 30 8 51 -11 q 8 58 8 28 q 32 124 8 90 l 594 929 q 640 966 613 953 q 700 979 668 979 l 1310 979 q 1369 961 1349 979 q 1389 913 1389 943 q 1366 856 1389 875 q 1300 838 1343 838 l 807 838 m 711 368 l 656 767 l 389 368 l 711 368 z "},"Ǽ":{"ha":1385,"x_min":8,"x_max":1389,"o":"m 807 838 l 844 568 l 1250 568 q 1308 550 1288 568 q 1329 501 1329 532 q 1242 428 1329 428 l 864 428 l 904 142 l 1244 142 q 1303 124 1282 142 q 1324 74 1324 106 q 1235 0 1324 0 l 833 0 q 780 15 801 0 q 756 54 758 29 l 731 229 l 296 229 l 171 42 q 130 2 153 15 q 82 -11 107 -11 q 30 8 51 -11 q 8 58 8 28 q 32 124 8 90 l 594 929 q 640 966 613 953 q 700 979 668 979 l 1310 979 q 1369 961 1349 979 q 1389 913 1389 943 q 1366 856 1389 875 q 1300 838 1343 838 l 807 838 m 711 368 l 656 767 l 389 368 l 711 368 m 818 1074 q 778 1057 800 1057 q 748 1067 760 1057 q 736 1094 736 1078 q 747 1126 736 1111 l 838 1254 q 892 1286 860 1286 q 935 1269 917 1286 q 954 1228 954 1251 q 931 1181 954 1203 l 818 1074 z "},"B":{"ha":949,"x_min":83,"x_max":894,"o":"m 721 501 q 840 422 799 481 q 882 281 882 363 q 788 74 882 147 q 532 0 694 0 l 167 0 q 105 23 126 0 q 86 88 83 46 l 150 894 q 177 957 153 935 q 242 979 201 979 l 572 979 q 812 914 729 979 q 894 736 894 849 q 851 593 894 653 q 721 501 807 533 m 321 840 l 299 567 l 529 567 q 674 602 626 567 q 721 713 721 638 q 546 840 721 840 l 321 840 m 519 139 q 665 175 617 139 q 714 289 714 211 q 670 393 714 358 q 536 428 626 428 l 288 428 l 265 139 l 519 139 z "},"C":{"ha":942,"x_min":86,"x_max":936,"o":"m 532 -12 q 295 44 396 -12 q 140 206 194 100 q 86 454 86 311 q 147 738 86 615 q 321 926 208 860 q 583 992 433 992 q 762 966 681 992 q 896 899 843 940 q 936 828 936 872 q 917 776 936 797 q 869 754 899 754 q 824 769 844 754 q 589 846 724 846 q 353 741 438 846 q 268 453 268 636 q 340 216 268 299 q 543 133 411 133 q 778 210 663 133 q 822 224 801 224 q 865 204 849 224 q 882 157 882 185 q 846 88 882 115 q 710 15 793 43 q 532 -12 628 -12 z "},"Ć":{"ha":942,"x_min":86,"x_max":936,"o":"m 532 -12 q 295 44 396 -12 q 140 206 194 100 q 86 454 86 311 q 147 738 86 615 q 321 926 208 860 q 583 992 433 992 q 762 966 681 992 q 896 899 843 940 q 936 828 936 872 q 917 776 936 797 q 869 754 899 754 q 824 769 844 754 q 589 846 724 846 q 353 741 438 846 q 268 453 268 636 q 340 216 268 299 q 543 133 411 133 q 778 210 663 133 q 822 224 801 224 q 865 204 849 224 q 882 157 882 185 q 846 88 882 115 q 710 15 793 43 q 532 -12 628 -12 m 664 1074 q 624 1057 646 1057 q 594 1067 606 1057 q 582 1094 582 1078 q 593 1126 582 1111 l 683 1254 q 738 1286 706 1286 q 781 1269 763 1286 q 800 1228 800 1251 q 776 1181 800 1203 l 664 1074 z "},"Č":{"ha":942,"x_min":86,"x_max":936,"o":"m 532 -12 q 295 44 396 -12 q 140 206 194 100 q 86 454 86 311 q 147 738 86 615 q 321 926 208 860 q 583 992 433 992 q 762 966 681 992 q 896 899 843 940 q 936 828 936 872 q 917 776 936 797 q 869 754 899 754 q 824 769 844 754 q 589 846 724 846 q 353 741 438 846 q 268 453 268 636 q 340 216 268 299 q 543 133 411 133 q 778 210 663 133 q 822 224 801 224 q 865 204 849 224 q 882 157 882 185 q 846 88 882 115 q 710 15 793 43 q 532 -12 628 -12 m 690 1254 q 746 1283 714 1283 q 781 1270 767 1283 q 796 1239 796 1257 q 778 1200 796 1219 l 669 1082 q 600 1053 642 1053 q 533 1082 557 1053 l 446 1199 q 433 1233 433 1215 q 450 1269 433 1254 q 489 1283 467 1283 q 540 1251 521 1283 l 603 1149 l 690 1254 z "},"Ç":{"ha":942,"x_min":86,"x_max":936,"o":"m 589 846 q 353 741 438 846 q 268 453 268 636 q 340 216 268 299 q 543 133 411 133 q 778 210 663 133 q 822 224 801 224 q 865 204 849 224 q 882 157 882 185 q 846 88 882 115 q 718 18 794 46 q 551 -12 642 -10 l 542 -57 q 558 -56 547 -56 q 639 -81 610 -56 q 668 -150 668 -106 q 619 -238 668 -206 q 490 -271 571 -271 q 389 -257 431 -271 q 369 -243 376 -253 q 363 -221 363 -233 q 376 -188 363 -201 q 408 -181 389 -175 q 485 -193 447 -193 q 557 -151 557 -193 q 514 -121 557 -121 q 481 -126 499 -121 q 458 -131 464 -131 q 438 -122 444 -131 q 433 -103 431 -114 l 453 -7 q 183 138 281 17 q 86 454 86 260 q 147 738 86 615 q 321 926 208 860 q 583 992 433 992 q 762 966 681 992 q 896 899 843 940 q 936 828 936 872 q 917 776 936 797 q 869 754 899 754 q 824 769 844 754 q 589 846 724 846 z "},"Ḉ":{"ha":942,"x_min":86,"x_max":936,"o":"m 664 1074 q 624 1057 646 1057 q 594 1067 606 1057 q 582 1094 582 1078 q 593 1126 582 1111 l 683 1254 q 738 1286 706 1286 q 781 1269 763 1286 q 800 1228 800 1251 q 776 1181 800 1203 l 664 1074 m 589 846 q 353 741 438 846 q 268 453 268 636 q 340 216 268 299 q 543 133 411 133 q 778 210 663 133 q 822 224 801 224 q 865 204 849 224 q 882 157 882 185 q 846 88 882 115 q 718 18 794 46 q 551 -12 642 -10 l 542 -57 q 558 -56 547 -56 q 639 -81 610 -56 q 668 -150 668 -106 q 619 -238 668 -206 q 490 -271 571 -271 q 389 -257 431 -271 q 369 -243 376 -253 q 363 -221 363 -233 q 376 -188 363 -201 q 408 -181 389 -175 q 485 -193 447 -193 q 557 -151 557 -193 q 514 -121 557 -121 q 481 -126 499 -121 q 458 -131 464 -131 q 438 -122 444 -131 q 433 -103 431 -114 l 453 -7 q 183 138 281 17 q 86 454 86 260 q 147 738 86 615 q 321 926 208 860 q 583 992 433 992 q 762 966 681 992 q 896 899 843 940 q 936 828 936 872 q 917 776 936 797 q 869 754 899 754 q 824 769 844 754 q 589 846 724 846 z "},"Ĉ":{"ha":942,"x_min":86,"x_max":936,"o":"m 532 -12 q 295 44 396 -12 q 140 206 194 100 q 86 454 86 311 q 147 738 86 615 q 321 926 208 860 q 583 992 433 992 q 762 966 681 992 q 896 899 843 940 q 936 828 936 872 q 917 776 936 797 q 869 754 899 754 q 824 769 844 754 q 589 846 724 846 q 353 741 438 846 q 268 453 268 636 q 340 216 268 299 q 543 133 411 133 q 778 210 663 133 q 822 224 801 224 q 865 204 849 224 q 882 157 882 185 q 846 88 882 115 q 710 15 793 43 q 532 -12 628 -12 m 526 1085 q 471 1056 503 1056 q 435 1069 450 1056 q 421 1100 421 1082 q 439 1139 421 1119 l 547 1257 q 619 1285 574 1285 q 683 1257 664 1285 l 772 1140 q 785 1107 785 1124 q 768 1072 785 1086 q 729 1057 751 1057 q 676 1089 696 1057 l 614 1190 l 526 1085 z "},"Ċ":{"ha":942,"x_min":86,"x_max":936,"o":"m 532 -12 q 295 44 396 -12 q 140 206 194 100 q 86 454 86 311 q 147 738 86 615 q 321 926 208 860 q 583 992 433 992 q 762 966 681 992 q 896 899 843 940 q 936 828 936 872 q 917 776 936 797 q 869 754 899 754 q 824 769 844 754 q 589 846 724 846 q 353 741 438 846 q 268 453 268 636 q 340 216 268 299 q 543 133 411 133 q 778 210 663 133 q 822 224 801 224 q 865 204 849 224 q 882 157 882 185 q 846 88 882 115 q 710 15 793 43 q 532 -12 628 -12 m 610 1078 q 535 1103 563 1078 q 507 1171 507 1129 q 535 1238 507 1213 q 610 1263 563 1263 q 684 1238 656 1263 q 713 1171 713 1213 q 685 1103 713 1129 q 610 1078 657 1078 z "},"D":{"ha":1047,"x_min":83,"x_max":985,"o":"m 167 0 q 105 23 126 0 q 86 88 83 46 l 150 894 q 177 957 153 935 q 242 979 201 979 l 514 979 q 767 925 661 979 q 928 768 872 871 q 985 525 985 665 q 924 242 985 360 q 745 63 863 125 q 463 0 628 0 l 167 0 m 449 146 q 806 526 806 146 q 726 755 806 676 q 493 833 647 833 l 324 833 l 269 146 l 449 146 z "},"Ǆ":{"ha":1863,"x_min":86,"x_max":1858,"o":"m 167 0 q 105 23 126 0 q 86 88 83 46 l 150 894 q 177 957 153 935 q 242 979 201 979 l 514 979 q 767 925 661 979 q 928 768 872 871 q 985 525 985 665 q 924 242 985 360 q 745 63 863 125 q 463 0 628 0 l 167 0 m 449 146 q 806 526 806 146 q 726 755 806 676 q 493 833 647 833 l 324 833 l 269 146 l 449 146 m 1786 979 q 1839 960 1819 979 q 1858 911 1858 940 q 1831 840 1858 876 l 1285 143 l 1732 143 q 1790 126 1771 143 q 1810 76 1810 108 q 1722 0 1810 0 l 1129 0 q 1076 19 1094 0 q 1057 69 1057 39 q 1083 139 1057 107 l 1631 836 l 1201 836 q 1143 853 1163 836 q 1124 901 1124 869 q 1145 960 1124 942 q 1211 979 1167 979 l 1786 979 m 1593 1254 q 1649 1283 1617 1283 q 1684 1270 1669 1283 q 1699 1239 1699 1257 q 1681 1200 1699 1219 l 1572 1082 q 1503 1053 1544 1053 q 1436 1082 1460 1053 l 1349 1199 q 1336 1233 1336 1215 q 1353 1269 1336 1254 q 1392 1283 1369 1283 q 1443 1251 1424 1283 l 1506 1149 l 1593 1254 z "},"Ð":{"ha":1081,"x_min":13,"x_max":1017,"o":"m 546 979 q 799 925 693 979 q 960 768 904 871 q 1017 525 1017 665 q 956 242 1017 360 q 777 63 894 125 q 494 0 660 0 l 199 0 q 137 23 158 0 q 118 88 115 46 l 144 426 l 89 426 q 33 444 53 426 q 13 493 13 463 q 35 546 13 528 q 99 564 58 564 l 156 564 l 182 894 q 209 957 185 935 q 274 979 233 979 l 546 979 m 481 146 q 838 526 838 146 q 758 755 838 676 q 525 833 679 833 l 356 833 l 335 564 l 531 564 q 587 547 567 564 q 607 499 607 529 q 585 445 607 464 q 522 426 563 426 l 324 426 l 301 146 l 481 146 z "},"Ď":{"ha":1047,"x_min":86,"x_max":985,"o":"m 167 0 q 105 23 126 0 q 86 88 83 46 l 150 894 q 177 957 153 935 q 242 979 201 979 l 514 979 q 767 925 661 979 q 928 768 872 871 q 985 525 985 665 q 924 242 985 360 q 745 63 863 125 q 463 0 628 0 l 167 0 m 449 146 q 806 526 806 146 q 726 755 806 676 q 493 833 647 833 l 324 833 l 269 146 l 449 146 m 671 1254 q 726 1283 694 1283 q 762 1270 747 1283 q 776 1239 776 1257 q 758 1200 776 1219 l 650 1082 q 581 1053 622 1053 q 514 1082 538 1053 l 426 1199 q 414 1233 414 1215 q 431 1269 414 1254 q 469 1283 447 1283 q 521 1251 501 1283 l 583 1149 l 671 1254 z "},"Đ":{"ha":1081,"x_min":13,"x_max":1017,"o":"m 546 979 q 799 925 693 979 q 960 768 904 871 q 1017 525 1017 665 q 956 242 1017 360 q 777 63 894 125 q 494 0 660 0 l 199 0 q 137 23 158 0 q 118 88 115 46 l 144 426 l 89 426 q 33 444 53 426 q 13 493 13 463 q 35 546 13 528 q 99 564 58 564 l 156 564 l 182 894 q 209 957 185 935 q 274 979 233 979 l 546 979 m 481 146 q 838 526 838 146 q 758 755 838 676 q 525 833 679 833 l 356 833 l 335 564 l 531 564 q 587 547 567 564 q 607 499 607 529 q 585 445 607 464 q 522 426 563 426 l 324 426 l 301 146 l 481 146 z "},"Ḍ":{"ha":1047,"x_min":86,"x_max":985,"o":"m 167 0 q 105 23 126 0 q 86 88 83 46 l 150 894 q 177 957 153 935 q 242 979 201 979 l 514 979 q 767 925 661 979 q 928 768 872 871 q 985 525 985 665 q 924 242 985 360 q 745 63 863 125 q 463 0 628 0 l 167 0 m 449 146 q 806 526 806 146 q 726 755 806 676 q 493 833 647 833 l 324 833 l 269 146 l 449 146 m 482 -275 q 416 -251 442 -275 q 390 -186 390 -226 q 415 -124 390 -147 q 482 -100 440 -100 q 548 -124 522 -100 q 574 -186 574 -147 q 548 -251 574 -226 q 482 -275 522 -275 z "},"Ḏ":{"ha":1047,"x_min":86,"x_max":985,"o":"m 167 0 q 105 23 126 0 q 86 88 83 46 l 150 894 q 177 957 153 935 q 242 979 201 979 l 514 979 q 767 925 661 979 q 928 768 872 871 q 985 525 985 665 q 924 242 985 360 q 745 63 863 125 q 463 0 628 0 l 167 0 m 449 146 q 806 526 806 146 q 726 755 806 676 q 493 833 647 833 l 324 833 l 269 146 l 449 146 m 310 -242 q 267 -227 283 -242 q 251 -190 251 -212 q 270 -149 251 -164 q 318 -135 289 -135 l 654 -135 q 697 -149 681 -135 q 713 -185 713 -162 q 694 -226 713 -211 q 647 -242 676 -242 l 310 -242 z "},"ǅ":{"ha":1756,"x_min":86,"x_max":1721,"o":"m 167 0 q 105 23 126 0 q 86 88 83 46 l 150 894 q 177 957 153 935 q 242 979 201 979 l 514 979 q 767 925 661 979 q 928 768 872 871 q 985 525 985 665 q 924 242 985 360 q 745 63 863 125 q 463 0 628 0 l 167 0 m 449 146 q 806 526 806 146 q 726 755 806 676 q 493 833 647 833 l 324 833 l 269 146 l 449 146 m 1626 131 q 1681 115 1663 131 q 1700 71 1700 99 q 1618 0 1700 0 l 1149 0 q 1098 19 1117 0 q 1079 68 1079 39 q 1107 132 1079 104 l 1494 549 l 1194 549 q 1140 565 1158 549 q 1121 610 1121 581 q 1203 679 1121 679 l 1651 679 q 1702 659 1683 679 q 1721 611 1721 639 q 1693 546 1721 576 l 1307 131 l 1626 131 m 1536 1021 q 1594 1057 1556 1057 q 1634 1042 1617 1057 q 1651 1006 1651 1026 q 1638 968 1651 986 l 1525 806 q 1488 773 1510 785 q 1444 761 1467 761 q 1403 772 1422 761 q 1371 806 1383 783 l 1281 974 q 1272 1004 1272 990 q 1291 1042 1272 1026 q 1333 1057 1310 1057 q 1367 1047 1351 1057 q 1392 1017 1383 1038 l 1454 876 l 1536 1021 z "},"E":{"ha":818,"x_min":83,"x_max":822,"o":"m 321 838 l 300 568 l 683 568 q 742 550 721 568 q 763 501 763 532 q 675 428 763 428 l 288 428 l 265 142 l 678 142 q 736 123 715 142 q 757 74 757 104 q 734 19 757 38 q 668 0 711 0 l 165 0 q 103 22 124 0 q 86 85 83 44 l 150 896 q 176 957 153 935 q 240 979 200 979 l 744 979 q 802 961 782 979 q 822 913 822 943 q 735 838 822 838 l 321 838 z "},"É":{"ha":818,"x_min":86,"x_max":822,"o":"m 321 838 l 300 568 l 683 568 q 742 550 721 568 q 763 501 763 532 q 675 428 763 428 l 288 428 l 265 142 l 678 142 q 736 123 715 142 q 757 74 757 104 q 734 19 757 38 q 668 0 711 0 l 165 0 q 103 22 124 0 q 86 85 83 44 l 150 896 q 176 957 153 935 q 240 979 200 979 l 744 979 q 802 961 782 979 q 822 913 822 943 q 735 838 822 838 l 321 838 m 576 1074 q 536 1057 558 1057 q 506 1067 518 1057 q 494 1094 494 1078 q 506 1126 494 1111 l 596 1254 q 650 1286 618 1286 q 694 1269 675 1286 q 713 1228 713 1251 q 689 1181 713 1203 l 576 1074 z "},"Ĕ":{"ha":818,"x_min":86,"x_max":822,"o":"m 321 838 l 300 568 l 683 568 q 742 550 721 568 q 763 501 763 532 q 675 428 763 428 l 288 428 l 265 142 l 678 142 q 736 123 715 142 q 757 74 757 104 q 734 19 757 38 q 668 0 711 0 l 165 0 q 103 22 124 0 q 86 85 83 44 l 150 896 q 176 957 153 935 q 240 979 200 979 l 744 979 q 802 961 782 979 q 822 913 822 943 q 735 838 822 838 l 321 838 m 519 1076 q 389 1106 444 1076 q 304 1186 333 1135 q 294 1217 294 1201 q 310 1250 294 1238 q 346 1263 325 1263 q 392 1242 372 1263 q 524 1185 435 1185 q 661 1242 610 1185 q 711 1264 683 1264 q 742 1253 729 1264 q 754 1224 754 1242 q 742 1186 754 1207 q 649 1106 707 1135 q 519 1076 592 1076 z "},"Ě":{"ha":818,"x_min":86,"x_max":822,"o":"m 321 838 l 300 568 l 683 568 q 742 550 721 568 q 763 501 763 532 q 675 428 763 428 l 288 428 l 265 142 l 678 142 q 736 123 715 142 q 757 74 757 104 q 734 19 757 38 q 668 0 711 0 l 165 0 q 103 22 124 0 q 86 85 83 44 l 150 896 q 176 957 153 935 q 240 979 200 979 l 744 979 q 802 961 782 979 q 822 913 822 943 q 735 838 822 838 l 321 838 m 603 1254 q 658 1283 626 1283 q 694 1270 679 1283 q 708 1239 708 1257 q 690 1200 708 1219 l 582 1082 q 513 1053 554 1053 q 446 1082 469 1053 l 358 1199 q 346 1233 346 1215 q 363 1269 346 1254 q 401 1283 379 1283 q 453 1251 433 1283 l 515 1149 l 603 1254 z "},"Ȩ":{"ha":818,"x_min":83,"x_max":822,"o":"m 321 838 l 300 568 l 683 568 q 742 550 721 568 q 763 501 763 532 q 675 428 763 428 l 288 428 l 265 142 l 678 142 q 736 123 715 142 q 757 74 757 104 q 734 19 757 38 q 668 0 711 0 l 467 0 l 454 -57 q 471 -56 460 -56 q 551 -81 522 -56 q 581 -150 581 -106 q 532 -238 581 -206 q 403 -271 483 -271 q 301 -257 343 -271 q 282 -243 289 -253 q 275 -221 275 -233 q 288 -188 275 -201 q 321 -181 301 -175 q 397 -193 360 -193 q 469 -151 469 -193 q 426 -121 469 -121 q 394 -126 411 -121 q 371 -131 376 -131 q 350 -122 357 -131 q 346 -103 343 -114 l 367 0 l 165 0 q 103 22 124 0 q 86 85 83 44 l 150 896 q 176 957 153 935 q 240 979 200 979 l 744 979 q 802 961 782 979 q 822 913 822 943 q 735 838 822 838 l 321 838 z "},"Ḝ":{"ha":818,"x_min":83,"x_max":822,"o":"m 519 1076 q 389 1106 444 1076 q 304 1186 333 1135 q 294 1217 294 1201 q 310 1250 294 1238 q 346 1263 325 1263 q 392 1242 372 1263 q 524 1185 435 1185 q 661 1242 610 1185 q 711 1264 683 1264 q 742 1253 729 1264 q 754 1224 754 1242 q 742 1186 754 1207 q 649 1106 707 1135 q 519 1076 592 1076 m 321 838 l 300 568 l 683 568 q 742 550 721 568 q 763 501 763 532 q 675 428 763 428 l 288 428 l 265 142 l 678 142 q 736 123 715 142 q 757 74 757 104 q 734 19 757 38 q 668 0 711 0 l 467 0 l 454 -57 q 471 -56 460 -56 q 551 -81 522 -56 q 581 -150 581 -106 q 532 -238 581 -206 q 403 -271 483 -271 q 301 -257 343 -271 q 282 -243 289 -253 q 275 -221 275 -233 q 288 -188 275 -201 q 321 -181 301 -175 q 397 -193 360 -193 q 469 -151 469 -193 q 426 -121 469 -121 q 394 -126 411 -121 q 371 -131 376 -131 q 350 -122 357 -131 q 346 -103 343 -114 l 367 0 l 165 0 q 103 22 124 0 q 86 85 83 44 l 150 896 q 176 957 153 935 q 240 979 200 979 l 744 979 q 802 961 782 979 q 822 913 822 943 q 735 838 822 838 l 321 838 z "},"Ê":{"ha":818,"x_min":86,"x_max":822,"o":"m 321 838 l 300 568 l 683 568 q 742 550 721 568 q 763 501 763 532 q 675 428 763 428 l 288 428 l 265 142 l 678 142 q 736 123 715 142 q 757 74 757 104 q 734 19 757 38 q 668 0 711 0 l 165 0 q 103 22 124 0 q 86 85 83 44 l 150 896 q 176 957 153 935 q 240 979 200 979 l 744 979 q 802 961 782 979 q 822 913 822 943 q 735 838 822 838 l 321 838 m 439 1085 q 383 1056 415 1056 q 348 1069 363 1056 q 333 1100 333 1082 q 351 1139 333 1119 l 460 1257 q 532 1285 486 1285 q 596 1257 576 1285 l 685 1140 q 697 1107 697 1124 q 681 1072 697 1086 q 642 1057 664 1057 q 589 1089 608 1057 l 526 1190 l 439 1085 z "},"Ế":{"ha":818,"x_min":86,"x_max":876,"o":"m 321 838 l 300 568 l 683 568 q 742 550 721 568 q 763 501 763 532 q 675 428 763 428 l 288 428 l 265 142 l 678 142 q 736 123 715 142 q 757 74 757 104 q 734 19 757 38 q 668 0 711 0 l 165 0 q 103 22 124 0 q 86 85 83 44 l 150 896 q 176 957 153 935 q 240 979 200 979 l 744 979 q 802 961 782 979 q 822 913 822 943 q 735 838 822 838 l 321 838 m 736 1214 q 706 1201 721 1201 q 678 1213 690 1201 q 667 1238 667 1224 q 676 1263 667 1251 l 767 1388 q 817 1417 788 1417 q 858 1399 840 1417 q 876 1360 876 1382 q 853 1315 876 1335 l 736 1214 m 432 1074 q 392 1054 414 1054 q 358 1069 372 1054 q 343 1103 343 1083 q 363 1143 343 1125 l 463 1243 q 533 1272 496 1272 q 594 1243 569 1272 l 682 1136 q 696 1103 696 1121 q 679 1069 696 1083 q 642 1054 663 1054 q 597 1078 615 1054 l 526 1175 l 432 1074 z "},"Ệ":{"ha":818,"x_min":86,"x_max":822,"o":"m 321 838 l 300 568 l 683 568 q 742 550 721 568 q 763 501 763 532 q 675 428 763 428 l 288 428 l 265 142 l 678 142 q 736 123 715 142 q 757 74 757 104 q 734 19 757 38 q 668 0 711 0 l 165 0 q 103 22 124 0 q 86 85 83 44 l 150 896 q 176 957 153 935 q 240 979 200 979 l 744 979 q 802 961 782 979 q 822 913 822 943 q 735 838 822 838 l 321 838 m 414 -275 q 348 -251 374 -275 q 322 -186 322 -226 q 347 -124 322 -147 q 414 -100 372 -100 q 480 -124 454 -100 q 506 -186 506 -147 q 480 -251 506 -226 q 414 -275 454 -275 m 439 1085 q 383 1056 415 1056 q 348 1069 363 1056 q 333 1100 333 1082 q 351 1139 333 1119 l 460 1257 q 532 1285 486 1285 q 596 1257 576 1285 l 685 1140 q 697 1107 697 1124 q 681 1072 697 1086 q 642 1057 664 1057 q 589 1089 608 1057 l 526 1190 l 439 1085 z "},"Ề":{"ha":818,"x_min":86,"x_max":822,"o":"m 321 838 l 300 568 l 683 568 q 742 550 721 568 q 763 501 763 532 q 675 428 763 428 l 288 428 l 265 142 l 678 142 q 736 123 715 142 q 757 74 757 104 q 734 19 757 38 q 668 0 711 0 l 165 0 q 103 22 124 0 q 86 85 83 44 l 150 896 q 176 957 153 935 q 240 979 200 979 l 744 979 q 802 961 782 979 q 822 913 822 943 q 735 838 822 838 l 321 838 m 750 1222 q 718 1206 736 1206 q 693 1215 704 1206 q 682 1239 682 1225 q 686 1254 682 1246 l 715 1374 q 763 1410 729 1410 q 799 1395 783 1410 q 815 1360 815 1381 q 806 1329 815 1343 l 750 1222 m 432 1074 q 392 1054 414 1054 q 358 1069 372 1054 q 343 1103 343 1083 q 363 1143 343 1125 l 463 1243 q 533 1272 496 1272 q 594 1243 569 1272 l 682 1136 q 696 1103 696 1121 q 679 1069 696 1083 q 642 1054 663 1054 q 597 1078 615 1054 l 526 1175 l 432 1074 z "},"Ể":{"ha":818,"x_min":86,"x_max":864,"o":"m 321 838 l 300 568 l 683 568 q 742 550 721 568 q 763 501 763 532 q 675 428 763 428 l 288 428 l 265 142 l 678 142 q 736 123 715 142 q 757 74 757 104 q 734 19 757 38 q 668 0 711 0 l 165 0 q 103 22 124 0 q 86 85 83 44 l 150 896 q 176 957 153 935 q 240 979 200 979 l 744 979 q 802 961 782 979 q 822 913 822 943 q 735 838 822 838 l 321 838 m 744 1226 q 727 1209 740 1215 q 699 1203 714 1203 q 667 1211 681 1203 q 654 1235 654 1219 q 672 1276 654 1261 q 719 1301 690 1290 q 741 1311 732 1306 q 750 1322 750 1317 q 706 1339 750 1339 q 664 1335 685 1339 q 631 1332 642 1332 q 601 1340 613 1331 q 590 1363 590 1349 q 618 1396 590 1386 q 726 1413 661 1413 q 827 1391 790 1413 q 864 1335 864 1369 q 846 1291 864 1306 q 794 1263 828 1276 q 760 1246 772 1254 q 744 1226 749 1238 m 432 1074 q 392 1054 414 1054 q 358 1069 372 1054 q 343 1103 343 1083 q 363 1143 343 1125 l 463 1243 q 533 1272 496 1272 q 594 1243 569 1272 l 682 1136 q 696 1103 696 1121 q 679 1069 696 1083 q 642 1054 663 1054 q 597 1078 615 1054 l 526 1175 l 432 1074 z "},"Ễ":{"ha":818,"x_min":86,"x_max":822,"o":"m 321 838 l 300 568 l 683 568 q 742 550 721 568 q 763 501 763 532 q 675 428 763 428 l 288 428 l 265 142 l 678 142 q 736 123 715 142 q 757 74 757 104 q 734 19 757 38 q 668 0 711 0 l 165 0 q 103 22 124 0 q 86 85 83 44 l 150 896 q 176 957 153 935 q 240 979 200 979 l 744 979 q 802 961 782 979 q 822 913 822 943 q 735 838 822 838 l 321 838 m 338 1282 q 303 1321 303 1282 q 322 1365 303 1340 q 372 1406 340 1389 q 440 1424 404 1424 q 556 1396 481 1424 q 601 1381 579 1388 q 639 1375 624 1375 q 669 1382 657 1375 q 693 1401 681 1389 q 713 1418 704 1413 q 733 1424 721 1424 q 761 1413 751 1424 q 771 1385 771 1403 q 751 1340 771 1365 q 700 1298 732 1315 q 632 1281 668 1281 q 581 1288 607 1281 q 518 1308 554 1294 q 472 1324 494 1317 q 433 1331 449 1331 q 403 1324 415 1331 q 379 1304 392 1317 q 358 1287 365 1292 q 338 1282 350 1282 m 432 1074 q 392 1054 414 1054 q 358 1069 372 1054 q 343 1103 343 1083 q 363 1143 343 1125 l 463 1243 q 533 1272 496 1272 q 594 1243 569 1272 l 682 1136 q 696 1103 696 1121 q 679 1069 696 1083 q 642 1054 663 1054 q 597 1078 615 1054 l 526 1175 l 432 1074 z "},"Ȅ":{"ha":818,"x_min":86,"x_max":822,"o":"m 321 838 l 300 568 l 683 568 q 742 550 721 568 q 763 501 763 532 q 675 428 763 428 l 288 428 l 265 142 l 678 142 q 736 123 715 142 q 757 74 757 104 q 734 19 757 38 q 668 0 711 0 l 165 0 q 103 22 124 0 q 86 85 83 44 l 150 896 q 176 957 153 935 q 240 979 200 979 l 744 979 q 802 961 782 979 q 822 913 822 943 q 735 838 822 838 l 321 838 m 299 1203 q 289 1233 289 1218 q 305 1269 289 1254 q 342 1285 321 1285 q 392 1246 376 1285 l 443 1113 q 446 1096 446 1107 q 435 1068 446 1079 q 408 1057 424 1057 q 372 1079 386 1057 l 299 1203 m 481 1203 q 471 1233 471 1218 q 488 1269 471 1254 q 525 1285 504 1285 q 575 1246 560 1285 l 626 1113 q 629 1096 629 1107 q 618 1068 629 1079 q 592 1057 607 1057 q 556 1079 569 1057 l 481 1203 z "},"Ë":{"ha":818,"x_min":86,"x_max":822,"o":"m 321 838 l 300 568 l 683 568 q 742 550 721 568 q 763 501 763 532 q 675 428 763 428 l 288 428 l 265 142 l 678 142 q 736 123 715 142 q 757 74 757 104 q 734 19 757 38 q 668 0 711 0 l 165 0 q 103 22 124 0 q 86 85 83 44 l 150 896 q 176 957 153 935 q 240 979 200 979 l 744 979 q 802 961 782 979 q 822 913 822 943 q 735 838 822 838 l 321 838 m 394 1083 q 329 1108 354 1083 q 304 1171 304 1132 q 329 1233 304 1210 q 394 1257 354 1257 q 460 1233 435 1257 q 486 1171 486 1210 q 460 1108 486 1132 q 394 1083 435 1083 m 650 1083 q 585 1108 610 1083 q 560 1171 560 1132 q 585 1233 560 1210 q 650 1257 610 1257 q 715 1233 689 1257 q 740 1171 740 1210 q 715 1108 740 1132 q 650 1083 690 1083 z "},"Ė":{"ha":818,"x_min":86,"x_max":822,"o":"m 321 838 l 300 568 l 683 568 q 742 550 721 568 q 763 501 763 532 q 675 428 763 428 l 288 428 l 265 142 l 678 142 q 736 123 715 142 q 757 74 757 104 q 734 19 757 38 q 668 0 711 0 l 165 0 q 103 22 124 0 q 86 85 83 44 l 150 896 q 176 957 153 935 q 240 979 200 979 l 744 979 q 802 961 782 979 q 822 913 822 943 q 735 838 822 838 l 321 838 m 522 1078 q 447 1103 475 1078 q 419 1171 419 1129 q 447 1238 419 1213 q 522 1263 475 1263 q 597 1238 568 1263 q 625 1171 625 1213 q 597 1103 625 1129 q 522 1078 569 1078 z "},"Ẹ":{"ha":818,"x_min":86,"x_max":822,"o":"m 321 838 l 300 568 l 683 568 q 742 550 721 568 q 763 501 763 532 q 675 428 763 428 l 288 428 l 265 142 l 678 142 q 736 123 715 142 q 757 74 757 104 q 734 19 757 38 q 668 0 711 0 l 165 0 q 103 22 124 0 q 86 85 83 44 l 150 896 q 176 957 153 935 q 240 979 200 979 l 744 979 q 802 961 782 979 q 822 913 822 943 q 735 838 822 838 l 321 838 m 414 -275 q 348 -251 374 -275 q 322 -186 322 -226 q 347 -124 322 -147 q 414 -100 372 -100 q 480 -124 454 -100 q 506 -186 506 -147 q 480 -251 506 -226 q 414 -275 454 -275 z "},"È":{"ha":818,"x_min":86,"x_max":822,"o":"m 321 838 l 300 568 l 683 568 q 742 550 721 568 q 763 501 763 532 q 675 428 763 428 l 288 428 l 265 142 l 678 142 q 736 123 715 142 q 757 74 757 104 q 734 19 757 38 q 668 0 711 0 l 165 0 q 103 22 124 0 q 86 85 83 44 l 150 896 q 176 957 153 935 q 240 979 200 979 l 744 979 q 802 961 782 979 q 822 913 822 943 q 735 838 822 838 l 321 838 m 353 1189 q 336 1229 336 1207 q 355 1269 336 1253 q 399 1286 374 1286 q 453 1253 433 1286 l 531 1119 q 538 1096 538 1106 q 524 1067 538 1078 q 492 1056 511 1056 q 450 1075 468 1056 l 353 1189 z "},"Ẻ":{"ha":818,"x_min":86,"x_max":822,"o":"m 321 838 l 300 568 l 683 568 q 742 550 721 568 q 763 501 763 532 q 675 428 763 428 l 288 428 l 265 142 l 678 142 q 736 123 715 142 q 757 74 757 104 q 734 19 757 38 q 668 0 711 0 l 165 0 q 103 22 124 0 q 86 85 83 44 l 150 896 q 176 957 153 935 q 240 979 200 979 l 744 979 q 802 961 782 979 q 822 913 822 943 q 735 838 822 838 l 321 838 m 563 1083 q 545 1063 558 1071 q 517 1056 532 1056 q 484 1065 497 1056 q 471 1090 471 1075 q 487 1131 471 1117 q 532 1157 503 1144 q 560 1171 551 1165 q 568 1186 568 1176 q 524 1206 568 1206 q 450 1196 492 1206 q 421 1202 432 1192 q 410 1228 410 1213 q 438 1265 410 1256 q 543 1282 481 1282 q 645 1259 608 1282 q 682 1200 682 1236 q 665 1155 682 1171 q 614 1124 647 1139 q 578 1104 590 1113 q 563 1083 567 1096 z "},"Ȇ":{"ha":818,"x_min":86,"x_max":822,"o":"m 321 838 l 300 568 l 683 568 q 742 550 721 568 q 763 501 763 532 q 675 428 763 428 l 288 428 l 265 142 l 678 142 q 736 123 715 142 q 757 74 757 104 q 734 19 757 38 q 668 0 711 0 l 165 0 q 103 22 124 0 q 86 85 83 44 l 150 896 q 176 957 153 935 q 240 979 200 979 l 744 979 q 802 961 782 979 q 822 913 822 943 q 735 838 822 838 l 321 838 m 522 1264 q 653 1235 597 1264 q 738 1154 708 1207 q 747 1122 747 1139 q 733 1090 747 1103 q 699 1078 719 1078 q 651 1100 672 1078 q 518 1157 606 1157 q 381 1100 433 1157 q 331 1078 358 1078 q 300 1089 313 1078 q 288 1118 288 1100 q 300 1154 288 1133 q 392 1235 335 1206 q 522 1264 450 1264 z "},"Ē":{"ha":818,"x_min":86,"x_max":822,"o":"m 321 838 l 300 568 l 683 568 q 742 550 721 568 q 763 501 763 532 q 675 428 763 428 l 288 428 l 265 142 l 678 142 q 736 123 715 142 q 757 74 757 104 q 734 19 757 38 q 668 0 711 0 l 165 0 q 103 22 124 0 q 86 85 83 44 l 150 896 q 176 957 153 935 q 240 979 200 979 l 744 979 q 802 961 782 979 q 822 913 822 943 q 735 838 822 838 l 321 838 m 350 1114 q 308 1128 324 1114 q 292 1167 292 1143 q 310 1211 292 1196 q 358 1226 329 1226 l 694 1226 q 738 1212 722 1226 q 753 1171 753 1197 q 734 1128 753 1143 q 686 1114 715 1114 l 350 1114 z "},"Ḗ":{"ha":818,"x_min":86,"x_max":822,"o":"m 321 838 l 300 568 l 683 568 q 742 550 721 568 q 763 501 763 532 q 675 428 763 428 l 288 428 l 265 142 l 678 142 q 736 123 715 142 q 757 74 757 104 q 734 19 757 38 q 668 0 711 0 l 165 0 q 103 22 124 0 q 86 85 83 44 l 150 896 q 176 957 153 935 q 240 979 200 979 l 744 979 q 802 961 782 979 q 822 913 822 943 q 735 838 822 838 l 321 838 m 350 1114 q 308 1128 324 1114 q 292 1167 292 1143 q 310 1211 292 1196 q 358 1226 329 1226 l 694 1226 q 738 1212 722 1226 q 753 1171 753 1197 q 734 1128 753 1143 q 686 1114 715 1114 l 350 1114 m 594 1296 q 554 1279 576 1279 q 524 1290 536 1279 q 513 1317 513 1300 q 524 1349 513 1333 l 614 1476 q 668 1508 636 1508 q 712 1491 693 1508 q 731 1450 731 1474 q 707 1403 731 1425 l 594 1296 z "},"Ḕ":{"ha":818,"x_min":86,"x_max":822,"o":"m 321 838 l 300 568 l 683 568 q 742 550 721 568 q 763 501 763 532 q 675 428 763 428 l 288 428 l 265 142 l 678 142 q 736 123 715 142 q 757 74 757 104 q 734 19 757 38 q 668 0 711 0 l 165 0 q 103 22 124 0 q 86 85 83 44 l 150 896 q 176 957 153 935 q 240 979 200 979 l 744 979 q 802 961 782 979 q 822 913 822 943 q 735 838 822 838 l 321 838 m 350 1114 q 308 1128 324 1114 q 292 1167 292 1143 q 310 1211 292 1196 q 358 1226 329 1226 l 694 1226 q 738 1212 722 1226 q 753 1171 753 1197 q 734 1128 753 1143 q 686 1114 715 1114 l 350 1114 m 371 1411 q 354 1451 354 1429 q 373 1492 354 1475 q 417 1508 392 1508 q 471 1475 451 1508 l 549 1342 q 556 1318 556 1328 q 542 1289 556 1300 q 510 1278 529 1278 q 468 1297 486 1278 l 371 1411 z "},"Ę":{"ha":818,"x_min":83,"x_max":822,"o":"m 321 838 l 300 568 l 683 568 q 742 550 721 568 q 763 501 763 532 q 675 428 763 428 l 288 428 l 265 142 l 678 142 q 736 123 715 142 q 757 74 757 104 q 740 24 757 42 q 689 0 724 7 q 617 -34 643 -6 q 592 -101 592 -62 q 612 -156 592 -137 q 665 -175 632 -175 q 732 -162 694 -175 q 746 -160 743 -160 q 768 -171 760 -160 q 776 -197 776 -182 q 769 -223 776 -211 q 750 -242 763 -235 q 639 -271 700 -271 q 518 -231 564 -271 q 472 -128 472 -192 q 533 0 472 -50 l 165 0 q 103 22 124 0 q 86 85 83 44 l 150 896 q 176 957 153 935 q 240 979 200 979 l 744 979 q 802 961 782 979 q 822 913 822 943 q 735 838 822 838 l 321 838 z "},"Ẽ":{"ha":818,"x_min":86,"x_max":822,"o":"m 321 838 l 300 568 l 683 568 q 742 550 721 568 q 763 501 763 532 q 675 428 763 428 l 288 428 l 265 142 l 678 142 q 736 123 715 142 q 757 74 757 104 q 734 19 757 38 q 668 0 711 0 l 165 0 q 103 22 124 0 q 86 85 83 44 l 150 896 q 176 957 153 935 q 240 979 200 979 l 744 979 q 802 961 782 979 q 822 913 822 943 q 735 838 822 838 l 321 838 m 617 1082 q 569 1090 593 1082 q 510 1115 546 1099 q 461 1137 481 1129 q 424 1144 442 1144 q 390 1136 403 1144 q 363 1111 376 1128 q 344 1093 351 1099 q 324 1088 336 1088 q 289 1131 289 1088 q 306 1190 289 1160 q 355 1241 324 1221 q 428 1261 386 1261 q 476 1252 451 1261 q 535 1226 501 1243 q 583 1205 564 1213 q 621 1197 603 1197 q 655 1206 642 1197 q 682 1231 668 1214 q 701 1249 693 1243 q 721 1254 708 1254 q 756 1213 756 1254 q 738 1153 756 1183 q 690 1102 721 1122 q 617 1082 658 1082 z "},"F":{"ha":786,"x_min":83,"x_max":808,"o":"m 322 836 l 301 569 l 671 569 q 749 503 749 569 q 726 445 749 464 q 660 426 704 426 l 290 426 l 263 81 q 234 16 260 40 q 168 -8 208 -8 q 106 17 129 -8 q 86 82 83 42 l 150 896 q 177 958 153 936 q 242 979 201 979 l 731 979 q 788 962 768 979 q 808 911 808 944 q 721 836 808 836 l 322 836 z "},"G":{"ha":1018,"x_min":86,"x_max":953,"o":"m 863 529 q 915 510 896 529 q 932 457 933 490 l 910 161 q 885 71 904 97 q 814 29 867 44 q 684 -1 757 10 q 547 -12 611 -12 q 299 43 403 -12 q 141 203 196 99 q 86 450 86 307 q 149 735 86 614 q 326 924 211 857 q 594 990 440 990 q 776 965 694 990 q 910 901 858 940 q 953 828 953 872 q 933 776 953 799 q 885 754 914 754 q 839 769 863 754 q 731 827 788 808 q 596 846 675 846 q 354 740 442 846 q 267 451 267 635 q 342 213 267 296 q 568 129 417 129 q 749 157 657 129 l 768 401 l 618 401 q 565 417 583 401 q 546 464 546 433 q 567 512 546 494 q 621 529 588 529 l 863 529 z "},"Ğ":{"ha":1018,"x_min":86,"x_max":953,"o":"m 863 529 q 915 510 896 529 q 932 457 933 490 l 910 161 q 885 71 904 97 q 814 29 867 44 q 684 -1 757 10 q 547 -12 611 -12 q 299 43 403 -12 q 141 203 196 99 q 86 450 86 307 q 149 735 86 614 q 326 924 211 857 q 594 990 440 990 q 776 965 694 990 q 910 901 858 940 q 953 828 953 872 q 933 776 953 799 q 885 754 914 754 q 839 769 863 754 q 731 827 788 808 q 596 846 675 846 q 354 740 442 846 q 267 451 267 635 q 342 213 267 296 q 568 129 417 129 q 749 157 657 129 l 768 401 l 618 401 q 565 417 583 401 q 546 464 546 433 q 567 512 546 494 q 621 529 588 529 l 863 529 m 621 1076 q 490 1106 546 1076 q 406 1186 435 1135 q 396 1217 396 1201 q 411 1250 396 1238 q 447 1263 426 1263 q 493 1242 474 1263 q 625 1185 536 1185 q 763 1242 711 1185 q 813 1264 785 1264 q 843 1253 831 1264 q 856 1224 856 1242 q 843 1186 856 1207 q 751 1106 808 1135 q 621 1076 693 1076 z "},"Ǧ":{"ha":1018,"x_min":86,"x_max":953,"o":"m 863 529 q 915 510 896 529 q 932 457 933 490 l 910 161 q 885 71 904 97 q 814 29 867 44 q 684 -1 757 10 q 547 -12 611 -12 q 299 43 403 -12 q 141 203 196 99 q 86 450 86 307 q 149 735 86 614 q 326 924 211 857 q 594 990 440 990 q 776 965 694 990 q 910 901 858 940 q 953 828 953 872 q 933 776 953 799 q 885 754 914 754 q 839 769 863 754 q 731 827 788 808 q 596 846 675 846 q 354 740 442 846 q 267 451 267 635 q 342 213 267 296 q 568 129 417 129 q 749 157 657 129 l 768 401 l 618 401 q 565 417 583 401 q 546 464 546 433 q 567 512 546 494 q 621 529 588 529 l 863 529 m 704 1254 q 760 1283 728 1283 q 795 1270 781 1283 q 810 1239 810 1257 q 792 1200 810 1219 l 683 1082 q 614 1053 656 1053 q 547 1082 571 1053 l 460 1199 q 447 1233 447 1215 q 464 1269 447 1254 q 503 1283 481 1283 q 554 1251 535 1283 l 617 1149 l 704 1254 z "},"Ĝ":{"ha":1018,"x_min":86,"x_max":953,"o":"m 863 529 q 915 510 896 529 q 932 457 933 490 l 910 161 q 885 71 904 97 q 814 29 867 44 q 684 -1 757 10 q 547 -12 611 -12 q 299 43 403 -12 q 141 203 196 99 q 86 450 86 307 q 149 735 86 614 q 326 924 211 857 q 594 990 440 990 q 776 965 694 990 q 910 901 858 940 q 953 828 953 872 q 933 776 953 799 q 885 754 914 754 q 839 769 863 754 q 731 827 788 808 q 596 846 675 846 q 354 740 442 846 q 267 451 267 635 q 342 213 267 296 q 568 129 417 129 q 749 157 657 129 l 768 401 l 618 401 q 565 417 583 401 q 546 464 546 433 q 567 512 546 494 q 621 529 588 529 l 863 529 m 540 1085 q 485 1056 517 1056 q 449 1069 464 1056 q 435 1100 435 1082 q 453 1139 435 1119 l 561 1257 q 633 1285 588 1285 q 697 1257 678 1285 l 786 1140 q 799 1107 799 1124 q 782 1072 799 1086 q 743 1057 765 1057 q 690 1089 710 1057 l 628 1190 l 540 1085 z "},"Ģ":{"ha":1018,"x_min":86,"x_max":953,"o":"m 863 529 q 915 510 896 529 q 932 457 933 490 l 910 161 q 885 71 904 97 q 814 29 867 44 q 684 -1 757 10 q 547 -12 611 -12 q 299 43 403 -12 q 141 203 196 99 q 86 450 86 307 q 149 735 86 614 q 326 924 211 857 q 594 990 440 990 q 776 965 694 990 q 910 901 858 940 q 953 828 953 872 q 933 776 953 799 q 885 754 914 754 q 839 769 863 754 q 731 827 788 808 q 596 846 675 846 q 354 740 442 846 q 267 451 267 635 q 342 213 267 296 q 568 129 417 129 q 749 157 657 129 l 768 401 l 618 401 q 565 417 583 401 q 546 464 546 433 q 567 512 546 494 q 621 529 588 529 l 863 529 m 525 -87 q 599 -115 572 -87 q 625 -186 625 -142 q 607 -274 625 -232 q 558 -349 589 -315 q 511 -371 538 -371 q 483 -362 494 -371 q 471 -339 471 -353 q 482 -311 471 -324 q 521 -244 510 -279 l 515 -244 q 459 -226 482 -244 q 436 -172 436 -207 q 463 -112 436 -136 q 525 -87 489 -87 z "},"Ġ":{"ha":1018,"x_min":86,"x_max":953,"o":"m 863 529 q 915 510 896 529 q 932 457 933 490 l 910 161 q 885 71 904 97 q 814 29 867 44 q 684 -1 757 10 q 547 -12 611 -12 q 299 43 403 -12 q 141 203 196 99 q 86 450 86 307 q 149 735 86 614 q 326 924 211 857 q 594 990 440 990 q 776 965 694 990 q 910 901 858 940 q 953 828 953 872 q 933 776 953 799 q 885 754 914 754 q 839 769 863 754 q 731 827 788 808 q 596 846 675 846 q 354 740 442 846 q 267 451 267 635 q 342 213 267 296 q 568 129 417 129 q 749 157 657 129 l 768 401 l 618 401 q 565 417 583 401 q 546 464 546 433 q 567 512 546 494 q 621 529 588 529 l 863 529 m 624 1078 q 549 1103 576 1078 q 521 1171 521 1129 q 549 1238 521 1213 q 624 1263 576 1263 q 698 1238 669 1263 q 726 1171 726 1213 q 699 1103 726 1129 q 624 1078 671 1078 z "},"Ḡ":{"ha":1018,"x_min":86,"x_max":953,"o":"m 863 529 q 915 510 896 529 q 932 457 933 490 l 910 161 q 885 71 904 97 q 814 29 867 44 q 684 -1 757 10 q 547 -12 611 -12 q 299 43 403 -12 q 141 203 196 99 q 86 450 86 307 q 149 735 86 614 q 326 924 211 857 q 594 990 440 990 q 776 965 694 990 q 910 901 858 940 q 953 828 953 872 q 933 776 953 799 q 885 754 914 754 q 839 769 863 754 q 731 827 788 808 q 596 846 675 846 q 354 740 442 846 q 267 451 267 635 q 342 213 267 296 q 568 129 417 129 q 749 157 657 129 l 768 401 l 618 401 q 565 417 583 401 q 546 464 546 433 q 567 512 546 494 q 621 529 588 529 l 863 529 m 451 1114 q 409 1128 425 1114 q 393 1167 393 1143 q 412 1211 393 1196 q 460 1226 431 1226 l 796 1226 q 839 1212 824 1226 q 854 1171 854 1197 q 835 1128 854 1143 q 788 1114 817 1114 l 451 1114 z "},"H":{"ha":1064,"x_min":83,"x_max":1004,"o":"m 919 986 q 982 962 960 986 q 1001 897 1004 938 l 938 81 q 909 16 935 40 q 843 -8 883 -8 q 781 16 803 -8 q 761 82 758 40 l 789 425 l 289 425 l 261 81 q 233 16 258 40 q 168 -8 207 -8 q 106 16 128 -8 q 86 82 83 40 l 151 899 q 179 963 154 939 q 244 986 204 986 q 307 962 285 986 q 326 897 329 938 l 300 569 l 800 569 l 826 899 q 854 963 829 939 q 919 986 879 986 z "},"Ħ":{"ha":1131,"x_min":35,"x_max":1165,"o":"m 1090 843 q 1145 825 1125 843 q 1165 779 1165 807 q 1143 728 1165 747 q 1081 710 1121 710 l 1019 710 l 971 81 q 942 16 968 40 q 876 -8 917 -8 q 814 16 836 -8 q 794 82 792 40 l 822 425 l 322 425 l 294 81 q 266 16 292 40 q 201 -8 240 -8 q 139 16 161 -8 q 119 82 117 40 l 169 710 l 110 710 q 55 728 75 710 q 35 774 35 746 q 56 824 35 806 q 118 843 78 843 l 181 843 l 185 899 q 213 963 188 939 q 278 986 238 986 q 340 962 318 986 q 360 897 363 938 l 356 843 l 856 843 l 860 899 q 888 963 863 939 q 953 986 913 986 q 1015 962 993 986 q 1035 897 1038 938 l 1031 843 l 1090 843 m 844 710 l 344 710 l 333 569 l 833 569 l 844 710 z "},"Ḫ":{"ha":1064,"x_min":86,"x_max":1001,"o":"m 919 986 q 982 962 960 986 q 1001 897 1004 938 l 938 81 q 909 16 935 40 q 843 -8 883 -8 q 781 16 803 -8 q 761 82 758 40 l 789 425 l 289 425 l 261 81 q 233 16 258 40 q 168 -8 207 -8 q 106 16 128 -8 q 86 82 83 40 l 151 899 q 179 963 154 939 q 244 986 204 986 q 307 962 285 986 q 326 897 329 938 l 300 569 l 800 569 l 826 899 q 854 963 829 939 q 919 986 879 986 m 486 -307 q 349 -267 407 -307 q 263 -157 290 -226 q 258 -133 258 -144 q 274 -97 258 -111 q 311 -82 290 -82 q 336 -90 324 -82 q 357 -112 349 -97 q 413 -172 376 -150 q 493 -194 449 -194 q 635 -112 582 -194 q 685 -82 656 -82 q 718 -95 704 -82 q 732 -129 732 -108 q 725 -157 732 -140 q 631 -267 694 -226 q 486 -307 567 -307 z "},"Ĥ":{"ha":1064,"x_min":86,"x_max":1001,"o":"m 919 986 q 982 962 960 986 q 1001 897 1004 938 l 938 81 q 909 16 935 40 q 843 -8 883 -8 q 781 16 803 -8 q 761 82 758 40 l 789 425 l 289 425 l 261 81 q 233 16 258 40 q 168 -8 207 -8 q 106 16 128 -8 q 86 82 83 40 l 151 899 q 179 963 154 939 q 244 986 204 986 q 307 962 285 986 q 326 897 329 938 l 300 569 l 800 569 l 826 899 q 854 963 829 939 q 919 986 879 986 m 515 1085 q 460 1056 492 1056 q 424 1069 439 1056 q 410 1100 410 1082 q 428 1139 410 1119 l 536 1257 q 608 1285 563 1285 q 672 1257 653 1285 l 761 1140 q 774 1107 774 1124 q 757 1072 774 1086 q 718 1057 740 1057 q 665 1089 685 1057 l 603 1190 l 515 1085 z "},"Ḥ":{"ha":1064,"x_min":86,"x_max":1001,"o":"m 919 986 q 982 962 960 986 q 1001 897 1004 938 l 938 81 q 909 16 935 40 q 843 -8 883 -8 q 781 16 803 -8 q 761 82 758 40 l 789 425 l 289 425 l 261 81 q 233 16 258 40 q 168 -8 207 -8 q 106 16 128 -8 q 86 82 83 40 l 151 899 q 179 963 154 939 q 244 986 204 986 q 307 962 285 986 q 326 897 329 938 l 300 569 l 800 569 l 826 899 q 854 963 829 939 q 919 986 879 986 m 490 -275 q 424 -251 450 -275 q 399 -186 399 -226 q 424 -124 399 -147 q 490 -100 449 -100 q 556 -124 531 -100 q 582 -186 582 -147 q 556 -251 582 -226 q 490 -275 531 -275 z "},"I":{"ha":390,"x_min":83,"x_max":332,"o":"m 169 -8 q 106 16 129 -8 q 86 82 83 40 l 151 899 q 180 963 154 939 q 246 986 206 986 q 309 962 286 986 q 329 897 332 938 l 265 81 q 235 16 261 40 q 169 -8 210 -8 z "},"Í":{"ha":390,"x_min":86,"x_max":453,"o":"m 169 -8 q 106 16 129 -8 q 86 82 83 40 l 151 899 q 180 963 154 939 q 246 986 206 986 q 309 962 286 986 q 329 897 332 938 l 265 81 q 235 16 261 40 q 169 -8 210 -8 m 317 1074 q 276 1057 299 1057 q 247 1067 258 1057 q 235 1094 235 1078 q 246 1126 235 1111 l 336 1254 q 390 1286 358 1286 q 434 1269 415 1286 q 453 1228 453 1251 q 429 1181 453 1203 l 317 1074 z "},"Ĭ":{"ha":390,"x_min":35,"x_max":494,"o":"m 169 -8 q 106 16 129 -8 q 86 82 83 40 l 151 899 q 180 963 154 939 q 246 986 206 986 q 309 962 286 986 q 329 897 332 938 l 265 81 q 235 16 261 40 q 169 -8 210 -8 m 260 1076 q 129 1106 185 1076 q 44 1186 74 1135 q 35 1217 35 1201 q 50 1250 35 1238 q 86 1263 65 1263 q 132 1242 113 1263 q 264 1185 175 1185 q 401 1242 350 1185 q 451 1264 424 1264 q 482 1253 469 1264 q 494 1224 494 1242 q 482 1186 494 1207 q 390 1106 447 1135 q 260 1076 332 1076 z "},"Î":{"ha":390,"x_min":74,"x_max":438,"o":"m 169 -8 q 106 16 129 -8 q 86 82 83 40 l 151 899 q 180 963 154 939 q 246 986 206 986 q 309 962 286 986 q 329 897 332 938 l 265 81 q 235 16 261 40 q 169 -8 210 -8 m 179 1085 q 124 1056 156 1056 q 88 1069 103 1056 q 74 1100 74 1082 q 92 1139 74 1119 l 200 1257 q 272 1285 226 1285 q 336 1257 317 1285 l 425 1140 q 438 1107 438 1124 q 421 1072 438 1086 q 382 1057 404 1057 q 329 1089 349 1057 l 267 1190 l 179 1085 z "},"Ȉ":{"ha":390,"x_min":29,"x_max":369,"o":"m 169 -8 q 106 16 129 -8 q 86 82 83 40 l 151 899 q 180 963 154 939 q 246 986 206 986 q 309 962 286 986 q 329 897 332 938 l 265 81 q 235 16 261 40 q 169 -8 210 -8 m 39 1203 q 29 1233 29 1218 q 45 1269 29 1254 q 82 1285 61 1285 q 132 1246 117 1285 l 183 1113 q 186 1096 186 1107 q 175 1068 186 1079 q 149 1057 164 1057 q 113 1079 126 1057 l 39 1203 m 221 1203 q 211 1233 211 1218 q 228 1269 211 1254 q 265 1285 244 1285 q 315 1246 300 1285 l 367 1113 q 369 1096 369 1107 q 358 1068 369 1079 q 332 1057 347 1057 q 296 1079 310 1057 l 221 1203 z "},"Ï":{"ha":390,"x_min":44,"x_max":481,"o":"m 169 -8 q 106 16 129 -8 q 86 82 83 40 l 151 899 q 180 963 154 939 q 246 986 206 986 q 309 962 286 986 q 329 897 332 938 l 265 81 q 235 16 261 40 q 169 -8 210 -8 m 135 1083 q 69 1108 94 1083 q 44 1171 44 1132 q 69 1233 44 1210 q 135 1257 94 1257 q 201 1233 175 1257 q 226 1171 226 1210 q 201 1108 226 1132 q 135 1083 175 1083 m 390 1083 q 325 1108 350 1083 q 300 1171 300 1132 q 325 1233 300 1210 q 390 1257 350 1257 q 455 1233 429 1257 q 481 1171 481 1210 q 456 1108 481 1132 q 390 1083 431 1083 z "},"Ḯ":{"ha":390,"x_min":44,"x_max":481,"o":"m 169 -8 q 106 16 129 -8 q 86 82 83 40 l 151 899 q 180 963 154 939 q 246 986 206 986 q 309 962 286 986 q 329 897 332 938 l 265 81 q 235 16 261 40 q 169 -8 210 -8 m 135 1083 q 69 1108 94 1083 q 44 1171 44 1132 q 69 1233 44 1210 q 135 1257 94 1257 q 201 1233 175 1257 q 226 1171 226 1210 q 201 1108 226 1132 q 135 1083 175 1083 m 390 1083 q 325 1108 350 1083 q 300 1171 300 1132 q 325 1233 300 1210 q 390 1257 350 1257 q 455 1233 429 1257 q 481 1171 481 1210 q 456 1108 481 1132 q 390 1083 431 1083 m 335 1296 q 294 1279 317 1279 q 265 1290 276 1279 q 253 1317 253 1300 q 264 1349 253 1333 l 354 1476 q 408 1508 376 1508 q 452 1491 433 1508 q 471 1450 471 1474 q 447 1403 471 1425 l 335 1296 z "},"İ":{"ha":390,"x_min":86,"x_max":365,"o":"m 169 -8 q 106 16 129 -8 q 86 82 83 40 l 151 899 q 180 963 154 939 q 246 986 206 986 q 309 962 286 986 q 329 897 332 938 l 265 81 q 235 16 261 40 q 169 -8 210 -8 m 263 1078 q 188 1103 215 1078 q 160 1171 160 1129 q 188 1238 160 1213 q 263 1263 215 1263 q 337 1238 308 1263 q 365 1171 365 1213 q 338 1103 365 1129 q 263 1078 310 1078 z "},"Ị":{"ha":390,"x_min":63,"x_max":329,"o":"m 169 -8 q 106 16 129 -8 q 86 82 83 40 l 151 899 q 180 963 154 939 q 246 986 206 986 q 309 962 286 986 q 329 897 332 938 l 265 81 q 235 16 261 40 q 169 -8 210 -8 m 154 -275 q 88 -251 114 -275 q 63 -186 63 -226 q 88 -124 63 -147 q 154 -100 113 -100 q 220 -124 194 -100 q 246 -186 246 -147 q 220 -251 246 -226 q 154 -275 194 -275 z "},"Ì":{"ha":390,"x_min":76,"x_max":329,"o":"m 169 -8 q 106 16 129 -8 q 86 82 83 40 l 151 899 q 180 963 154 939 q 246 986 206 986 q 309 962 286 986 q 329 897 332 938 l 265 81 q 235 16 261 40 q 169 -8 210 -8 m 93 1189 q 76 1229 76 1207 q 95 1269 76 1253 q 139 1286 114 1286 q 193 1253 174 1286 l 271 1119 q 278 1096 278 1106 q 265 1067 278 1078 q 232 1056 251 1056 q 190 1075 208 1056 l 93 1189 z "},"Ỉ":{"ha":390,"x_min":86,"x_max":422,"o":"m 169 -8 q 106 16 129 -8 q 86 82 83 40 l 151 899 q 180 963 154 939 q 246 986 206 986 q 309 962 286 986 q 329 897 332 938 l 265 81 q 235 16 261 40 q 169 -8 210 -8 m 303 1083 q 285 1063 299 1071 q 257 1056 272 1056 q 224 1065 238 1056 q 211 1090 211 1075 q 227 1131 211 1117 q 272 1157 243 1144 q 300 1171 292 1165 q 308 1186 308 1176 q 264 1206 308 1206 q 190 1196 232 1206 q 161 1202 172 1192 q 150 1228 150 1213 q 178 1265 150 1256 q 283 1282 221 1282 q 385 1259 349 1282 q 422 1200 422 1236 q 405 1155 422 1171 q 354 1124 388 1139 q 319 1104 331 1113 q 303 1083 307 1096 z "},"Ȋ":{"ha":390,"x_min":28,"x_max":488,"o":"m 169 -8 q 106 16 129 -8 q 86 82 83 40 l 151 899 q 180 963 154 939 q 246 986 206 986 q 309 962 286 986 q 329 897 332 938 l 265 81 q 235 16 261 40 q 169 -8 210 -8 m 263 1264 q 393 1235 338 1264 q 478 1154 449 1207 q 488 1122 488 1139 q 474 1090 488 1103 q 439 1078 460 1078 q 392 1100 413 1078 q 258 1157 346 1157 q 121 1100 174 1157 q 71 1078 99 1078 q 40 1089 53 1078 q 28 1118 28 1100 q 40 1154 28 1133 q 133 1235 75 1206 q 263 1264 190 1264 z "},"Ī":{"ha":390,"x_min":32,"x_max":493,"o":"m 169 -8 q 106 16 129 -8 q 86 82 83 40 l 151 899 q 180 963 154 939 q 246 986 206 986 q 309 962 286 986 q 329 897 332 938 l 265 81 q 235 16 261 40 q 169 -8 210 -8 m 90 1114 q 48 1128 64 1114 q 32 1167 32 1143 q 51 1211 32 1196 q 99 1226 69 1226 l 435 1226 q 478 1212 463 1226 q 493 1171 493 1197 q 474 1128 493 1143 q 426 1114 456 1114 l 90 1114 z "},"Į":{"ha":390,"x_min":-4,"x_max":332,"o":"m 213 4 q 140 -36 165 -11 q 115 -101 115 -61 q 136 -156 115 -137 q 193 -175 157 -175 q 260 -162 226 -175 q 275 -160 271 -160 q 297 -169 289 -160 q 304 -194 304 -179 q 278 -242 304 -224 q 164 -271 231 -271 q 42 -231 88 -271 q -4 -126 -4 -192 q 96 31 -4 -19 q 86 82 83 50 l 151 899 q 180 963 154 939 q 246 986 206 986 q 309 962 286 986 q 329 897 332 938 l 265 81 q 248 31 263 51 q 213 4 233 11 z "},"Ĩ":{"ha":390,"x_min":29,"x_max":496,"o":"m 169 -8 q 106 16 129 -8 q 86 82 83 40 l 151 899 q 180 963 154 939 q 246 986 206 986 q 309 962 286 986 q 329 897 332 938 l 265 81 q 235 16 261 40 q 169 -8 210 -8 m 357 1082 q 310 1090 333 1082 q 250 1115 286 1099 q 201 1137 221 1129 q 164 1144 182 1144 q 130 1136 143 1144 q 103 1111 117 1128 q 84 1093 92 1099 q 64 1088 76 1088 q 29 1131 29 1088 q 47 1190 29 1160 q 95 1241 64 1221 q 168 1261 126 1261 q 217 1252 192 1261 q 275 1226 242 1243 q 324 1205 304 1213 q 361 1197 343 1197 q 395 1206 382 1197 q 422 1231 408 1214 q 441 1249 433 1243 q 461 1254 449 1254 q 496 1213 496 1254 q 478 1153 496 1183 q 430 1102 461 1122 q 357 1082 399 1082 z "},"J":{"ha":497,"x_min":-40,"x_max":439,"o":"m 58 -8 q -40 64 -40 -14 q 36 136 -40 129 l 81 139 q 169 176 138 142 q 207 276 201 211 l 257 899 q 286 963 260 939 q 353 986 313 986 q 417 963 394 986 q 436 899 439 939 l 388 276 q 306 74 378 146 q 103 -6 233 3 l 58 -8 z "},"Ĵ":{"ha":497,"x_min":-40,"x_max":543,"o":"m 58 -8 q -40 64 -40 -14 q 36 136 -40 129 l 81 139 q 169 176 138 142 q 207 276 201 211 l 257 899 q 286 963 260 939 q 353 986 313 986 q 417 963 394 986 q 436 899 439 939 l 388 276 q 306 74 378 146 q 103 -6 233 3 l 58 -8 m 285 1085 q 229 1056 261 1056 q 194 1069 208 1056 q 179 1100 179 1082 q 197 1139 179 1119 l 306 1257 q 378 1285 332 1285 q 442 1257 422 1285 l 531 1140 q 543 1107 543 1124 q 526 1072 543 1086 q 488 1057 510 1057 q 435 1089 454 1057 l 372 1190 l 285 1085 z "},"K":{"ha":917,"x_min":83,"x_max":885,"o":"m 753 960 q 813 986 781 986 q 863 964 842 986 q 885 911 885 942 q 854 846 885 875 l 472 501 l 831 121 q 847 76 847 103 q 822 19 847 44 q 764 -7 797 -7 q 704 24 733 -7 l 294 456 l 265 81 q 235 16 261 40 q 169 -8 210 -8 q 106 17 129 -8 q 86 82 83 42 l 151 899 q 180 963 154 939 q 246 986 206 986 q 309 962 286 986 q 329 897 332 938 l 301 542 l 753 960 z "},"Ķ":{"ha":917,"x_min":86,"x_max":885,"o":"m 753 960 q 813 986 781 986 q 863 964 842 986 q 885 911 885 942 q 854 846 885 875 l 472 501 l 831 121 q 847 76 847 103 q 822 19 847 44 q 764 -7 797 -7 q 704 24 733 -7 l 294 456 l 265 81 q 235 16 261 40 q 169 -8 210 -8 q 106 17 129 -8 q 86 82 83 42 l 151 899 q 180 963 154 939 q 246 986 206 986 q 309 962 286 986 q 329 897 332 938 l 301 542 l 753 960 m 419 -87 q 493 -115 467 -87 q 519 -186 519 -142 q 501 -274 519 -232 q 453 -349 483 -315 q 406 -371 432 -371 q 377 -362 389 -371 q 365 -339 365 -353 q 376 -311 365 -324 q 415 -244 404 -279 l 410 -244 q 353 -226 376 -244 q 331 -172 331 -207 q 357 -112 331 -136 q 419 -87 383 -87 z "},"L":{"ha":771,"x_min":83,"x_max":738,"o":"m 165 0 q 103 22 124 0 q 86 85 83 44 l 151 899 q 180 963 154 939 q 246 986 206 986 q 310 962 288 986 q 329 897 332 938 l 269 147 l 658 147 q 717 129 696 147 q 738 79 738 111 q 649 0 738 0 l 165 0 z "},"Ǉ":{"ha":1269,"x_min":83,"x_max":1211,"o":"m 165 0 q 103 22 124 0 q 86 85 83 44 l 151 899 q 180 963 154 939 q 246 986 206 986 q 310 962 288 986 q 329 897 332 938 l 269 147 l 617 147 q 675 129 654 147 q 696 79 696 111 q 607 0 696 0 l 165 0 m 829 -8 q 756 6 781 -11 q 732 60 732 24 q 807 136 732 131 l 853 139 q 942 176 910 142 q 979 276 974 211 l 1029 899 q 1058 962 1032 938 q 1125 986 1085 986 q 1189 963 1167 986 q 1208 899 1211 939 l 1160 276 q 1078 74 1150 146 q 875 -6 1006 3 l 829 -8 z "},"Ĺ":{"ha":771,"x_min":86,"x_max":738,"o":"m 165 0 q 103 22 124 0 q 86 85 83 44 l 151 899 q 180 963 154 939 q 246 986 206 986 q 310 962 288 986 q 329 897 332 938 l 269 147 l 658 147 q 717 129 696 147 q 738 79 738 111 q 649 0 738 0 l 165 0 m 315 1074 q 275 1057 297 1057 q 245 1067 257 1057 q 233 1094 233 1078 q 244 1126 233 1111 l 335 1254 q 389 1286 357 1286 q 433 1269 414 1286 q 451 1228 451 1251 q 428 1181 451 1203 l 315 1074 z "},"Ľ":{"ha":771,"x_min":86,"x_max":738,"o":"m 165 0 q 103 22 124 0 q 86 85 83 44 l 151 899 q 180 963 154 939 q 246 986 206 986 q 310 962 288 986 q 329 897 332 938 l 269 147 l 658 147 q 717 129 696 147 q 738 79 738 111 q 649 0 738 0 l 165 0 m 519 729 q 503 703 515 713 q 476 694 492 694 q 447 706 460 694 q 436 735 435 717 l 451 938 q 469 976 453 963 q 508 990 486 990 q 547 976 531 990 q 564 939 564 963 q 563 924 564 929 l 519 729 z "},"Ļ":{"ha":771,"x_min":86,"x_max":738,"o":"m 165 0 q 103 22 124 0 q 86 85 83 44 l 151 899 q 180 963 154 939 q 246 986 206 986 q 310 962 288 986 q 329 897 332 938 l 269 147 l 658 147 q 717 129 696 147 q 738 79 738 111 q 649 0 738 0 l 165 0 m 390 -87 q 464 -115 438 -87 q 490 -186 490 -142 q 472 -274 490 -232 q 424 -349 454 -315 q 376 -371 403 -371 q 348 -362 360 -371 q 336 -339 336 -353 q 347 -311 336 -324 q 386 -244 375 -279 l 381 -244 q 324 -226 347 -244 q 301 -172 301 -207 q 328 -112 301 -136 q 390 -87 354 -87 z "},"Ŀ":{"ha":771,"x_min":86,"x_max":738,"o":"m 165 0 q 103 22 124 0 q 86 85 83 44 l 151 899 q 180 963 154 939 q 246 986 206 986 q 310 962 288 986 q 329 897 332 938 l 269 147 l 658 147 q 717 129 696 147 q 738 79 738 111 q 649 0 738 0 l 165 0 m 535 399 q 460 424 488 399 q 432 492 432 449 q 460 558 432 533 q 535 583 488 583 q 609 558 581 583 q 638 492 638 533 q 610 424 638 449 q 535 399 582 399 z "},"Ḷ":{"ha":771,"x_min":86,"x_max":738,"o":"m 165 0 q 103 22 124 0 q 86 85 83 44 l 151 899 q 180 963 154 939 q 246 986 206 986 q 310 962 288 986 q 329 897 332 938 l 269 147 l 658 147 q 717 129 696 147 q 738 79 738 111 q 649 0 738 0 l 165 0 m 390 -275 q 324 -251 350 -275 q 299 -186 299 -226 q 324 -124 299 -147 q 390 -100 349 -100 q 456 -124 431 -100 q 482 -186 482 -147 q 456 -251 482 -226 q 390 -275 431 -275 z "},"ǈ":{"ha":1124,"x_min":86,"x_max":1094,"o":"m 165 0 q 103 22 124 0 q 86 85 83 44 l 151 899 q 180 963 154 939 q 246 986 206 986 q 310 962 288 986 q 329 897 332 938 l 269 147 l 658 147 q 717 129 696 147 q 738 79 738 111 q 649 0 738 0 l 165 0 m 707 -253 q 636 -240 661 -256 q 611 -193 611 -225 q 683 -126 611 -131 l 724 -124 q 833 -6 825 -115 l 883 611 q 913 672 886 651 q 975 693 939 693 q 1036 672 1013 693 q 1057 611 1060 651 l 1008 8 q 933 -177 999 -112 q 742 -251 868 -242 l 707 -253 m 992 817 q 917 842 944 817 q 889 910 889 868 q 917 976 889 951 q 992 1001 944 1001 q 1066 976 1038 1001 q 1094 910 1094 951 q 1067 842 1094 868 q 992 817 1039 817 z "},"Ḻ":{"ha":771,"x_min":86,"x_max":738,"o":"m 165 0 q 103 22 124 0 q 86 85 83 44 l 151 899 q 180 963 154 939 q 246 986 206 986 q 310 962 288 986 q 329 897 332 938 l 269 147 l 658 147 q 717 129 696 147 q 738 79 738 111 q 649 0 738 0 l 165 0 m 218 -242 q 176 -227 192 -242 q 160 -190 160 -212 q 178 -149 160 -164 q 226 -135 197 -135 l 563 -135 q 605 -149 589 -135 q 621 -185 621 -162 q 603 -226 621 -211 q 556 -242 585 -242 l 218 -242 z "},"Ł":{"ha":803,"x_min":4,"x_max":771,"o":"m 692 147 q 750 129 729 147 q 771 79 771 111 q 682 0 771 0 l 197 0 q 136 22 157 0 q 119 85 115 44 l 142 365 l 101 343 q 64 333 83 333 q 22 353 39 333 q 4 397 4 372 q 44 460 4 439 l 154 519 l 183 899 q 213 963 186 939 q 279 986 239 986 q 342 962 319 986 q 363 897 365 938 l 340 624 l 518 721 q 554 731 536 731 q 597 711 579 731 q 614 667 614 692 q 575 607 614 628 l 328 469 l 303 147 l 692 147 z "},"M":{"ha":1168,"x_min":85,"x_max":1107,"o":"m 1029 988 q 1086 964 1065 988 q 1104 901 1107 940 l 1039 72 q 1013 13 1036 35 q 956 -8 990 -8 q 899 15 921 -8 q 881 75 878 38 l 925 643 l 656 200 q 616 157 636 171 q 571 143 596 143 q 526 157 544 143 q 492 201 507 171 l 290 635 l 246 72 q 219 14 243 36 q 161 -8 196 -8 q 106 15 126 -8 q 88 75 85 38 l 153 899 q 181 962 156 938 q 243 986 206 986 q 325 926 297 986 l 583 344 l 939 929 q 1029 988 975 988 z "},"Ṃ":{"ha":1168,"x_min":88,"x_max":1104,"o":"m 1029 988 q 1086 964 1065 988 q 1104 901 1107 940 l 1039 72 q 1013 13 1036 35 q 956 -8 990 -8 q 899 15 921 -8 q 881 75 878 38 l 925 643 l 656 200 q 616 157 636 171 q 571 143 596 143 q 526 157 544 143 q 492 201 507 171 l 290 635 l 246 72 q 219 14 243 36 q 161 -8 196 -8 q 106 15 126 -8 q 88 75 85 38 l 153 899 q 181 962 156 938 q 243 986 206 986 q 325 926 297 986 l 583 344 l 939 929 q 1029 988 975 988 m 543 -275 q 477 -251 503 -275 q 451 -186 451 -226 q 476 -124 451 -147 q 543 -100 501 -100 q 609 -124 583 -100 q 635 -186 635 -147 q 609 -251 635 -226 q 543 -275 583 -275 z "},"N":{"ha":1038,"x_min":83,"x_max":979,"o":"m 897 986 q 957 962 935 986 q 975 899 979 938 l 911 81 q 884 16 908 40 q 822 -8 860 -8 q 753 25 778 -8 l 301 678 l 253 79 q 226 15 250 39 q 163 -8 201 -8 q 105 17 126 -8 q 86 82 83 42 l 150 899 q 178 962 153 938 q 240 986 204 986 q 308 953 286 986 l 761 300 l 808 900 q 836 963 811 939 q 897 986 861 986 z "},"Ǌ":{"ha":1535,"x_min":86,"x_max":1474,"o":"m 897 986 q 957 962 935 986 q 975 899 979 938 l 911 81 q 884 16 908 40 q 822 -8 860 -8 q 753 25 778 -8 l 301 678 l 253 79 q 226 15 250 39 q 163 -8 201 -8 q 105 17 126 -8 q 86 82 83 42 l 150 899 q 178 962 153 938 q 240 986 204 986 q 308 953 286 986 l 761 300 l 808 900 q 836 963 811 939 q 897 986 861 986 m 1096 -8 q 997 64 997 -14 q 1074 136 997 129 l 1118 139 q 1207 176 1175 142 q 1244 276 1239 211 l 1294 899 q 1324 963 1297 939 q 1390 986 1350 986 q 1454 963 1432 986 q 1474 899 1476 939 l 1425 276 q 1343 74 1415 146 q 1140 -6 1271 3 l 1096 -8 z "},"Ń":{"ha":1038,"x_min":86,"x_max":975,"o":"m 897 986 q 957 962 935 986 q 975 899 979 938 l 911 81 q 884 16 908 40 q 822 -8 860 -8 q 753 25 778 -8 l 301 678 l 253 79 q 226 15 250 39 q 163 -8 201 -8 q 105 17 126 -8 q 86 82 83 42 l 150 899 q 178 962 153 938 q 240 986 204 986 q 308 953 286 986 l 761 300 l 808 900 q 836 963 811 939 q 897 986 861 986 m 639 1074 q 599 1057 621 1057 q 569 1067 581 1057 q 557 1094 557 1078 q 568 1126 557 1111 l 658 1254 q 713 1286 681 1286 q 756 1269 738 1286 q 775 1228 775 1251 q 751 1181 775 1203 l 639 1074 z "},"Ň":{"ha":1038,"x_min":86,"x_max":975,"o":"m 897 986 q 957 962 935 986 q 975 899 979 938 l 911 81 q 884 16 908 40 q 822 -8 860 -8 q 753 25 778 -8 l 301 678 l 253 79 q 226 15 250 39 q 163 -8 201 -8 q 105 17 126 -8 q 86 82 83 42 l 150 899 q 178 962 153 938 q 240 986 204 986 q 308 953 286 986 l 761 300 l 808 900 q 836 963 811 939 q 897 986 861 986 m 665 1254 q 721 1283 689 1283 q 756 1270 742 1283 q 771 1239 771 1257 q 753 1200 771 1219 l 644 1082 q 575 1053 617 1053 q 508 1082 532 1053 l 421 1199 q 408 1233 408 1215 q 425 1269 408 1254 q 464 1283 442 1283 q 515 1251 496 1283 l 578 1149 l 665 1254 z "},"Ņ":{"ha":1038,"x_min":86,"x_max":975,"o":"m 897 986 q 957 962 935 986 q 975 899 979 938 l 911 81 q 884 16 908 40 q 822 -8 860 -8 q 753 25 778 -8 l 301 678 l 253 79 q 226 15 250 39 q 163 -8 201 -8 q 105 17 126 -8 q 86 82 83 42 l 150 899 q 178 962 153 938 q 240 986 204 986 q 308 953 286 986 l 761 300 l 808 900 q 836 963 811 939 q 897 986 861 986 m 478 -87 q 551 -115 525 -87 q 578 -186 578 -142 q 560 -274 578 -232 q 511 -349 542 -315 q 464 -371 490 -371 q 435 -362 447 -371 q 424 -339 424 -353 q 435 -311 424 -324 q 474 -244 463 -279 l 468 -244 q 412 -226 435 -244 q 389 -172 389 -207 q 415 -112 389 -136 q 478 -87 442 -87 z "},"Ṅ":{"ha":1038,"x_min":86,"x_max":975,"o":"m 897 986 q 957 962 935 986 q 975 899 979 938 l 911 81 q 884 16 908 40 q 822 -8 860 -8 q 753 25 778 -8 l 301 678 l 253 79 q 226 15 250 39 q 163 -8 201 -8 q 105 17 126 -8 q 86 82 83 42 l 150 899 q 178 962 153 938 q 240 986 204 986 q 308 953 286 986 l 761 300 l 808 900 q 836 963 811 939 q 897 986 861 986 m 585 1078 q 510 1103 538 1078 q 482 1171 482 1129 q 510 1238 482 1213 q 585 1263 538 1263 q 659 1238 631 1263 q 688 1171 688 1213 q 660 1103 688 1129 q 585 1078 632 1078 z "},"Ṇ":{"ha":1038,"x_min":86,"x_max":975,"o":"m 897 986 q 957 962 935 986 q 975 899 979 938 l 911 81 q 884 16 908 40 q 822 -8 860 -8 q 753 25 778 -8 l 301 678 l 253 79 q 226 15 250 39 q 163 -8 201 -8 q 105 17 126 -8 q 86 82 83 42 l 150 899 q 178 962 153 938 q 240 986 204 986 q 308 953 286 986 l 761 300 l 808 900 q 836 963 811 939 q 897 986 861 986 m 478 -275 q 412 -251 438 -275 q 386 -186 386 -226 q 411 -124 386 -147 q 478 -100 436 -100 q 544 -124 518 -100 q 569 -186 569 -147 q 544 -251 569 -226 q 478 -275 518 -275 z "},"Ŋ":{"ha":1038,"x_min":83,"x_max":979,"o":"m 897 986 q 957 962 935 986 q 975 899 979 938 l 907 29 q 826 -173 897 -101 q 624 -253 754 -244 l 578 -256 q 504 -240 529 -258 q 479 -186 479 -222 q 554 -119 481 -126 l 604 -117 q 698 -78 663 -114 q 739 21 733 -42 l 740 43 l 301 678 l 253 79 q 225 16 250 40 q 163 -8 200 -8 q 105 17 126 -8 q 86 82 83 42 l 150 899 q 178 962 153 938 q 240 986 204 986 q 308 953 286 986 l 761 300 l 808 900 q 836 963 811 939 q 897 986 861 986 z "},"ǋ":{"ha":1390,"x_min":86,"x_max":1361,"o":"m 897 986 q 957 962 935 986 q 975 899 979 938 l 911 81 q 884 16 908 40 q 822 -8 860 -8 q 753 25 778 -8 l 301 678 l 253 79 q 226 15 250 39 q 163 -8 201 -8 q 105 17 126 -8 q 86 82 83 42 l 150 899 q 178 962 153 938 q 240 986 204 986 q 308 953 286 986 l 761 300 l 808 900 q 836 963 811 939 q 897 986 861 986 m 974 -253 q 903 -240 928 -256 q 878 -193 878 -225 q 950 -126 878 -131 l 990 -124 q 1100 -6 1092 -115 l 1150 611 q 1179 672 1153 651 q 1242 693 1206 693 q 1303 672 1279 693 q 1324 611 1326 651 l 1275 8 q 1200 -177 1265 -112 q 1008 -251 1135 -242 l 974 -253 m 1258 817 q 1183 842 1211 817 q 1156 910 1156 868 q 1183 976 1156 951 q 1258 1001 1211 1001 q 1333 976 1304 1001 q 1361 910 1361 951 q 1333 842 1361 868 q 1258 817 1306 817 z "},"Ṉ":{"ha":1038,"x_min":86,"x_max":975,"o":"m 897 986 q 957 962 935 986 q 975 899 979 938 l 911 81 q 884 16 908 40 q 822 -8 860 -8 q 753 25 778 -8 l 301 678 l 253 79 q 226 15 250 39 q 163 -8 201 -8 q 105 17 126 -8 q 86 82 83 42 l 150 899 q 178 962 153 938 q 240 986 204 986 q 308 953 286 986 l 761 300 l 808 900 q 836 963 811 939 q 897 986 861 986 m 306 -242 q 263 -227 279 -242 q 247 -190 247 -212 q 266 -149 247 -164 q 314 -135 285 -135 l 650 -135 q 692 -149 676 -135 q 708 -185 708 -162 q 690 -226 708 -211 q 643 -242 672 -242 l 306 -242 z "},"Ñ":{"ha":1038,"x_min":86,"x_max":975,"o":"m 897 986 q 957 962 935 986 q 975 899 979 938 l 911 81 q 884 16 908 40 q 822 -8 860 -8 q 753 25 778 -8 l 301 678 l 253 79 q 226 15 250 39 q 163 -8 201 -8 q 105 17 126 -8 q 86 82 83 42 l 150 899 q 178 962 153 938 q 240 986 204 986 q 308 953 286 986 l 761 300 l 808 900 q 836 963 811 939 q 897 986 861 986 m 679 1082 q 632 1090 656 1082 q 572 1115 608 1099 q 524 1137 543 1129 q 486 1144 504 1144 q 452 1136 465 1144 q 425 1111 439 1128 q 406 1093 414 1099 q 386 1088 399 1088 q 351 1131 351 1088 q 369 1190 351 1160 q 417 1241 386 1221 q 490 1261 449 1261 q 539 1252 514 1261 q 597 1226 564 1243 q 646 1205 626 1213 q 683 1197 665 1197 q 717 1206 704 1197 q 744 1231 731 1214 q 763 1249 756 1243 q 783 1254 771 1254 q 818 1213 818 1254 q 801 1153 818 1183 q 752 1102 783 1122 q 679 1082 721 1082 z "},"O":{"ha":1082,"x_min":86,"x_max":1019,"o":"m 544 -12 q 301 44 404 -12 q 142 205 197 100 q 86 454 86 310 q 145 737 86 615 q 311 925 204 858 q 561 992 418 992 q 805 935 701 992 q 964 774 908 879 q 1019 525 1019 669 q 960 242 1019 364 q 794 54 901 121 q 544 -12 688 -12 m 543 131 q 760 235 681 131 q 839 525 839 340 q 767 765 839 681 q 563 849 694 849 q 344 743 424 849 q 265 453 265 638 q 338 214 265 297 q 543 131 410 131 z "},"Ó":{"ha":1082,"x_min":86,"x_max":1019,"o":"m 544 -12 q 301 44 404 -12 q 142 205 197 100 q 86 454 86 310 q 145 737 86 615 q 311 925 204 858 q 561 992 418 992 q 805 935 701 992 q 964 774 908 879 q 1019 525 1019 669 q 960 242 1019 364 q 794 54 901 121 q 544 -12 688 -12 m 543 131 q 760 235 681 131 q 839 525 839 340 q 767 765 839 681 q 563 849 694 849 q 344 743 424 849 q 265 453 265 638 q 338 214 265 297 q 543 131 410 131 m 661 1074 q 621 1057 643 1057 q 591 1067 603 1057 q 579 1094 579 1078 q 590 1126 579 1111 l 681 1254 q 735 1286 703 1286 q 778 1269 760 1286 q 797 1228 797 1251 q 774 1181 797 1203 l 661 1074 z "},"Ŏ":{"ha":1082,"x_min":86,"x_max":1019,"o":"m 544 -12 q 301 44 404 -12 q 142 205 197 100 q 86 454 86 310 q 145 737 86 615 q 311 925 204 858 q 561 992 418 992 q 805 935 701 992 q 964 774 908 879 q 1019 525 1019 669 q 960 242 1019 364 q 794 54 901 121 q 544 -12 688 -12 m 543 131 q 760 235 681 131 q 839 525 839 340 q 767 765 839 681 q 563 849 694 849 q 344 743 424 849 q 265 453 265 638 q 338 214 265 297 q 543 131 410 131 m 604 1076 q 474 1106 529 1076 q 389 1186 418 1135 q 379 1217 379 1201 q 394 1250 379 1238 q 431 1263 410 1263 q 476 1242 457 1263 q 608 1185 519 1185 q 746 1242 694 1185 q 796 1264 768 1264 q 826 1253 814 1264 q 839 1224 839 1242 q 826 1186 839 1207 q 734 1106 792 1135 q 604 1076 676 1076 z "},"Ô":{"ha":1082,"x_min":86,"x_max":1019,"o":"m 544 -12 q 301 44 404 -12 q 142 205 197 100 q 86 454 86 310 q 145 737 86 615 q 311 925 204 858 q 561 992 418 992 q 805 935 701 992 q 964 774 908 879 q 1019 525 1019 669 q 960 242 1019 364 q 794 54 901 121 q 544 -12 688 -12 m 543 131 q 760 235 681 131 q 839 525 839 340 q 767 765 839 681 q 563 849 694 849 q 344 743 424 849 q 265 453 265 638 q 338 214 265 297 q 543 131 410 131 m 524 1085 q 468 1056 500 1056 q 433 1069 447 1056 q 418 1100 418 1082 q 436 1139 418 1119 l 544 1257 q 617 1285 571 1285 q 681 1257 661 1285 l 769 1140 q 782 1107 782 1124 q 765 1072 782 1086 q 726 1057 749 1057 q 674 1089 693 1057 l 611 1190 l 524 1085 z "},"Ố":{"ha":1082,"x_min":86,"x_max":1019,"o":"m 544 -12 q 301 44 404 -12 q 142 205 197 100 q 86 454 86 310 q 145 737 86 615 q 311 925 204 858 q 561 992 418 992 q 805 935 701 992 q 964 774 908 879 q 1019 525 1019 669 q 960 242 1019 364 q 794 54 901 121 q 544 -12 688 -12 m 543 131 q 760 235 681 131 q 839 525 839 340 q 767 765 839 681 q 563 849 694 849 q 344 743 424 849 q 265 453 265 638 q 338 214 265 297 q 543 131 410 131 m 821 1214 q 790 1201 806 1201 q 763 1213 775 1201 q 751 1238 751 1224 q 761 1263 751 1251 l 851 1388 q 901 1417 872 1417 q 943 1399 925 1417 q 961 1360 961 1382 q 938 1315 961 1335 l 821 1214 m 517 1074 q 476 1054 499 1054 q 442 1069 457 1054 q 428 1103 428 1083 q 447 1143 428 1125 l 547 1243 q 618 1272 581 1272 q 679 1243 654 1272 l 767 1136 q 781 1103 781 1121 q 764 1069 781 1083 q 726 1054 747 1054 q 682 1078 700 1054 l 611 1175 l 517 1074 z "},"Ộ":{"ha":1082,"x_min":86,"x_max":1019,"o":"m 544 -12 q 301 44 404 -12 q 142 205 197 100 q 86 454 86 310 q 145 737 86 615 q 311 925 204 858 q 561 992 418 992 q 805 935 701 992 q 964 774 908 879 q 1019 525 1019 669 q 960 242 1019 364 q 794 54 901 121 q 544 -12 688 -12 m 543 131 q 760 235 681 131 q 839 525 839 340 q 767 765 839 681 q 563 849 694 849 q 344 743 424 849 q 265 453 265 638 q 338 214 265 297 q 543 131 410 131 m 500 -275 q 434 -251 460 -275 q 408 -186 408 -226 q 433 -124 408 -147 q 500 -100 458 -100 q 566 -124 540 -100 q 592 -186 592 -147 q 566 -251 592 -226 q 500 -275 540 -275 m 524 1085 q 468 1056 500 1056 q 433 1069 447 1056 q 418 1100 418 1082 q 436 1139 418 1119 l 544 1257 q 617 1285 571 1285 q 681 1257 661 1285 l 769 1140 q 782 1107 782 1124 q 765 1072 782 1086 q 726 1057 749 1057 q 674 1089 693 1057 l 611 1190 l 524 1085 z "},"Ồ":{"ha":1082,"x_min":86,"x_max":1019,"o":"m 544 -12 q 301 44 404 -12 q 142 205 197 100 q 86 454 86 310 q 145 737 86 615 q 311 925 204 858 q 561 992 418 992 q 805 935 701 992 q 964 774 908 879 q 1019 525 1019 669 q 960 242 1019 364 q 794 54 901 121 q 544 -12 688 -12 m 543 131 q 760 235 681 131 q 839 525 839 340 q 767 765 839 681 q 563 849 694 849 q 344 743 424 849 q 265 453 265 638 q 338 214 265 297 q 543 131 410 131 m 835 1222 q 803 1206 821 1206 q 778 1215 789 1206 q 767 1239 767 1225 q 771 1254 767 1246 l 800 1374 q 847 1410 814 1410 q 884 1395 868 1410 q 900 1360 900 1381 q 890 1329 900 1343 l 835 1222 m 517 1074 q 476 1054 499 1054 q 442 1069 457 1054 q 428 1103 428 1083 q 447 1143 428 1125 l 547 1243 q 618 1272 581 1272 q 679 1243 654 1272 l 767 1136 q 781 1103 781 1121 q 764 1069 781 1083 q 726 1054 747 1054 q 682 1078 700 1054 l 611 1175 l 517 1074 z "},"Ổ":{"ha":1082,"x_min":86,"x_max":1019,"o":"m 544 -12 q 301 44 404 -12 q 142 205 197 100 q 86 454 86 310 q 145 737 86 615 q 311 925 204 858 q 561 992 418 992 q 805 935 701 992 q 964 774 908 879 q 1019 525 1019 669 q 960 242 1019 364 q 794 54 901 121 q 544 -12 688 -12 m 543 131 q 760 235 681 131 q 839 525 839 340 q 767 765 839 681 q 563 849 694 849 q 344 743 424 849 q 265 453 265 638 q 338 214 265 297 q 543 131 410 131 m 829 1226 q 812 1209 825 1215 q 783 1203 799 1203 q 752 1211 765 1203 q 739 1235 739 1219 q 757 1276 739 1261 q 804 1301 775 1290 q 826 1311 817 1306 q 835 1322 835 1317 q 790 1339 835 1339 q 749 1335 769 1339 q 715 1332 726 1332 q 686 1340 697 1331 q 675 1363 675 1349 q 703 1396 675 1386 q 811 1413 746 1413 q 912 1391 875 1413 q 949 1335 949 1369 q 931 1291 949 1306 q 879 1263 913 1276 q 845 1246 857 1254 q 829 1226 833 1238 m 517 1074 q 476 1054 499 1054 q 442 1069 457 1054 q 428 1103 428 1083 q 447 1143 428 1125 l 547 1243 q 618 1272 581 1272 q 679 1243 654 1272 l 767 1136 q 781 1103 781 1121 q 764 1069 781 1083 q 726 1054 747 1054 q 682 1078 700 1054 l 611 1175 l 517 1074 z "},"Ỗ":{"ha":1082,"x_min":86,"x_max":1019,"o":"m 544 -12 q 301 44 404 -12 q 142 205 197 100 q 86 454 86 310 q 145 737 86 615 q 311 925 204 858 q 561 992 418 992 q 805 935 701 992 q 964 774 908 879 q 1019 525 1019 669 q 960 242 1019 364 q 794 54 901 121 q 544 -12 688 -12 m 543 131 q 760 235 681 131 q 839 525 839 340 q 767 765 839 681 q 563 849 694 849 q 344 743 424 849 q 265 453 265 638 q 338 214 265 297 q 543 131 410 131 m 422 1282 q 388 1321 388 1282 q 406 1365 388 1340 q 457 1406 425 1389 q 525 1424 489 1424 q 640 1396 565 1424 q 686 1381 664 1388 q 724 1375 708 1375 q 753 1382 742 1375 q 778 1401 765 1389 q 797 1418 789 1413 q 818 1424 806 1424 q 846 1413 836 1424 q 856 1385 856 1403 q 836 1340 856 1365 q 785 1298 817 1315 q 717 1281 753 1281 q 665 1288 692 1281 q 603 1308 639 1294 q 556 1324 579 1317 q 518 1331 533 1331 q 488 1324 500 1331 q 464 1304 476 1317 q 442 1287 450 1292 q 422 1282 435 1282 m 517 1074 q 476 1054 499 1054 q 442 1069 457 1054 q 428 1103 428 1083 q 447 1143 428 1125 l 547 1243 q 618 1272 581 1272 q 679 1243 654 1272 l 767 1136 q 781 1103 781 1121 q 764 1069 781 1083 q 726 1054 747 1054 q 682 1078 700 1054 l 611 1175 l 517 1074 z "},"Ȍ":{"ha":1082,"x_min":86,"x_max":1019,"o":"m 544 -12 q 301 44 404 -12 q 142 205 197 100 q 86 454 86 310 q 145 737 86 615 q 311 925 204 858 q 561 992 418 992 q 805 935 701 992 q 964 774 908 879 q 1019 525 1019 669 q 960 242 1019 364 q 794 54 901 121 q 544 -12 688 -12 m 543 131 q 760 235 681 131 q 839 525 839 340 q 767 765 839 681 q 563 849 694 849 q 344 743 424 849 q 265 453 265 638 q 338 214 265 297 q 543 131 410 131 m 383 1203 q 374 1233 374 1218 q 390 1269 374 1254 q 426 1285 406 1285 q 476 1246 461 1285 l 528 1113 q 531 1096 531 1107 q 519 1068 531 1079 q 493 1057 508 1057 q 457 1079 471 1057 l 383 1203 m 565 1203 q 556 1233 556 1218 q 572 1269 556 1254 q 610 1285 589 1285 q 660 1246 644 1285 l 711 1113 q 714 1096 714 1107 q 703 1068 714 1079 q 676 1057 692 1057 q 640 1079 654 1057 l 565 1203 z "},"Ö":{"ha":1082,"x_min":86,"x_max":1019,"o":"m 544 -12 q 301 44 404 -12 q 142 205 197 100 q 86 454 86 310 q 145 737 86 615 q 311 925 204 858 q 561 992 418 992 q 805 935 701 992 q 964 774 908 879 q 1019 525 1019 669 q 960 242 1019 364 q 794 54 901 121 q 544 -12 688 -12 m 543 131 q 760 235 681 131 q 839 525 839 340 q 767 765 839 681 q 563 849 694 849 q 344 743 424 849 q 265 453 265 638 q 338 214 265 297 q 543 131 410 131 m 479 1083 q 414 1108 439 1083 q 389 1171 389 1132 q 414 1233 389 1210 q 479 1257 439 1257 q 545 1233 519 1257 q 571 1171 571 1210 q 545 1108 571 1132 q 479 1083 519 1083 m 735 1083 q 669 1108 694 1083 q 644 1171 644 1132 q 669 1233 644 1210 q 735 1257 694 1257 q 799 1233 774 1257 q 825 1171 825 1210 q 800 1108 825 1132 q 735 1083 775 1083 z "},"Ȫ":{"ha":1082,"x_min":86,"x_max":1019,"o":"m 544 -12 q 301 44 404 -12 q 142 205 197 100 q 86 454 86 310 q 145 737 86 615 q 311 925 204 858 q 561 992 418 992 q 805 935 701 992 q 964 774 908 879 q 1019 525 1019 669 q 960 242 1019 364 q 794 54 901 121 q 544 -12 688 -12 m 543 131 q 760 235 681 131 q 839 525 839 340 q 767 765 839 681 q 563 849 694 849 q 344 743 424 849 q 265 453 265 638 q 338 214 265 297 q 543 131 410 131 m 479 1083 q 414 1108 439 1083 q 389 1171 389 1132 q 414 1233 389 1210 q 479 1257 439 1257 q 545 1233 519 1257 q 571 1171 571 1210 q 545 1108 571 1132 q 479 1083 519 1083 m 735 1083 q 669 1108 694 1083 q 644 1171 644 1132 q 669 1233 644 1210 q 735 1257 694 1257 q 799 1233 774 1257 q 825 1171 825 1210 q 800 1108 825 1132 q 735 1083 775 1083 m 453 1336 q 410 1351 426 1336 q 394 1389 394 1365 q 413 1433 394 1418 q 461 1449 432 1449 l 797 1449 q 840 1434 825 1449 q 856 1393 856 1419 q 837 1351 856 1365 q 789 1336 818 1336 l 453 1336 z "},"Ȱ":{"ha":1082,"x_min":86,"x_max":1019,"o":"m 544 -12 q 301 44 404 -12 q 142 205 197 100 q 86 454 86 310 q 145 737 86 615 q 311 925 204 858 q 561 992 418 992 q 805 935 701 992 q 964 774 908 879 q 1019 525 1019 669 q 960 242 1019 364 q 794 54 901 121 q 544 -12 688 -12 m 543 131 q 760 235 681 131 q 839 525 839 340 q 767 765 839 681 q 563 849 694 849 q 344 743 424 849 q 265 453 265 638 q 338 214 265 297 q 543 131 410 131 m 607 1078 q 532 1103 560 1078 q 504 1171 504 1129 q 532 1238 504 1213 q 607 1263 560 1263 q 681 1238 653 1263 q 710 1171 710 1213 q 682 1103 710 1129 q 607 1078 654 1078 m 453 1336 q 410 1351 426 1336 q 394 1389 394 1365 q 413 1433 394 1418 q 461 1449 432 1449 l 797 1449 q 840 1434 825 1449 q 856 1393 856 1419 q 837 1351 856 1365 q 789 1336 818 1336 l 453 1336 z "},"Ọ":{"ha":1082,"x_min":86,"x_max":1019,"o":"m 544 -12 q 301 44 404 -12 q 142 205 197 100 q 86 454 86 310 q 145 737 86 615 q 311 925 204 858 q 561 992 418 992 q 805 935 701 992 q 964 774 908 879 q 1019 525 1019 669 q 960 242 1019 364 q 794 54 901 121 q 544 -12 688 -12 m 543 131 q 760 235 681 131 q 839 525 839 340 q 767 765 839 681 q 563 849 694 849 q 344 743 424 849 q 265 453 265 638 q 338 214 265 297 q 543 131 410 131 m 500 -275 q 434 -251 460 -275 q 408 -186 408 -226 q 433 -124 408 -147 q 500 -100 458 -100 q 566 -124 540 -100 q 592 -186 592 -147 q 566 -251 592 -226 q 500 -275 540 -275 z "},"Ò":{"ha":1082,"x_min":86,"x_max":1019,"o":"m 544 -12 q 301 44 404 -12 q 142 205 197 100 q 86 454 86 310 q 145 737 86 615 q 311 925 204 858 q 561 992 418 992 q 805 935 701 992 q 964 774 908 879 q 1019 525 1019 669 q 960 242 1019 364 q 794 54 901 121 q 544 -12 688 -12 m 543 131 q 760 235 681 131 q 839 525 839 340 q 767 765 839 681 q 563 849 694 849 q 344 743 424 849 q 265 453 265 638 q 338 214 265 297 q 543 131 410 131 m 438 1189 q 421 1229 421 1207 q 440 1269 421 1253 q 483 1286 458 1286 q 538 1253 518 1286 l 615 1119 q 622 1096 622 1106 q 609 1067 622 1078 q 576 1056 596 1056 q 535 1075 553 1056 l 438 1189 z "},"Ỏ":{"ha":1082,"x_min":86,"x_max":1019,"o":"m 544 -12 q 301 44 404 -12 q 142 205 197 100 q 86 454 86 310 q 145 737 86 615 q 311 925 204 858 q 561 992 418 992 q 805 935 701 992 q 964 774 908 879 q 1019 525 1019 669 q 960 242 1019 364 q 794 54 901 121 q 544 -12 688 -12 m 543 131 q 760 235 681 131 q 839 525 839 340 q 767 765 839 681 q 563 849 694 849 q 344 743 424 849 q 265 453 265 638 q 338 214 265 297 q 543 131 410 131 m 647 1083 q 630 1063 643 1071 q 601 1056 617 1056 q 569 1065 582 1056 q 556 1090 556 1075 q 572 1131 556 1117 q 617 1157 588 1144 q 644 1171 636 1165 q 653 1186 653 1176 q 608 1206 653 1206 q 535 1196 576 1206 q 506 1202 517 1192 q 494 1228 494 1213 q 522 1265 494 1256 q 628 1282 565 1282 q 730 1259 693 1282 q 767 1200 767 1236 q 749 1155 767 1171 q 699 1124 732 1139 q 663 1104 675 1113 q 647 1083 651 1096 z "},"Ơ":{"ha":1082,"x_min":86,"x_max":1067,"o":"m 872 890 q 981 740 942 832 q 1019 525 1019 647 q 960 242 1019 364 q 794 54 901 121 q 544 -12 688 -12 q 301 44 404 -12 q 142 205 197 100 q 86 454 86 310 q 145 737 86 615 q 315 925 204 858 q 575 992 425 992 q 681 985 625 992 q 774 979 742 979 q 853 992 825 979 q 894 1033 881 1004 q 917 1115 908 1063 q 999 1188 928 1188 q 1049 1169 1032 1188 q 1067 1114 1067 1150 q 1014 964 1067 1026 q 872 890 961 901 m 543 131 q 760 235 681 131 q 839 525 839 340 q 767 765 839 681 q 563 849 694 849 q 344 743 424 849 q 265 453 265 638 q 338 214 265 297 q 543 131 410 131 z "},"Ớ":{"ha":1082,"x_min":86,"x_max":1067,"o":"m 872 890 q 981 740 942 832 q 1019 525 1019 647 q 960 242 1019 364 q 794 54 901 121 q 544 -12 688 -12 q 301 44 404 -12 q 142 205 197 100 q 86 454 86 310 q 145 737 86 615 q 315 925 204 858 q 575 992 425 992 q 681 985 625 992 q 774 979 742 979 q 853 992 825 979 q 894 1033 881 1004 q 917 1115 908 1063 q 999 1188 928 1188 q 1049 1169 1032 1188 q 1067 1114 1067 1150 q 1014 964 1067 1026 q 872 890 961 901 m 543 131 q 760 235 681 131 q 839 525 839 340 q 767 765 839 681 q 563 849 694 849 q 344 743 424 849 q 265 453 265 638 q 338 214 265 297 q 543 131 410 131 m 661 1074 q 621 1057 643 1057 q 591 1067 603 1057 q 579 1094 579 1078 q 590 1126 579 1111 l 681 1254 q 735 1286 703 1286 q 778 1269 760 1286 q 797 1228 797 1251 q 774 1181 797 1203 l 661 1074 z "},"Ợ":{"ha":1082,"x_min":86,"x_max":1067,"o":"m 872 890 q 981 740 942 832 q 1019 525 1019 647 q 960 242 1019 364 q 794 54 901 121 q 544 -12 688 -12 q 301 44 404 -12 q 142 205 197 100 q 86 454 86 310 q 145 737 86 615 q 315 925 204 858 q 575 992 425 992 q 681 985 625 992 q 774 979 742 979 q 853 992 825 979 q 894 1033 881 1004 q 917 1115 908 1063 q 999 1188 928 1188 q 1049 1169 1032 1188 q 1067 1114 1067 1150 q 1014 964 1067 1026 q 872 890 961 901 m 543 131 q 760 235 681 131 q 839 525 839 340 q 767 765 839 681 q 563 849 694 849 q 344 743 424 849 q 265 453 265 638 q 338 214 265 297 q 543 131 410 131 m 500 -275 q 434 -251 460 -275 q 408 -186 408 -226 q 433 -124 408 -147 q 500 -100 458 -100 q 566 -124 540 -100 q 592 -186 592 -147 q 566 -251 592 -226 q 500 -275 540 -275 z "},"Ờ":{"ha":1082,"x_min":86,"x_max":1067,"o":"m 872 890 q 981 740 942 832 q 1019 525 1019 647 q 960 242 1019 364 q 794 54 901 121 q 544 -12 688 -12 q 301 44 404 -12 q 142 205 197 100 q 86 454 86 310 q 145 737 86 615 q 315 925 204 858 q 575 992 425 992 q 681 985 625 992 q 774 979 742 979 q 853 992 825 979 q 894 1033 881 1004 q 917 1115 908 1063 q 999 1188 928 1188 q 1049 1169 1032 1188 q 1067 1114 1067 1150 q 1014 964 1067 1026 q 872 890 961 901 m 543 131 q 760 235 681 131 q 839 525 839 340 q 767 765 839 681 q 563 849 694 849 q 344 743 424 849 q 265 453 265 638 q 338 214 265 297 q 543 131 410 131 m 438 1189 q 421 1229 421 1207 q 440 1269 421 1253 q 483 1286 458 1286 q 538 1253 518 1286 l 615 1119 q 622 1096 622 1106 q 609 1067 622 1078 q 576 1056 596 1056 q 535 1075 553 1056 l 438 1189 z "},"Ở":{"ha":1082,"x_min":86,"x_max":1067,"o":"m 872 890 q 981 740 942 832 q 1019 525 1019 647 q 960 242 1019 364 q 794 54 901 121 q 544 -12 688 -12 q 301 44 404 -12 q 142 205 197 100 q 86 454 86 310 q 145 737 86 615 q 315 925 204 858 q 575 992 425 992 q 681 985 625 992 q 774 979 742 979 q 853 992 825 979 q 894 1033 881 1004 q 917 1115 908 1063 q 999 1188 928 1188 q 1049 1169 1032 1188 q 1067 1114 1067 1150 q 1014 964 1067 1026 q 872 890 961 901 m 543 131 q 760 235 681 131 q 839 525 839 340 q 767 765 839 681 q 563 849 694 849 q 344 743 424 849 q 265 453 265 638 q 338 214 265 297 q 543 131 410 131 m 647 1083 q 630 1063 643 1071 q 601 1056 617 1056 q 569 1065 582 1056 q 556 1090 556 1075 q 572 1131 556 1117 q 617 1157 588 1144 q 644 1171 636 1165 q 653 1186 653 1176 q 608 1206 653 1206 q 535 1196 576 1206 q 506 1202 517 1192 q 494 1228 494 1213 q 522 1265 494 1256 q 628 1282 565 1282 q 730 1259 693 1282 q 767 1200 767 1236 q 749 1155 767 1171 q 699 1124 732 1139 q 663 1104 675 1113 q 647 1083 651 1096 z "},"Ỡ":{"ha":1082,"x_min":86,"x_max":1067,"o":"m 872 890 q 981 740 942 832 q 1019 525 1019 647 q 960 242 1019 364 q 794 54 901 121 q 544 -12 688 -12 q 301 44 404 -12 q 142 205 197 100 q 86 454 86 310 q 145 737 86 615 q 315 925 204 858 q 575 992 425 992 q 681 985 625 992 q 774 979 742 979 q 853 992 825 979 q 894 1033 881 1004 q 917 1115 908 1063 q 999 1188 928 1188 q 1049 1169 1032 1188 q 1067 1114 1067 1150 q 1014 964 1067 1026 q 872 890 961 901 m 543 131 q 760 235 681 131 q 839 525 839 340 q 767 765 839 681 q 563 849 694 849 q 344 743 424 849 q 265 453 265 638 q 338 214 265 297 q 543 131 410 131 m 701 1082 q 654 1090 678 1082 q 594 1115 631 1099 q 546 1137 565 1129 q 508 1144 526 1144 q 474 1136 488 1144 q 447 1111 461 1128 q 428 1093 436 1099 q 408 1088 421 1088 q 374 1131 374 1088 q 391 1190 374 1160 q 440 1241 408 1221 q 513 1261 471 1261 q 561 1252 536 1261 q 619 1226 586 1243 q 668 1205 649 1213 q 706 1197 688 1197 q 740 1206 726 1197 q 767 1231 753 1214 q 785 1249 778 1243 q 806 1254 793 1254 q 840 1213 840 1254 q 823 1153 840 1183 q 774 1102 806 1122 q 701 1082 743 1082 z "},"Ő":{"ha":1082,"x_min":86,"x_max":1019,"o":"m 544 -12 q 301 44 404 -12 q 142 205 197 100 q 86 454 86 310 q 145 737 86 615 q 311 925 204 858 q 561 992 418 992 q 805 935 701 992 q 964 774 908 879 q 1019 525 1019 669 q 960 242 1019 364 q 794 54 901 121 q 544 -12 688 -12 m 543 131 q 760 235 681 131 q 839 525 839 340 q 767 765 839 681 q 563 849 694 849 q 344 743 424 849 q 265 453 265 638 q 338 214 265 297 q 543 131 410 131 m 554 1076 q 518 1056 538 1056 q 495 1064 504 1056 q 486 1086 486 1072 q 492 1107 486 1097 l 561 1249 q 613 1285 579 1285 q 649 1271 633 1285 q 664 1236 664 1257 q 649 1197 664 1217 l 554 1076 m 738 1076 q 700 1056 721 1056 q 678 1064 688 1056 q 669 1086 669 1072 q 675 1107 669 1097 l 744 1249 q 796 1285 763 1285 q 832 1271 817 1285 q 847 1236 847 1257 q 832 1197 847 1219 l 738 1076 z "},"Ȏ":{"ha":1082,"x_min":86,"x_max":1019,"o":"m 544 -12 q 301 44 404 -12 q 142 205 197 100 q 86 454 86 310 q 145 737 86 615 q 311 925 204 858 q 561 992 418 992 q 805 935 701 992 q 964 774 908 879 q 1019 525 1019 669 q 960 242 1019 364 q 794 54 901 121 q 544 -12 688 -12 m 543 131 q 760 235 681 131 q 839 525 839 340 q 767 765 839 681 q 563 849 694 849 q 344 743 424 849 q 265 453 265 638 q 338 214 265 297 q 543 131 410 131 m 607 1264 q 738 1235 682 1264 q 822 1154 793 1207 q 832 1122 832 1139 q 818 1090 832 1103 q 783 1078 804 1078 q 736 1100 757 1078 q 603 1157 690 1157 q 465 1100 518 1157 q 415 1078 443 1078 q 385 1089 397 1078 q 372 1118 372 1100 q 385 1154 372 1133 q 477 1235 419 1206 q 607 1264 535 1264 z "},"Ō":{"ha":1082,"x_min":86,"x_max":1019,"o":"m 544 -12 q 301 44 404 -12 q 142 205 197 100 q 86 454 86 310 q 145 737 86 615 q 311 925 204 858 q 561 992 418 992 q 805 935 701 992 q 964 774 908 879 q 1019 525 1019 669 q 960 242 1019 364 q 794 54 901 121 q 544 -12 688 -12 m 543 131 q 760 235 681 131 q 839 525 839 340 q 767 765 839 681 q 563 849 694 849 q 344 743 424 849 q 265 453 265 638 q 338 214 265 297 q 543 131 410 131 m 435 1114 q 392 1128 408 1114 q 376 1167 376 1143 q 395 1211 376 1196 q 443 1226 414 1226 l 779 1226 q 822 1212 807 1226 q 838 1171 838 1197 q 819 1128 838 1143 q 771 1114 800 1114 l 435 1114 z "},"Ṓ":{"ha":1082,"x_min":86,"x_max":1019,"o":"m 544 -12 q 301 44 404 -12 q 142 205 197 100 q 86 454 86 310 q 145 737 86 615 q 311 925 204 858 q 561 992 418 992 q 805 935 701 992 q 964 774 908 879 q 1019 525 1019 669 q 960 242 1019 364 q 794 54 901 121 q 544 -12 688 -12 m 543 131 q 760 235 681 131 q 839 525 839 340 q 767 765 839 681 q 563 849 694 849 q 344 743 424 849 q 265 453 265 638 q 338 214 265 297 q 543 131 410 131 m 435 1114 q 392 1128 408 1114 q 376 1167 376 1143 q 395 1211 376 1196 q 443 1226 414 1226 l 779 1226 q 822 1212 807 1226 q 838 1171 838 1197 q 819 1128 838 1143 q 771 1114 800 1114 l 435 1114 m 679 1296 q 639 1279 661 1279 q 609 1290 621 1279 q 597 1317 597 1300 q 608 1349 597 1333 l 699 1476 q 753 1508 721 1508 q 797 1491 778 1508 q 815 1450 815 1474 q 792 1403 815 1425 l 679 1296 z "},"Ṑ":{"ha":1082,"x_min":86,"x_max":1019,"o":"m 544 -12 q 301 44 404 -12 q 142 205 197 100 q 86 454 86 310 q 145 737 86 615 q 311 925 204 858 q 561 992 418 992 q 805 935 701 992 q 964 774 908 879 q 1019 525 1019 669 q 960 242 1019 364 q 794 54 901 121 q 544 -12 688 -12 m 543 131 q 760 235 681 131 q 839 525 839 340 q 767 765 839 681 q 563 849 694 849 q 344 743 424 849 q 265 453 265 638 q 338 214 265 297 q 543 131 410 131 m 435 1114 q 392 1128 408 1114 q 376 1167 376 1143 q 395 1211 376 1196 q 443 1226 414 1226 l 779 1226 q 822 1212 807 1226 q 838 1171 838 1197 q 819 1128 838 1143 q 771 1114 800 1114 l 435 1114 m 456 1411 q 439 1451 439 1429 q 458 1492 439 1475 q 501 1508 476 1508 q 556 1475 536 1508 l 633 1342 q 640 1318 640 1328 q 627 1289 640 1300 q 594 1278 614 1278 q 553 1297 571 1278 l 456 1411 z "},"Ǫ":{"ha":1082,"x_min":86,"x_max":1019,"o":"m 665 1 q 560 -101 560 -24 q 581 -156 560 -137 q 638 -175 601 -175 q 700 -162 658 -175 q 714 -160 711 -160 q 737 -170 728 -160 q 746 -196 746 -181 q 738 -222 746 -208 q 718 -242 731 -235 q 608 -271 668 -271 q 486 -231 532 -271 q 440 -128 440 -192 q 492 -10 440 -57 q 276 57 368 -1 q 135 217 185 115 q 86 454 86 318 q 145 737 86 615 q 311 925 204 858 q 561 992 418 992 q 806 935 703 992 q 965 774 910 879 q 1019 525 1019 669 q 974 271 1019 381 q 849 93 929 161 q 665 1 769 25 m 543 131 q 760 235 681 131 q 839 525 839 340 q 767 765 839 681 q 563 849 694 849 q 344 743 424 849 q 265 453 265 638 q 338 214 265 297 q 543 131 410 131 z "},"Ø":{"ha":1082,"x_min":86,"x_max":1019,"o":"m 888 875 q 985 725 951 814 q 1019 525 1019 636 q 960 242 1019 364 q 794 54 901 121 q 544 -12 688 -12 q 328 31 422 -12 l 282 -37 q 221 -74 258 -74 q 176 -56 196 -74 q 157 -12 157 -37 q 171 31 157 8 l 219 103 q 120 253 154 164 q 86 454 86 342 q 145 737 86 615 q 311 925 204 858 q 561 992 418 992 q 779 949 682 992 l 824 1017 q 885 1053 847 1053 q 931 1035 911 1053 q 950 990 950 1017 q 936 949 950 971 l 888 875 m 265 453 q 314 247 265 325 l 694 821 q 563 849 636 849 q 344 743 424 849 q 265 453 265 638 m 543 131 q 760 235 681 131 q 839 525 839 340 q 792 731 839 649 l 411 158 q 543 131 469 131 z "},"Ǿ":{"ha":1082,"x_min":86,"x_max":1019,"o":"m 888 875 q 985 725 951 814 q 1019 525 1019 636 q 960 242 1019 364 q 794 54 901 121 q 544 -12 688 -12 q 328 31 422 -12 l 282 -37 q 221 -74 258 -74 q 176 -56 196 -74 q 157 -12 157 -37 q 171 31 157 8 l 219 103 q 120 253 154 164 q 86 454 86 342 q 145 737 86 615 q 311 925 204 858 q 561 992 418 992 q 779 949 682 992 l 824 1017 q 885 1053 847 1053 q 931 1035 911 1053 q 950 990 950 1017 q 936 949 950 971 l 888 875 m 265 453 q 314 247 265 325 l 694 821 q 563 849 636 849 q 344 743 424 849 q 265 453 265 638 m 543 131 q 760 235 681 131 q 839 525 839 340 q 792 731 839 649 l 411 158 q 543 131 469 131 m 661 1074 q 621 1057 643 1057 q 591 1067 603 1057 q 579 1094 579 1078 q 590 1126 579 1111 l 681 1254 q 735 1286 703 1286 q 778 1269 760 1286 q 797 1228 797 1251 q 774 1181 797 1203 l 661 1074 z "},"Õ":{"ha":1082,"x_min":86,"x_max":1019,"o":"m 544 -12 q 301 44 404 -12 q 142 205 197 100 q 86 454 86 310 q 145 737 86 615 q 311 925 204 858 q 561 992 418 992 q 805 935 701 992 q 964 774 908 879 q 1019 525 1019 669 q 960 242 1019 364 q 794 54 901 121 q 544 -12 688 -12 m 543 131 q 760 235 681 131 q 839 525 839 340 q 767 765 839 681 q 563 849 694 849 q 344 743 424 849 q 265 453 265 638 q 338 214 265 297 q 543 131 410 131 m 701 1082 q 654 1090 678 1082 q 594 1115 631 1099 q 546 1137 565 1129 q 508 1144 526 1144 q 474 1136 488 1144 q 447 1111 461 1128 q 428 1093 436 1099 q 408 1088 421 1088 q 374 1131 374 1088 q 391 1190 374 1160 q 440 1241 408 1221 q 513 1261 471 1261 q 561 1252 536 1261 q 619 1226 586 1243 q 668 1205 649 1213 q 706 1197 688 1197 q 740 1206 726 1197 q 767 1231 753 1214 q 785 1249 778 1243 q 806 1254 793 1254 q 840 1213 840 1254 q 823 1153 840 1183 q 774 1102 806 1122 q 701 1082 743 1082 z "},"Ṍ":{"ha":1082,"x_min":86,"x_max":1019,"o":"m 544 -12 q 301 44 404 -12 q 142 205 197 100 q 86 454 86 310 q 145 737 86 615 q 311 925 204 858 q 561 992 418 992 q 805 935 701 992 q 964 774 908 879 q 1019 525 1019 669 q 960 242 1019 364 q 794 54 901 121 q 544 -12 688 -12 m 543 131 q 760 235 681 131 q 839 525 839 340 q 767 765 839 681 q 563 849 694 849 q 344 743 424 849 q 265 453 265 638 q 338 214 265 297 q 543 131 410 131 m 701 1082 q 654 1090 678 1082 q 594 1115 631 1099 q 546 1137 565 1129 q 508 1144 526 1144 q 474 1136 488 1144 q 447 1111 461 1128 q 428 1093 436 1099 q 408 1088 421 1088 q 374 1131 374 1088 q 391 1190 374 1160 q 440 1241 408 1221 q 513 1261 471 1261 q 561 1252 536 1261 q 619 1226 586 1243 q 668 1205 649 1213 q 706 1197 688 1197 q 740 1206 726 1197 q 767 1231 753 1214 q 785 1249 778 1243 q 806 1254 793 1254 q 840 1213 840 1254 q 823 1153 840 1183 q 774 1102 806 1122 q 701 1082 743 1082 m 679 1296 q 639 1279 661 1279 q 609 1290 621 1279 q 597 1317 597 1300 q 608 1349 597 1333 l 699 1476 q 753 1508 721 1508 q 797 1491 778 1508 q 815 1450 815 1474 q 792 1403 815 1425 l 679 1296 z "},"Ṏ":{"ha":1082,"x_min":86,"x_max":1019,"o":"m 544 -12 q 301 44 404 -12 q 142 205 197 100 q 86 454 86 310 q 145 737 86 615 q 311 925 204 858 q 561 992 418 992 q 805 935 701 992 q 964 774 908 879 q 1019 525 1019 669 q 960 242 1019 364 q 794 54 901 121 q 544 -12 688 -12 m 543 131 q 760 235 681 131 q 839 525 839 340 q 767 765 839 681 q 563 849 694 849 q 344 743 424 849 q 265 453 265 638 q 338 214 265 297 q 543 131 410 131 m 701 1082 q 654 1090 678 1082 q 594 1115 631 1099 q 546 1137 565 1129 q 508 1144 526 1144 q 474 1136 488 1144 q 447 1111 461 1128 q 428 1093 436 1099 q 408 1088 421 1088 q 374 1131 374 1088 q 391 1190 374 1160 q 440 1241 408 1221 q 513 1261 471 1261 q 561 1252 536 1261 q 619 1226 586 1243 q 668 1205 649 1213 q 706 1197 688 1197 q 740 1206 726 1197 q 767 1231 753 1214 q 785 1249 778 1243 q 806 1254 793 1254 q 840 1213 840 1254 q 823 1153 840 1183 q 774 1102 806 1122 q 701 1082 743 1082 m 497 1306 q 432 1330 457 1306 q 407 1393 407 1354 q 432 1456 407 1432 q 497 1479 457 1479 q 563 1456 538 1479 q 589 1393 589 1432 q 563 1330 589 1354 q 497 1306 538 1306 m 753 1306 q 688 1330 713 1306 q 663 1393 663 1354 q 688 1456 663 1432 q 753 1479 713 1479 q 817 1456 792 1479 q 843 1393 843 1432 q 818 1330 843 1354 q 753 1306 793 1306 z "},"Ȭ":{"ha":1082,"x_min":86,"x_max":1019,"o":"m 544 -12 q 301 44 404 -12 q 142 205 197 100 q 86 454 86 310 q 145 737 86 615 q 311 925 204 858 q 561 992 418 992 q 805 935 701 992 q 964 774 908 879 q 1019 525 1019 669 q 960 242 1019 364 q 794 54 901 121 q 544 -12 688 -12 m 543 131 q 760 235 681 131 q 839 525 839 340 q 767 765 839 681 q 563 849 694 849 q 344 743 424 849 q 265 453 265 638 q 338 214 265 297 q 543 131 410 131 m 701 1082 q 654 1090 678 1082 q 594 1115 631 1099 q 546 1137 565 1129 q 508 1144 526 1144 q 474 1136 488 1144 q 447 1111 461 1128 q 428 1093 436 1099 q 408 1088 421 1088 q 374 1131 374 1088 q 391 1190 374 1160 q 440 1241 408 1221 q 513 1261 471 1261 q 561 1252 536 1261 q 619 1226 586 1243 q 668 1205 649 1213 q 706 1197 688 1197 q 740 1206 726 1197 q 767 1231 753 1214 q 785 1249 778 1243 q 806 1254 793 1254 q 840 1213 840 1254 q 823 1153 840 1183 q 774 1102 806 1122 q 701 1082 743 1082 m 453 1336 q 410 1351 426 1336 q 394 1389 394 1365 q 413 1433 394 1418 q 461 1449 432 1449 l 797 1449 q 840 1434 825 1449 q 856 1393 856 1419 q 837 1351 856 1365 q 789 1336 818 1336 l 453 1336 z "},"Œ":{"ha":1451,"x_min":86,"x_max":1456,"o":"m 953 838 l 932 568 l 1317 568 q 1374 550 1354 568 q 1394 501 1394 532 q 1307 428 1394 428 l 919 428 l 897 142 l 1311 142 q 1369 123 1349 142 q 1389 74 1389 104 q 1301 0 1389 0 l 557 0 q 304 54 410 0 q 142 211 199 108 q 86 454 86 314 q 147 737 86 619 q 326 917 208 854 q 608 979 443 979 l 1376 979 q 1435 961 1415 979 q 1456 913 1456 943 q 1367 838 1456 838 l 953 838 m 779 838 l 622 838 q 355 740 444 838 q 265 453 265 643 q 344 222 265 301 q 576 142 424 142 l 724 142 l 779 838 z "},"P":{"ha":917,"x_min":83,"x_max":893,"o":"m 571 979 q 809 904 725 979 q 893 699 893 829 q 801 463 893 544 q 540 381 710 381 l 288 381 l 264 81 q 235 16 261 40 q 168 -8 210 -8 q 106 16 128 -8 q 86 82 83 40 l 150 896 q 176 957 153 935 q 240 979 200 979 l 571 979 m 525 518 q 724 690 724 518 q 550 840 724 840 l 324 840 l 299 518 l 525 518 z "},"Þ":{"ha":917,"x_min":83,"x_max":879,"o":"m 576 775 q 799 707 719 775 q 879 514 879 639 q 794 296 879 372 q 549 219 708 219 l 272 219 l 261 81 q 233 16 258 40 q 168 -8 207 -8 q 106 16 128 -8 q 86 82 83 40 l 151 899 q 179 963 154 939 q 244 986 204 986 q 307 962 285 986 q 326 897 329 938 l 317 775 l 576 775 m 535 358 q 710 506 710 358 q 672 604 710 572 q 557 636 633 636 l 306 636 l 283 358 l 535 358 z "},"Q":{"ha":1082,"x_min":86,"x_max":1019,"o":"m 868 -136 q 881 -181 881 -160 q 853 -235 881 -214 q 792 -257 826 -257 q 747 -246 768 -257 q 713 -211 725 -235 l 640 -76 q 518 -11 610 -15 q 290 49 388 -8 q 139 210 192 106 q 86 454 86 314 q 145 737 86 615 q 311 925 204 858 q 561 992 418 992 q 806 936 703 992 q 965 775 910 881 q 1019 525 1019 669 q 947 214 1019 344 q 740 26 874 83 q 828 -60 792 7 l 868 -136 m 543 131 q 760 235 682 131 q 839 525 839 340 q 767 765 839 681 q 563 849 694 849 q 344 743 424 849 q 265 453 265 638 q 338 214 265 297 q 543 131 410 131 z "},"R":{"ha":965,"x_min":83,"x_max":908,"o":"m 854 107 q 864 69 864 89 q 836 13 864 36 q 772 -11 808 -11 q 727 1 749 -11 q 693 40 706 14 l 556 313 q 503 375 533 357 q 421 393 472 393 l 286 393 l 263 81 q 234 16 260 40 q 168 -8 208 -8 q 106 16 128 -8 q 86 82 83 40 l 150 894 q 177 957 153 935 q 242 979 201 979 l 592 979 q 826 907 743 979 q 908 706 908 835 q 644 407 908 446 q 704 373 679 397 q 751 304 729 349 l 854 107 m 547 531 q 740 696 740 531 q 699 805 740 769 q 571 840 657 840 l 321 840 l 297 531 l 547 531 z "},"Ŕ":{"ha":965,"x_min":86,"x_max":908,"o":"m 854 107 q 864 69 864 89 q 836 13 864 36 q 772 -11 808 -11 q 727 1 749 -11 q 693 40 706 14 l 556 313 q 503 375 533 357 q 421 393 472 393 l 286 393 l 263 81 q 234 16 260 40 q 168 -8 208 -8 q 106 16 128 -8 q 86 82 83 40 l 150 894 q 177 957 153 935 q 242 979 201 979 l 592 979 q 826 907 743 979 q 908 706 908 835 q 644 407 908 446 q 704 373 679 397 q 751 304 729 349 l 854 107 m 547 531 q 740 696 740 531 q 699 805 740 769 q 571 840 657 840 l 321 840 l 297 531 l 547 531 m 604 1074 q 564 1057 586 1057 q 534 1067 546 1057 q 522 1094 522 1078 q 533 1126 522 1111 l 624 1254 q 678 1286 646 1286 q 722 1269 703 1286 q 740 1228 740 1251 q 717 1181 740 1203 l 604 1074 z "},"Ř":{"ha":965,"x_min":86,"x_max":908,"o":"m 854 107 q 864 69 864 89 q 836 13 864 36 q 772 -11 808 -11 q 727 1 749 -11 q 693 40 706 14 l 556 313 q 503 375 533 357 q 421 393 472 393 l 286 393 l 263 81 q 234 16 260 40 q 168 -8 208 -8 q 106 16 128 -8 q 86 82 83 40 l 150 894 q 177 957 153 935 q 242 979 201 979 l 592 979 q 826 907 743 979 q 908 706 908 835 q 644 407 908 446 q 704 373 679 397 q 751 304 729 349 l 854 107 m 547 531 q 740 696 740 531 q 699 805 740 769 q 571 840 657 840 l 321 840 l 297 531 l 547 531 m 631 1254 q 686 1283 654 1283 q 722 1270 707 1283 q 736 1239 736 1257 q 718 1200 736 1219 l 610 1082 q 540 1053 582 1053 q 474 1082 497 1053 l 386 1199 q 374 1233 374 1215 q 390 1269 374 1254 q 429 1283 407 1283 q 481 1251 461 1283 l 543 1149 l 631 1254 z "},"Ŗ":{"ha":965,"x_min":86,"x_max":908,"o":"m 854 107 q 864 69 864 89 q 836 13 864 36 q 772 -11 808 -11 q 727 1 749 -11 q 693 40 706 14 l 556 313 q 503 375 533 357 q 421 393 472 393 l 286 393 l 263 81 q 234 16 260 40 q 168 -8 208 -8 q 106 16 128 -8 q 86 82 83 40 l 150 894 q 177 957 153 935 q 242 979 201 979 l 592 979 q 826 907 743 979 q 908 706 908 835 q 644 407 908 446 q 704 373 679 397 q 751 304 729 349 l 854 107 m 547 531 q 740 696 740 531 q 699 805 740 769 q 571 840 657 840 l 321 840 l 297 531 l 547 531 m 443 -87 q 517 -115 490 -87 q 543 -186 543 -142 q 525 -274 543 -232 q 476 -349 507 -315 q 429 -371 456 -371 q 401 -362 413 -371 q 389 -339 389 -353 q 400 -311 389 -324 q 439 -244 428 -279 l 433 -244 q 377 -226 400 -244 q 354 -172 354 -207 q 381 -112 354 -136 q 443 -87 407 -87 z "},"Ȑ":{"ha":965,"x_min":86,"x_max":908,"o":"m 854 107 q 864 69 864 89 q 836 13 864 36 q 772 -11 808 -11 q 727 1 749 -11 q 693 40 706 14 l 556 313 q 503 375 533 357 q 421 393 472 393 l 286 393 l 263 81 q 234 16 260 40 q 168 -8 208 -8 q 106 16 128 -8 q 86 82 83 40 l 150 894 q 177 957 153 935 q 242 979 201 979 l 592 979 q 826 907 743 979 q 908 706 908 835 q 644 407 908 446 q 704 373 679 397 q 751 304 729 349 l 854 107 m 547 531 q 740 696 740 531 q 699 805 740 769 q 571 840 657 840 l 321 840 l 297 531 l 547 531 m 326 1203 q 317 1233 317 1218 q 333 1269 317 1254 q 369 1285 349 1285 q 419 1246 404 1285 l 471 1113 q 474 1096 474 1107 q 463 1068 474 1079 q 436 1057 451 1057 q 400 1079 414 1057 l 326 1203 m 508 1203 q 499 1233 499 1218 q 515 1269 499 1254 q 553 1285 532 1285 q 603 1246 588 1285 l 654 1113 q 657 1096 657 1107 q 646 1068 657 1079 q 619 1057 635 1057 q 583 1079 597 1057 l 508 1203 z "},"Ṛ":{"ha":965,"x_min":86,"x_max":908,"o":"m 854 107 q 864 69 864 89 q 836 13 864 36 q 772 -11 808 -11 q 727 1 749 -11 q 693 40 706 14 l 556 313 q 503 375 533 357 q 421 393 472 393 l 286 393 l 263 81 q 234 16 260 40 q 168 -8 208 -8 q 106 16 128 -8 q 86 82 83 40 l 150 894 q 177 957 153 935 q 242 979 201 979 l 592 979 q 826 907 743 979 q 908 706 908 835 q 644 407 908 446 q 704 373 679 397 q 751 304 729 349 l 854 107 m 547 531 q 740 696 740 531 q 699 805 740 769 q 571 840 657 840 l 321 840 l 297 531 l 547 531 m 443 -275 q 377 -251 403 -275 q 351 -186 351 -226 q 376 -124 351 -147 q 443 -100 401 -100 q 509 -124 483 -100 q 535 -186 535 -147 q 509 -251 535 -226 q 443 -275 483 -275 z "},"Ȓ":{"ha":965,"x_min":86,"x_max":908,"o":"m 854 107 q 864 69 864 89 q 836 13 864 36 q 772 -11 808 -11 q 727 1 749 -11 q 693 40 706 14 l 556 313 q 503 375 533 357 q 421 393 472 393 l 286 393 l 263 81 q 234 16 260 40 q 168 -8 208 -8 q 106 16 128 -8 q 86 82 83 40 l 150 894 q 177 957 153 935 q 242 979 201 979 l 592 979 q 826 907 743 979 q 908 706 908 835 q 644 407 908 446 q 704 373 679 397 q 751 304 729 349 l 854 107 m 547 531 q 740 696 740 531 q 699 805 740 769 q 571 840 657 840 l 321 840 l 297 531 l 547 531 m 550 1264 q 681 1235 625 1264 q 765 1154 736 1207 q 775 1122 775 1139 q 761 1090 775 1103 q 726 1078 747 1078 q 679 1100 700 1078 q 546 1157 633 1157 q 408 1100 461 1157 q 358 1078 386 1078 q 328 1089 340 1078 q 315 1118 315 1100 q 328 1154 315 1133 q 420 1235 363 1206 q 550 1264 478 1264 z "},"Ṟ":{"ha":965,"x_min":86,"x_max":908,"o":"m 854 107 q 864 69 864 89 q 836 13 864 36 q 772 -11 808 -11 q 727 1 749 -11 q 693 40 706 14 l 556 313 q 503 375 533 357 q 421 393 472 393 l 286 393 l 263 81 q 234 16 260 40 q 168 -8 208 -8 q 106 16 128 -8 q 86 82 83 40 l 150 894 q 177 957 153 935 q 242 979 201 979 l 592 979 q 826 907 743 979 q 908 706 908 835 q 644 407 908 446 q 704 373 679 397 q 751 304 729 349 l 854 107 m 547 531 q 740 696 740 531 q 699 805 740 769 q 571 840 657 840 l 321 840 l 297 531 l 547 531 m 271 -242 q 228 -227 244 -242 q 213 -190 213 -212 q 231 -149 213 -164 q 279 -135 250 -135 l 615 -135 q 658 -149 642 -135 q 674 -185 674 -162 q 656 -226 674 -211 q 608 -242 638 -242 l 271 -242 z "},"S":{"ha":886,"x_min":39,"x_max":858,"o":"m 429 -12 q 229 13 318 -12 q 79 81 140 38 q 39 154 39 108 q 56 205 39 183 q 101 226 74 226 q 147 211 121 226 q 274 151 201 172 q 435 129 347 129 q 590 163 536 129 q 643 260 643 197 q 615 327 643 300 q 543 372 586 354 q 426 410 500 389 q 260 467 325 439 q 150 551 196 496 q 104 697 104 607 q 152 853 104 786 q 289 956 200 919 q 496 992 378 992 q 685 964 597 992 q 828 889 772 936 q 858 828 858 864 q 840 777 858 799 q 792 756 821 756 q 739 774 767 756 q 628 828 693 807 q 492 850 563 850 q 337 813 392 850 q 282 711 282 776 q 312 639 282 668 q 385 593 342 610 q 507 553 428 576 q 671 497 608 524 q 778 416 733 469 q 822 278 822 363 q 718 65 822 142 q 429 -12 614 -12 z "},"Ś":{"ha":886,"x_min":39,"x_max":858,"o":"m 429 -12 q 229 13 318 -12 q 79 81 140 38 q 39 154 39 108 q 56 205 39 183 q 101 226 74 226 q 147 211 121 226 q 274 151 201 172 q 435 129 347 129 q 590 163 536 129 q 643 260 643 197 q 615 327 643 300 q 543 372 586 354 q 426 410 500 389 q 260 467 325 439 q 150 551 196 496 q 104 697 104 607 q 152 853 104 786 q 289 956 200 919 q 496 992 378 992 q 685 964 597 992 q 828 889 772 936 q 858 828 858 864 q 840 777 858 799 q 792 756 821 756 q 739 774 767 756 q 628 828 693 807 q 492 850 563 850 q 337 813 392 850 q 282 711 282 776 q 312 639 282 668 q 385 593 342 610 q 507 553 428 576 q 671 497 608 524 q 778 416 733 469 q 822 278 822 363 q 718 65 822 142 q 429 -12 614 -12 m 567 1074 q 526 1057 549 1057 q 497 1067 508 1057 q 485 1094 485 1078 q 496 1126 485 1111 l 586 1254 q 640 1286 608 1286 q 684 1269 665 1286 q 703 1228 703 1251 q 679 1181 703 1203 l 567 1074 z "},"Ṥ":{"ha":886,"x_min":39,"x_max":858,"o":"m 429 -12 q 229 13 318 -12 q 79 81 140 38 q 39 154 39 108 q 56 205 39 183 q 101 226 74 226 q 147 211 121 226 q 274 151 201 172 q 435 129 347 129 q 590 163 536 129 q 643 260 643 197 q 615 327 643 300 q 543 372 586 354 q 426 410 500 389 q 260 467 325 439 q 150 551 196 496 q 104 697 104 607 q 152 853 104 786 q 289 956 200 919 q 496 992 378 992 q 685 964 597 992 q 828 889 772 936 q 858 828 858 864 q 840 777 858 799 q 792 756 821 756 q 739 774 767 756 q 628 828 693 807 q 492 850 563 850 q 337 813 392 850 q 282 711 282 776 q 312 639 282 668 q 385 593 342 610 q 507 553 428 576 q 671 497 608 524 q 778 416 733 469 q 822 278 822 363 q 718 65 822 142 q 429 -12 614 -12 m 593 1074 q 553 1057 575 1057 q 523 1067 535 1057 q 511 1094 511 1078 q 522 1126 511 1111 l 613 1254 q 667 1286 635 1286 q 710 1269 692 1286 q 729 1228 729 1251 q 706 1181 729 1203 l 593 1074 m 349 1097 q 274 1123 301 1097 q 246 1190 246 1149 q 274 1257 246 1232 q 349 1282 301 1282 q 423 1257 394 1282 q 451 1190 451 1232 q 424 1123 451 1149 q 349 1097 396 1097 z "},"Š":{"ha":886,"x_min":39,"x_max":858,"o":"m 429 -12 q 229 13 318 -12 q 79 81 140 38 q 39 154 39 108 q 56 205 39 183 q 101 226 74 226 q 147 211 121 226 q 274 151 201 172 q 435 129 347 129 q 590 163 536 129 q 643 260 643 197 q 615 327 643 300 q 543 372 586 354 q 426 410 500 389 q 260 467 325 439 q 150 551 196 496 q 104 697 104 607 q 152 853 104 786 q 289 956 200 919 q 496 992 378 992 q 685 964 597 992 q 828 889 772 936 q 858 828 858 864 q 840 777 858 799 q 792 756 821 756 q 739 774 767 756 q 628 828 693 807 q 492 850 563 850 q 337 813 392 850 q 282 711 282 776 q 312 639 282 668 q 385 593 342 610 q 507 553 428 576 q 671 497 608 524 q 778 416 733 469 q 822 278 822 363 q 718 65 822 142 q 429 -12 614 -12 m 593 1254 q 649 1283 617 1283 q 684 1270 669 1283 q 699 1239 699 1257 q 681 1200 699 1219 l 572 1082 q 503 1053 544 1053 q 436 1082 460 1053 l 349 1199 q 336 1233 336 1215 q 353 1269 336 1254 q 392 1283 369 1283 q 443 1251 424 1283 l 506 1149 l 593 1254 z "},"Ṧ":{"ha":886,"x_min":39,"x_max":858,"o":"m 429 -12 q 229 13 318 -12 q 79 81 140 38 q 39 154 39 108 q 56 205 39 183 q 101 226 74 226 q 147 211 121 226 q 274 151 201 172 q 435 129 347 129 q 590 163 536 129 q 643 260 643 197 q 615 327 643 300 q 543 372 586 354 q 426 410 500 389 q 260 467 325 439 q 150 551 196 496 q 104 697 104 607 q 152 853 104 786 q 289 956 200 919 q 496 992 378 992 q 685 964 597 992 q 828 889 772 936 q 858 828 858 864 q 840 777 858 799 q 792 756 821 756 q 739 774 767 756 q 628 828 693 807 q 492 850 563 850 q 337 813 392 850 q 282 711 282 776 q 312 639 282 668 q 385 593 342 610 q 507 553 428 576 q 671 497 608 524 q 778 416 733 469 q 822 278 822 363 q 718 65 822 142 q 429 -12 614 -12 m 593 1254 q 649 1283 617 1283 q 684 1270 669 1283 q 699 1239 699 1257 q 681 1200 699 1219 l 572 1082 q 503 1053 544 1053 q 436 1082 460 1053 l 349 1199 q 336 1233 336 1215 q 353 1269 336 1254 q 392 1283 369 1283 q 443 1251 424 1283 l 506 1149 l 593 1254 m 531 1300 q 456 1326 483 1300 q 428 1393 428 1351 q 456 1460 428 1435 q 531 1485 483 1485 q 605 1460 576 1485 q 633 1393 633 1435 q 606 1326 633 1351 q 531 1300 578 1300 z "},"Ş":{"ha":886,"x_min":39,"x_max":858,"o":"m 492 850 q 337 813 392 850 q 282 711 282 776 q 312 639 282 668 q 385 593 342 610 q 507 553 428 576 q 671 497 608 524 q 778 416 733 469 q 822 278 822 363 q 724 69 822 146 q 453 -12 626 -7 l 443 -57 q 460 -56 449 -56 q 540 -81 511 -56 q 569 -150 569 -106 q 521 -238 569 -206 q 392 -271 472 -271 q 290 -257 332 -271 q 271 -243 278 -253 q 264 -221 264 -233 q 277 -188 264 -201 q 310 -181 290 -175 q 386 -193 349 -193 q 458 -151 458 -193 q 415 -121 458 -121 q 383 -126 400 -121 q 360 -131 365 -131 q 339 -122 346 -131 q 335 -103 332 -114 l 354 -10 q 79 81 182 7 q 39 154 39 108 q 56 205 39 183 q 101 226 74 226 q 147 211 121 226 q 274 151 201 172 q 435 129 347 129 q 590 163 536 129 q 643 260 643 197 q 615 327 643 300 q 543 372 586 354 q 426 410 500 389 q 260 467 325 439 q 150 551 196 496 q 104 697 104 607 q 152 853 104 786 q 289 956 200 919 q 496 992 378 992 q 685 964 597 992 q 828 889 772 936 q 858 828 858 864 q 840 777 858 799 q 792 756 821 756 q 739 774 767 756 q 628 828 693 807 q 492 850 563 850 z "},"Ŝ":{"ha":886,"x_min":39,"x_max":858,"o":"m 429 -12 q 229 13 318 -12 q 79 81 140 38 q 39 154 39 108 q 56 205 39 183 q 101 226 74 226 q 147 211 121 226 q 274 151 201 172 q 435 129 347 129 q 590 163 536 129 q 643 260 643 197 q 615 327 643 300 q 543 372 586 354 q 426 410 500 389 q 260 467 325 439 q 150 551 196 496 q 104 697 104 607 q 152 853 104 786 q 289 956 200 919 q 496 992 378 992 q 685 964 597 992 q 828 889 772 936 q 858 828 858 864 q 840 777 858 799 q 792 756 821 756 q 739 774 767 756 q 628 828 693 807 q 492 850 563 850 q 337 813 392 850 q 282 711 282 776 q 312 639 282 668 q 385 593 342 610 q 507 553 428 576 q 671 497 608 524 q 778 416 733 469 q 822 278 822 363 q 718 65 822 142 q 429 -12 614 -12 m 429 1085 q 374 1056 406 1056 q 338 1069 353 1056 q 324 1100 324 1082 q 342 1139 324 1119 l 450 1257 q 522 1285 476 1285 q 586 1257 567 1285 l 675 1140 q 688 1107 688 1124 q 671 1072 688 1086 q 632 1057 654 1057 q 579 1089 599 1057 l 517 1190 l 429 1085 z "},"Ș":{"ha":886,"x_min":39,"x_max":858,"o":"m 429 -12 q 229 13 318 -12 q 79 81 140 38 q 39 154 39 108 q 56 205 39 183 q 101 226 74 226 q 147 211 121 226 q 274 151 201 172 q 435 129 347 129 q 590 163 536 129 q 643 260 643 197 q 615 327 643 300 q 543 372 586 354 q 426 410 500 389 q 260 467 325 439 q 150 551 196 496 q 104 697 104 607 q 152 853 104 786 q 289 956 200 919 q 496 992 378 992 q 685 964 597 992 q 828 889 772 936 q 858 828 858 864 q 840 777 858 799 q 792 756 821 756 q 739 774 767 756 q 628 828 693 807 q 492 850 563 850 q 337 813 392 850 q 282 711 282 776 q 312 639 282 668 q 385 593 342 610 q 507 553 428 576 q 671 497 608 524 q 778 416 733 469 q 822 278 822 363 q 718 65 822 142 q 429 -12 614 -12 m 403 -87 q 476 -115 450 -87 q 503 -186 503 -142 q 485 -274 503 -232 q 436 -349 467 -315 q 389 -371 415 -371 q 360 -362 372 -371 q 349 -339 349 -353 q 360 -311 349 -324 q 399 -244 388 -279 l 393 -244 q 337 -226 360 -244 q 314 -172 314 -207 q 340 -112 314 -136 q 403 -87 367 -87 z "},"Ṡ":{"ha":886,"x_min":39,"x_max":858,"o":"m 429 -12 q 229 13 318 -12 q 79 81 140 38 q 39 154 39 108 q 56 205 39 183 q 101 226 74 226 q 147 211 121 226 q 274 151 201 172 q 435 129 347 129 q 590 163 536 129 q 643 260 643 197 q 615 327 643 300 q 543 372 586 354 q 426 410 500 389 q 260 467 325 439 q 150 551 196 496 q 104 697 104 607 q 152 853 104 786 q 289 956 200 919 q 496 992 378 992 q 685 964 597 992 q 828 889 772 936 q 858 828 858 864 q 840 777 858 799 q 792 756 821 756 q 739 774 767 756 q 628 828 693 807 q 492 850 563 850 q 337 813 392 850 q 282 711 282 776 q 312 639 282 668 q 385 593 342 610 q 507 553 428 576 q 671 497 608 524 q 778 416 733 469 q 822 278 822 363 q 718 65 822 142 q 429 -12 614 -12 m 513 1078 q 438 1103 465 1078 q 410 1171 410 1129 q 438 1238 410 1213 q 513 1263 465 1263 q 587 1238 558 1263 q 615 1171 615 1213 q 588 1103 615 1129 q 513 1078 560 1078 z "},"Ṣ":{"ha":886,"x_min":39,"x_max":858,"o":"m 429 -12 q 229 13 318 -12 q 79 81 140 38 q 39 154 39 108 q 56 205 39 183 q 101 226 74 226 q 147 211 121 226 q 274 151 201 172 q 435 129 347 129 q 590 163 536 129 q 643 260 643 197 q 615 327 643 300 q 543 372 586 354 q 426 410 500 389 q 260 467 325 439 q 150 551 196 496 q 104 697 104 607 q 152 853 104 786 q 289 956 200 919 q 496 992 378 992 q 685 964 597 992 q 828 889 772 936 q 858 828 858 864 q 840 777 858 799 q 792 756 821 756 q 739 774 767 756 q 628 828 693 807 q 492 850 563 850 q 337 813 392 850 q 282 711 282 776 q 312 639 282 668 q 385 593 342 610 q 507 553 428 576 q 671 497 608 524 q 778 416 733 469 q 822 278 822 363 q 718 65 822 142 q 429 -12 614 -12 m 403 -275 q 337 -251 363 -275 q 311 -186 311 -226 q 336 -124 311 -147 q 403 -100 361 -100 q 469 -124 443 -100 q 494 -186 494 -147 q 469 -251 494 -226 q 403 -275 443 -275 z "},"Ṩ":{"ha":886,"x_min":39,"x_max":858,"o":"m 429 -12 q 229 13 318 -12 q 79 81 140 38 q 39 154 39 108 q 56 205 39 183 q 101 226 74 226 q 147 211 121 226 q 274 151 201 172 q 435 129 347 129 q 590 163 536 129 q 643 260 643 197 q 615 327 643 300 q 543 372 586 354 q 426 410 500 389 q 260 467 325 439 q 150 551 196 496 q 104 697 104 607 q 152 853 104 786 q 289 956 200 919 q 496 992 378 992 q 685 964 597 992 q 828 889 772 936 q 858 828 858 864 q 840 777 858 799 q 792 756 821 756 q 739 774 767 756 q 628 828 693 807 q 492 850 563 850 q 337 813 392 850 q 282 711 282 776 q 312 639 282 668 q 385 593 342 610 q 507 553 428 576 q 671 497 608 524 q 778 416 733 469 q 822 278 822 363 q 718 65 822 142 q 429 -12 614 -12 m 403 -275 q 337 -251 363 -275 q 311 -186 311 -226 q 336 -124 311 -147 q 403 -100 361 -100 q 469 -124 443 -100 q 494 -186 494 -147 q 469 -251 494 -226 q 403 -275 443 -275 m 513 1078 q 438 1103 465 1078 q 410 1171 410 1129 q 438 1238 410 1213 q 513 1263 465 1263 q 587 1238 558 1263 q 615 1171 615 1213 q 588 1103 615 1129 q 513 1078 560 1078 z "},"ẞ":{"ha":975,"x_min":82,"x_max":908,"o":"m 724 510 q 860 431 813 490 q 908 282 908 372 q 867 133 908 199 q 752 29 826 67 q 583 -8 678 -8 q 358 57 444 -8 q 326 119 326 81 q 344 167 326 147 q 392 188 363 188 q 438 175 413 188 q 506 140 474 153 q 578 128 539 128 q 696 169 654 128 q 738 286 738 210 q 692 392 738 358 q 546 425 646 425 l 450 425 q 399 444 417 425 q 381 490 381 463 q 401 544 381 521 q 458 567 422 567 l 535 567 q 658 606 615 567 q 701 717 701 644 q 656 812 701 776 q 533 847 610 847 q 369 794 425 847 q 304 633 313 742 l 261 79 q 231 15 258 39 q 165 -10 204 -10 q 103 15 125 -10 q 85 79 82 39 l 129 633 q 249 897 143 806 q 542 989 356 989 q 783 919 694 989 q 872 732 872 849 q 834 595 872 653 q 724 510 796 538 z "},"Ə":{"ha":1053,"x_min":85,"x_max":990,"o":"m 543 992 q 781 933 681 992 q 936 769 882 875 q 990 525 990 664 q 931 242 990 364 q 765 53 872 119 q 517 -12 658 -12 q 278 44 375 -12 q 133 200 181 101 q 85 422 85 299 q 88 489 85 444 q 111 545 90 525 q 167 565 132 565 l 810 565 q 726 774 800 701 q 524 846 653 846 q 274 772 385 846 q 215 751 238 751 q 176 769 190 751 q 163 813 163 786 q 172 853 163 833 q 200 888 182 874 q 353 965 264 938 q 543 992 442 992 m 514 131 q 709 208 633 131 q 804 426 785 286 l 261 426 q 322 208 256 285 q 514 131 389 131 z "},"T":{"ha":851,"x_min":46,"x_max":897,"o":"m 400 -7 q 337 17 360 -7 q 317 82 314 42 l 376 832 l 125 832 q 66 849 86 832 q 46 900 46 867 q 135 979 46 979 l 818 979 q 877 961 857 979 q 897 910 897 943 q 808 832 897 832 l 556 832 l 496 81 q 467 17 493 40 q 400 -7 440 -7 z "},"Ŧ":{"ha":851,"x_min":46,"x_max":897,"o":"m 818 979 q 877 961 857 979 q 897 910 897 943 q 808 832 897 832 l 556 832 l 535 564 l 661 564 q 717 546 697 564 q 736 499 736 528 q 714 445 736 464 q 653 426 692 426 l 524 426 l 496 81 q 467 17 493 40 q 400 -7 440 -7 q 337 17 360 -7 q 317 82 314 42 l 344 426 l 215 426 q 160 444 179 426 q 140 493 140 463 q 163 546 140 528 q 225 564 185 564 l 356 564 l 376 832 l 125 832 q 66 849 86 832 q 46 900 46 867 q 135 979 46 979 l 818 979 z "},"Ť":{"ha":851,"x_min":46,"x_max":897,"o":"m 400 -7 q 337 17 360 -7 q 317 82 314 42 l 376 832 l 125 832 q 66 849 86 832 q 46 900 46 867 q 135 979 46 979 l 818 979 q 877 961 857 979 q 897 910 897 943 q 808 832 897 832 l 556 832 l 496 81 q 467 17 493 40 q 400 -7 440 -7 m 574 1254 q 629 1283 597 1283 q 665 1270 650 1283 q 679 1239 679 1257 q 661 1200 679 1219 l 553 1082 q 483 1053 525 1053 q 417 1082 440 1053 l 329 1199 q 317 1233 317 1215 q 333 1269 317 1254 q 372 1283 350 1283 q 424 1251 404 1283 l 486 1149 l 574 1254 z "},"Ţ":{"ha":851,"x_min":46,"x_max":897,"o":"m 818 979 q 877 961 857 979 q 897 910 897 943 q 808 832 897 832 l 556 832 l 496 81 q 478 30 494 51 q 438 -1 463 8 l 425 -57 q 442 -56 431 -56 q 522 -81 493 -56 q 551 -150 551 -106 q 503 -238 551 -206 q 374 -271 454 -271 q 272 -257 314 -271 q 253 -243 260 -253 q 246 -221 246 -233 q 259 -188 246 -201 q 292 -181 272 -175 q 368 -193 331 -193 q 440 -151 440 -193 q 397 -121 440 -121 q 365 -126 382 -121 q 342 -131 347 -131 q 321 -122 328 -131 q 317 -103 314 -114 l 340 14 q 317 82 313 39 l 376 832 l 125 832 q 66 849 86 832 q 46 900 46 867 q 135 979 46 979 l 818 979 z "},"Ț":{"ha":851,"x_min":46,"x_max":897,"o":"m 400 -7 q 337 17 360 -7 q 317 82 314 42 l 376 832 l 125 832 q 66 849 86 832 q 46 900 46 867 q 135 979 46 979 l 818 979 q 877 961 857 979 q 897 910 897 943 q 808 832 897 832 l 556 832 l 496 81 q 467 17 493 40 q 400 -7 440 -7 m 385 -87 q 458 -115 432 -87 q 485 -186 485 -142 q 467 -274 485 -232 q 418 -349 449 -315 q 371 -371 397 -371 q 342 -362 354 -371 q 331 -339 331 -353 q 342 -311 331 -324 q 381 -244 369 -279 l 375 -244 q 319 -226 342 -244 q 296 -172 296 -207 q 322 -112 296 -136 q 385 -87 349 -87 z "},"Ṭ":{"ha":851,"x_min":46,"x_max":897,"o":"m 400 -7 q 337 17 360 -7 q 317 82 314 42 l 376 832 l 125 832 q 66 849 86 832 q 46 900 46 867 q 135 979 46 979 l 818 979 q 877 961 857 979 q 897 910 897 943 q 808 832 897 832 l 556 832 l 496 81 q 467 17 493 40 q 400 -7 440 -7 m 385 -275 q 319 -251 344 -275 q 293 -186 293 -226 q 318 -124 293 -147 q 385 -100 343 -100 q 451 -124 425 -100 q 476 -186 476 -147 q 451 -251 476 -226 q 385 -275 425 -275 z "},"Ṯ":{"ha":851,"x_min":46,"x_max":897,"o":"m 400 -7 q 337 17 360 -7 q 317 82 314 42 l 376 832 l 125 832 q 66 849 86 832 q 46 900 46 867 q 135 979 46 979 l 818 979 q 877 961 857 979 q 897 910 897 943 q 808 832 897 832 l 556 832 l 496 81 q 467 17 493 40 q 400 -7 440 -7 m 213 -242 q 170 -227 186 -242 q 154 -190 154 -212 q 173 -149 154 -164 q 221 -135 192 -135 l 557 -135 q 599 -149 583 -135 q 615 -185 615 -162 q 597 -226 615 -211 q 550 -242 579 -242 l 213 -242 z "},"U":{"ha":1018,"x_min":101,"x_max":965,"o":"m 497 -12 q 201 80 301 -12 q 101 351 101 172 q 104 406 101 369 l 144 899 q 173 963 147 939 q 238 986 199 986 q 300 962 278 986 q 319 897 322 938 l 281 403 q 279 358 279 388 q 335 187 279 243 q 506 131 390 131 q 675 190 614 131 q 746 379 736 249 l 786 899 q 816 963 790 939 q 881 986 842 986 q 943 962 921 986 q 963 897 965 938 l 922 393 q 799 90 906 192 q 497 -12 692 -12 z "},"Ú":{"ha":1018,"x_min":101,"x_max":963,"o":"m 497 -12 q 201 80 301 -12 q 101 351 101 172 q 104 406 101 369 l 144 899 q 173 963 147 939 q 238 986 199 986 q 300 962 278 986 q 319 897 322 938 l 281 403 q 279 358 279 388 q 335 187 279 243 q 506 131 390 131 q 675 190 614 131 q 746 379 736 249 l 786 899 q 816 963 790 939 q 881 986 842 986 q 943 962 921 986 q 963 897 965 938 l 922 393 q 799 90 906 192 q 497 -12 692 -12 m 631 1074 q 590 1057 613 1057 q 560 1067 572 1057 q 549 1094 549 1078 q 560 1126 549 1111 l 650 1254 q 704 1286 672 1286 q 748 1269 729 1286 q 767 1228 767 1251 q 743 1181 767 1203 l 631 1074 z "},"Ŭ":{"ha":1018,"x_min":101,"x_max":963,"o":"m 497 -12 q 201 80 301 -12 q 101 351 101 172 q 104 406 101 369 l 144 899 q 173 963 147 939 q 238 986 199 986 q 300 962 278 986 q 319 897 322 938 l 281 403 q 279 358 279 388 q 335 187 279 243 q 506 131 390 131 q 675 190 614 131 q 746 379 736 249 l 786 899 q 816 963 790 939 q 881 986 842 986 q 943 962 921 986 q 963 897 965 938 l 922 393 q 799 90 906 192 q 497 -12 692 -12 m 574 1076 q 443 1106 499 1076 q 358 1186 388 1135 q 349 1217 349 1201 q 364 1250 349 1238 q 400 1263 379 1263 q 446 1242 426 1263 q 578 1185 489 1185 q 715 1242 664 1185 q 765 1264 738 1264 q 796 1253 783 1264 q 808 1224 808 1242 q 796 1186 808 1207 q 703 1106 761 1135 q 574 1076 646 1076 z "},"Û":{"ha":1018,"x_min":101,"x_max":963,"o":"m 497 -12 q 201 80 301 -12 q 101 351 101 172 q 104 406 101 369 l 144 899 q 173 963 147 939 q 238 986 199 986 q 300 962 278 986 q 319 897 322 938 l 281 403 q 279 358 279 388 q 335 187 279 243 q 506 131 390 131 q 675 190 614 131 q 746 379 736 249 l 786 899 q 816 963 790 939 q 881 986 842 986 q 943 962 921 986 q 963 897 965 938 l 922 393 q 799 90 906 192 q 497 -12 692 -12 m 493 1085 q 438 1056 469 1056 q 402 1069 417 1056 q 388 1100 388 1082 q 406 1139 388 1119 l 514 1257 q 586 1285 540 1285 q 650 1257 631 1285 l 739 1140 q 751 1107 751 1124 q 735 1072 751 1086 q 696 1057 718 1057 q 643 1089 663 1057 l 581 1190 l 493 1085 z "},"Ȕ":{"ha":1018,"x_min":101,"x_max":963,"o":"m 497 -12 q 201 80 301 -12 q 101 351 101 172 q 104 406 101 369 l 144 899 q 173 963 147 939 q 238 986 199 986 q 300 962 278 986 q 319 897 322 938 l 281 403 q 279 358 279 388 q 335 187 279 243 q 506 131 390 131 q 675 190 614 131 q 746 379 736 249 l 786 899 q 816 963 790 939 q 881 986 842 986 q 943 962 921 986 q 963 897 965 938 l 922 393 q 799 90 906 192 q 497 -12 692 -12 m 353 1203 q 343 1233 343 1218 q 359 1269 343 1254 q 396 1285 375 1285 q 446 1246 431 1285 l 497 1113 q 500 1096 500 1107 q 489 1068 500 1079 q 463 1057 478 1057 q 426 1079 440 1057 l 353 1203 m 535 1203 q 525 1233 525 1218 q 542 1269 525 1254 q 579 1285 558 1285 q 629 1246 614 1285 l 681 1113 q 683 1096 683 1107 q 672 1068 683 1079 q 646 1057 661 1057 q 610 1079 624 1057 l 535 1203 z "},"Ü":{"ha":1018,"x_min":101,"x_max":963,"o":"m 497 -12 q 201 80 301 -12 q 101 351 101 172 q 104 406 101 369 l 144 899 q 173 963 147 939 q 238 986 199 986 q 300 962 278 986 q 319 897 322 938 l 281 403 q 279 358 279 388 q 335 187 279 243 q 506 131 390 131 q 675 190 614 131 q 746 379 736 249 l 786 899 q 816 963 790 939 q 881 986 842 986 q 943 962 921 986 q 963 897 965 938 l 922 393 q 799 90 906 192 q 497 -12 692 -12 m 449 1083 q 383 1108 408 1083 q 358 1171 358 1132 q 383 1233 358 1210 q 449 1257 408 1257 q 515 1233 489 1257 q 540 1171 540 1210 q 515 1108 540 1132 q 449 1083 489 1083 m 704 1083 q 639 1108 664 1083 q 614 1171 614 1132 q 639 1233 614 1210 q 704 1257 664 1257 q 769 1233 743 1257 q 794 1171 794 1210 q 769 1108 794 1132 q 704 1083 744 1083 z "},"Ụ":{"ha":1018,"x_min":101,"x_max":963,"o":"m 497 -12 q 201 80 301 -12 q 101 351 101 172 q 104 406 101 369 l 144 899 q 173 963 147 939 q 238 986 199 986 q 300 962 278 986 q 319 897 322 938 l 281 403 q 279 358 279 388 q 335 187 279 243 q 506 131 390 131 q 675 190 614 131 q 746 379 736 249 l 786 899 q 816 963 790 939 q 881 986 842 986 q 943 962 921 986 q 963 897 965 938 l 922 393 q 799 90 906 192 q 497 -12 692 -12 m 468 -275 q 402 -251 428 -275 q 376 -186 376 -226 q 401 -124 376 -147 q 468 -100 426 -100 q 534 -124 508 -100 q 560 -186 560 -147 q 534 -251 560 -226 q 468 -275 508 -275 z "},"Ù":{"ha":1018,"x_min":101,"x_max":963,"o":"m 497 -12 q 201 80 301 -12 q 101 351 101 172 q 104 406 101 369 l 144 899 q 173 963 147 939 q 238 986 199 986 q 300 962 278 986 q 319 897 322 938 l 281 403 q 279 358 279 388 q 335 187 279 243 q 506 131 390 131 q 675 190 614 131 q 746 379 736 249 l 786 899 q 816 963 790 939 q 881 986 842 986 q 943 962 921 986 q 963 897 965 938 l 922 393 q 799 90 906 192 q 497 -12 692 -12 m 407 1189 q 390 1229 390 1207 q 409 1269 390 1253 q 453 1286 428 1286 q 507 1253 488 1286 l 585 1119 q 592 1096 592 1106 q 578 1067 592 1078 q 546 1056 565 1056 q 504 1075 522 1056 l 407 1189 z "},"Ủ":{"ha":1018,"x_min":101,"x_max":963,"o":"m 497 -12 q 201 80 301 -12 q 101 351 101 172 q 104 406 101 369 l 144 899 q 173 963 147 939 q 238 986 199 986 q 300 962 278 986 q 319 897 322 938 l 281 403 q 279 358 279 388 q 335 187 279 243 q 506 131 390 131 q 675 190 614 131 q 746 379 736 249 l 786 899 q 816 963 790 939 q 881 986 842 986 q 943 962 921 986 q 963 897 965 938 l 922 393 q 799 90 906 192 q 497 -12 692 -12 m 617 1083 q 599 1063 613 1071 q 571 1056 586 1056 q 538 1065 551 1056 q 525 1090 525 1075 q 541 1131 525 1117 q 586 1157 557 1144 q 614 1171 606 1165 q 622 1186 622 1176 q 578 1206 622 1206 q 504 1196 546 1206 q 475 1202 486 1192 q 464 1228 464 1213 q 492 1265 464 1256 q 597 1282 535 1282 q 699 1259 663 1282 q 736 1200 736 1236 q 719 1155 736 1171 q 668 1124 701 1139 q 633 1104 644 1113 q 617 1083 621 1096 z "},"Ư":{"ha":1018,"x_min":101,"x_max":1138,"o":"m 1138 1114 q 1090 969 1138 1029 q 963 894 1043 908 l 922 393 q 799 90 906 192 q 497 -12 692 -12 q 201 80 301 -12 q 101 351 101 172 q 104 406 101 369 l 144 899 q 173 963 147 939 q 238 986 199 986 q 300 962 278 986 q 319 897 322 938 l 281 390 q 279 353 279 378 q 506 131 279 131 q 677 192 619 131 q 746 379 735 253 l 786 897 q 814 960 789 936 q 878 985 839 983 q 951 1014 926 986 q 988 1115 976 1042 q 1013 1169 993 1150 q 1068 1188 1033 1188 q 1120 1169 1103 1188 q 1138 1114 1138 1150 z "},"Ứ":{"ha":1018,"x_min":101,"x_max":1138,"o":"m 1138 1114 q 1090 969 1138 1029 q 963 894 1043 908 l 922 393 q 799 90 906 192 q 497 -12 692 -12 q 201 80 301 -12 q 101 351 101 172 q 104 406 101 369 l 144 899 q 173 963 147 939 q 238 986 199 986 q 300 962 278 986 q 319 897 322 938 l 281 390 q 279 353 279 378 q 506 131 279 131 q 677 192 619 131 q 746 379 735 253 l 786 897 q 814 960 789 936 q 878 985 839 983 q 951 1014 926 986 q 988 1115 976 1042 q 1013 1169 993 1150 q 1068 1188 1033 1188 q 1120 1169 1103 1188 q 1138 1114 1138 1150 m 631 1074 q 590 1057 613 1057 q 560 1067 572 1057 q 549 1094 549 1078 q 560 1126 549 1111 l 650 1254 q 704 1286 672 1286 q 748 1269 729 1286 q 767 1228 767 1251 q 743 1181 767 1203 l 631 1074 z "},"Ự":{"ha":1018,"x_min":101,"x_max":1138,"o":"m 1138 1114 q 1090 969 1138 1029 q 963 894 1043 908 l 922 393 q 799 90 906 192 q 497 -12 692 -12 q 201 80 301 -12 q 101 351 101 172 q 104 406 101 369 l 144 899 q 173 963 147 939 q 238 986 199 986 q 300 962 278 986 q 319 897 322 938 l 281 390 q 279 353 279 378 q 506 131 279 131 q 677 192 619 131 q 746 379 735 253 l 786 897 q 814 960 789 936 q 878 985 839 983 q 951 1014 926 986 q 988 1115 976 1042 q 1013 1169 993 1150 q 1068 1188 1033 1188 q 1120 1169 1103 1188 q 1138 1114 1138 1150 m 468 -275 q 402 -251 428 -275 q 376 -186 376 -226 q 401 -124 376 -147 q 468 -100 426 -100 q 534 -124 508 -100 q 560 -186 560 -147 q 534 -251 560 -226 q 468 -275 508 -275 z "},"Ừ":{"ha":1018,"x_min":101,"x_max":1138,"o":"m 1138 1114 q 1090 969 1138 1029 q 963 894 1043 908 l 922 393 q 799 90 906 192 q 497 -12 692 -12 q 201 80 301 -12 q 101 351 101 172 q 104 406 101 369 l 144 899 q 173 963 147 939 q 238 986 199 986 q 300 962 278 986 q 319 897 322 938 l 281 390 q 279 353 279 378 q 506 131 279 131 q 677 192 619 131 q 746 379 735 253 l 786 897 q 814 960 789 936 q 878 985 839 983 q 951 1014 926 986 q 988 1115 976 1042 q 1013 1169 993 1150 q 1068 1188 1033 1188 q 1120 1169 1103 1188 q 1138 1114 1138 1150 m 407 1189 q 390 1229 390 1207 q 409 1269 390 1253 q 453 1286 428 1286 q 507 1253 488 1286 l 585 1119 q 592 1096 592 1106 q 578 1067 592 1078 q 546 1056 565 1056 q 504 1075 522 1056 l 407 1189 z "},"Ử":{"ha":1018,"x_min":101,"x_max":1138,"o":"m 1138 1114 q 1090 969 1138 1029 q 963 894 1043 908 l 922 393 q 799 90 906 192 q 497 -12 692 -12 q 201 80 301 -12 q 101 351 101 172 q 104 406 101 369 l 144 899 q 173 963 147 939 q 238 986 199 986 q 300 962 278 986 q 319 897 322 938 l 281 390 q 279 353 279 378 q 506 131 279 131 q 677 192 619 131 q 746 379 735 253 l 786 897 q 814 960 789 936 q 878 985 839 983 q 951 1014 926 986 q 988 1115 976 1042 q 1013 1169 993 1150 q 1068 1188 1033 1188 q 1120 1169 1103 1188 q 1138 1114 1138 1150 m 617 1083 q 599 1063 613 1071 q 571 1056 586 1056 q 538 1065 551 1056 q 525 1090 525 1075 q 541 1131 525 1117 q 586 1157 557 1144 q 614 1171 606 1165 q 622 1186 622 1176 q 578 1206 622 1206 q 504 1196 546 1206 q 475 1202 486 1192 q 464 1228 464 1213 q 492 1265 464 1256 q 597 1282 535 1282 q 699 1259 663 1282 q 736 1200 736 1236 q 719 1155 736 1171 q 668 1124 701 1139 q 633 1104 644 1113 q 617 1083 621 1096 z "},"Ữ":{"ha":1018,"x_min":101,"x_max":1138,"o":"m 1138 1114 q 1090 969 1138 1029 q 963 894 1043 908 l 922 393 q 799 90 906 192 q 497 -12 692 -12 q 201 80 301 -12 q 101 351 101 172 q 104 406 101 369 l 144 899 q 173 963 147 939 q 238 986 199 986 q 300 962 278 986 q 319 897 322 938 l 281 390 q 279 353 279 378 q 506 131 279 131 q 677 192 619 131 q 746 379 735 253 l 786 897 q 814 960 789 936 q 878 985 839 983 q 951 1014 926 986 q 988 1115 976 1042 q 1013 1169 993 1150 q 1068 1188 1033 1188 q 1120 1169 1103 1188 q 1138 1114 1138 1150 m 671 1082 q 624 1090 647 1082 q 564 1115 600 1099 q 515 1137 535 1129 q 478 1144 496 1144 q 444 1136 457 1144 q 417 1111 431 1128 q 398 1093 406 1099 q 378 1088 390 1088 q 343 1131 343 1088 q 360 1190 343 1160 q 409 1241 378 1221 q 482 1261 440 1261 q 531 1252 506 1261 q 589 1226 556 1243 q 638 1205 618 1213 q 675 1197 657 1197 q 709 1206 696 1197 q 736 1231 722 1214 q 755 1249 747 1243 q 775 1254 763 1254 q 810 1213 810 1254 q 792 1153 810 1183 q 744 1102 775 1122 q 671 1082 713 1082 z "},"Ű":{"ha":1018,"x_min":101,"x_max":963,"o":"m 497 -12 q 201 80 301 -12 q 101 351 101 172 q 104 406 101 369 l 144 899 q 173 963 147 939 q 238 986 199 986 q 300 962 278 986 q 319 897 322 938 l 281 403 q 279 358 279 388 q 335 187 279 243 q 506 131 390 131 q 675 190 614 131 q 746 379 736 249 l 786 899 q 816 963 790 939 q 881 986 842 986 q 943 962 921 986 q 963 897 965 938 l 922 393 q 799 90 906 192 q 497 -12 692 -12 m 524 1076 q 488 1056 507 1056 q 465 1064 474 1056 q 456 1086 456 1072 q 461 1107 456 1097 l 531 1249 q 582 1285 549 1285 q 618 1271 603 1285 q 633 1236 633 1257 q 618 1197 633 1217 l 524 1076 m 707 1076 q 669 1056 690 1056 q 648 1064 657 1056 q 639 1086 639 1072 q 644 1107 639 1097 l 714 1249 q 765 1285 732 1285 q 801 1271 786 1285 q 817 1236 817 1257 q 801 1197 817 1219 l 707 1076 z "},"Ȗ":{"ha":1018,"x_min":101,"x_max":963,"o":"m 497 -12 q 201 80 301 -12 q 101 351 101 172 q 104 406 101 369 l 144 899 q 173 963 147 939 q 238 986 199 986 q 300 962 278 986 q 319 897 322 938 l 281 403 q 279 358 279 388 q 335 187 279 243 q 506 131 390 131 q 675 190 614 131 q 746 379 736 249 l 786 899 q 816 963 790 939 q 881 986 842 986 q 943 962 921 986 q 963 897 965 938 l 922 393 q 799 90 906 192 q 497 -12 692 -12 m 576 1264 q 707 1235 651 1264 q 792 1154 763 1207 q 801 1122 801 1139 q 788 1090 801 1103 q 753 1078 774 1078 q 706 1100 726 1078 q 572 1157 660 1157 q 435 1100 488 1157 q 385 1078 413 1078 q 354 1089 367 1078 q 342 1118 342 1100 q 354 1154 342 1133 q 447 1235 389 1206 q 576 1264 504 1264 z "},"Ū":{"ha":1018,"x_min":101,"x_max":963,"o":"m 497 -12 q 201 80 301 -12 q 101 351 101 172 q 104 406 101 369 l 144 899 q 173 963 147 939 q 238 986 199 986 q 300 962 278 986 q 319 897 322 938 l 281 403 q 279 358 279 388 q 335 187 279 243 q 506 131 390 131 q 675 190 614 131 q 746 379 736 249 l 786 899 q 816 963 790 939 q 881 986 842 986 q 943 962 921 986 q 963 897 965 938 l 922 393 q 799 90 906 192 q 497 -12 692 -12 m 404 1114 q 362 1128 378 1114 q 346 1167 346 1143 q 365 1211 346 1196 q 413 1226 383 1226 l 749 1226 q 792 1212 776 1226 q 807 1171 807 1197 q 788 1128 807 1143 q 740 1114 769 1114 l 404 1114 z "},"Ṻ":{"ha":1018,"x_min":101,"x_max":963,"o":"m 497 -12 q 201 80 301 -12 q 101 351 101 172 q 104 406 101 369 l 144 899 q 173 963 147 939 q 238 986 199 986 q 300 962 278 986 q 319 897 322 938 l 281 403 q 279 358 279 388 q 335 187 279 243 q 506 131 390 131 q 675 190 614 131 q 746 379 736 249 l 786 899 q 816 963 790 939 q 881 986 842 986 q 943 962 921 986 q 963 897 965 938 l 922 393 q 799 90 906 192 q 497 -12 692 -12 m 404 1114 q 362 1128 378 1114 q 346 1167 346 1143 q 365 1211 346 1196 q 413 1226 383 1226 l 749 1226 q 792 1212 776 1226 q 807 1171 807 1197 q 788 1128 807 1143 q 740 1114 769 1114 l 404 1114 m 467 1306 q 401 1330 426 1306 q 376 1393 376 1354 q 401 1456 376 1432 q 467 1479 426 1479 q 533 1456 507 1479 q 558 1393 558 1432 q 533 1330 558 1354 q 467 1306 507 1306 m 722 1306 q 657 1330 682 1306 q 632 1393 632 1354 q 657 1456 632 1432 q 722 1479 682 1479 q 787 1456 761 1479 q 813 1393 813 1432 q 788 1330 813 1354 q 722 1306 763 1306 z "},"Ų":{"ha":1018,"x_min":101,"x_max":965,"o":"m 881 986 q 943 962 921 986 q 963 897 965 938 l 922 393 q 638 3 897 69 q 535 -101 535 -26 q 556 -156 535 -137 q 613 -175 576 -175 q 675 -162 642 -175 q 690 -160 686 -160 q 713 -170 704 -160 q 721 -196 721 -181 q 714 -222 721 -210 q 693 -242 707 -235 q 583 -271 643 -271 q 462 -231 507 -271 q 417 -128 417 -192 q 468 -12 417 -56 q 194 85 288 -7 q 101 350 101 178 q 104 406 101 367 l 144 899 q 173 963 147 939 q 238 986 199 986 q 300 962 278 986 q 319 897 322 938 l 281 403 q 279 358 279 388 q 335 187 279 243 q 506 131 390 131 q 675 190 614 131 q 746 379 736 249 l 786 899 q 816 963 790 939 q 881 986 842 986 z "},"Ů":{"ha":1018,"x_min":101,"x_max":963,"o":"m 497 -12 q 201 80 301 -12 q 101 351 101 172 q 104 406 101 369 l 144 899 q 173 963 147 939 q 238 986 199 986 q 300 962 278 986 q 319 897 322 938 l 281 403 q 279 358 279 388 q 335 187 279 243 q 506 131 390 131 q 675 190 614 131 q 746 379 736 249 l 786 899 q 816 963 790 939 q 881 986 842 986 q 943 962 921 986 q 963 897 965 938 l 922 393 q 799 90 906 192 q 497 -12 692 -12 m 578 1056 q 472 1097 515 1056 q 429 1200 429 1139 q 473 1303 429 1261 q 578 1346 517 1346 q 682 1303 639 1346 q 725 1200 725 1261 q 682 1097 725 1139 q 578 1056 639 1056 m 578 1135 q 622 1153 604 1135 q 640 1200 640 1172 q 622 1247 640 1228 q 578 1265 604 1265 q 533 1247 550 1265 q 515 1200 515 1228 q 533 1153 515 1172 q 578 1135 550 1135 z "},"Ũ":{"ha":1018,"x_min":101,"x_max":963,"o":"m 497 -12 q 201 80 301 -12 q 101 351 101 172 q 104 406 101 369 l 144 899 q 173 963 147 939 q 238 986 199 986 q 300 962 278 986 q 319 897 322 938 l 281 403 q 279 358 279 388 q 335 187 279 243 q 506 131 390 131 q 675 190 614 131 q 746 379 736 249 l 786 899 q 816 963 790 939 q 881 986 842 986 q 943 962 921 986 q 963 897 965 938 l 922 393 q 799 90 906 192 q 497 -12 692 -12 m 671 1082 q 624 1090 647 1082 q 564 1115 600 1099 q 515 1137 535 1129 q 478 1144 496 1144 q 444 1136 457 1144 q 417 1111 431 1128 q 398 1093 406 1099 q 378 1088 390 1088 q 343 1131 343 1088 q 360 1190 343 1160 q 409 1241 378 1221 q 482 1261 440 1261 q 531 1252 506 1261 q 589 1226 556 1243 q 638 1205 618 1213 q 675 1197 657 1197 q 709 1206 696 1197 q 736 1231 722 1214 q 755 1249 747 1243 q 775 1254 763 1254 q 810 1213 810 1254 q 792 1153 810 1183 q 744 1102 775 1122 q 671 1082 713 1082 z "},"Ṹ":{"ha":1018,"x_min":101,"x_max":963,"o":"m 497 -12 q 201 80 301 -12 q 101 351 101 172 q 104 406 101 369 l 144 899 q 173 963 147 939 q 238 986 199 986 q 300 962 278 986 q 319 897 322 938 l 281 403 q 279 358 279 388 q 335 187 279 243 q 506 131 390 131 q 675 190 614 131 q 746 379 736 249 l 786 899 q 816 963 790 939 q 881 986 842 986 q 943 962 921 986 q 963 897 965 938 l 922 393 q 799 90 906 192 q 497 -12 692 -12 m 671 1082 q 624 1090 647 1082 q 564 1115 600 1099 q 515 1137 535 1129 q 478 1144 496 1144 q 444 1136 457 1144 q 417 1111 431 1128 q 398 1093 406 1099 q 378 1088 390 1088 q 343 1131 343 1088 q 360 1190 343 1160 q 409 1241 378 1221 q 482 1261 440 1261 q 531 1252 506 1261 q 589 1226 556 1243 q 638 1205 618 1213 q 675 1197 657 1197 q 709 1206 696 1197 q 736 1231 722 1214 q 755 1249 747 1243 q 775 1254 763 1254 q 810 1213 810 1254 q 792 1153 810 1183 q 744 1102 775 1122 q 671 1082 713 1082 m 649 1296 q 608 1279 631 1279 q 578 1290 590 1279 q 567 1317 567 1300 q 578 1349 567 1333 l 668 1476 q 722 1508 690 1508 q 766 1491 747 1508 q 785 1450 785 1474 q 761 1403 785 1425 l 649 1296 z "},"V":{"ha":992,"x_min":71,"x_max":1011,"o":"m 851 940 q 883 976 864 964 q 926 988 903 988 q 985 967 960 988 q 1011 914 1011 946 q 1000 872 1011 893 l 567 47 q 526 5 553 19 q 468 -10 499 -10 q 413 6 438 -10 q 378 50 389 21 l 76 874 q 71 903 71 886 q 101 963 71 938 q 167 988 131 988 q 209 975 190 988 q 236 938 228 963 l 489 224 l 851 940 z "},"W":{"ha":1542,"x_min":107,"x_max":1524,"o":"m 1365 932 q 1400 974 1378 960 q 1449 988 1422 988 q 1501 969 1479 988 q 1524 918 1524 950 q 1513 874 1524 900 l 1157 49 q 1118 6 1144 21 q 1063 -10 1092 -10 q 1010 6 1033 -10 q 978 50 986 21 l 799 704 l 518 49 q 479 5 506 21 q 424 -11 453 -11 q 371 5 394 -11 q 338 50 347 21 l 111 875 q 107 904 107 890 q 135 965 107 942 q 199 989 163 989 q 247 974 225 989 q 275 931 268 960 l 450 250 l 739 928 q 775 972 751 957 q 825 988 799 988 q 872 972 851 988 q 901 928 893 956 l 1078 246 l 1365 932 z "},"Ẃ":{"ha":1542,"x_min":107,"x_max":1524,"o":"m 1365 932 q 1400 974 1378 960 q 1449 988 1422 988 q 1501 969 1479 988 q 1524 918 1524 950 q 1513 874 1524 900 l 1157 49 q 1118 6 1144 21 q 1063 -10 1092 -10 q 1010 6 1033 -10 q 978 50 986 21 l 799 704 l 518 49 q 479 5 506 21 q 424 -11 453 -11 q 371 5 394 -11 q 338 50 347 21 l 111 875 q 107 904 107 890 q 135 965 107 942 q 199 989 163 989 q 247 974 225 989 q 275 931 268 960 l 450 250 l 739 928 q 775 972 751 957 q 825 988 799 988 q 872 972 851 988 q 901 928 893 956 l 1078 246 l 1365 932 m 892 1074 q 851 1057 874 1057 q 822 1067 833 1057 q 810 1094 810 1078 q 821 1126 810 1111 l 911 1254 q 965 1286 933 1286 q 1009 1269 990 1286 q 1028 1228 1028 1251 q 1004 1181 1028 1203 l 892 1074 z "},"Ŵ":{"ha":1542,"x_min":107,"x_max":1524,"o":"m 1365 932 q 1400 974 1378 960 q 1449 988 1422 988 q 1501 969 1479 988 q 1524 918 1524 950 q 1513 874 1524 900 l 1157 49 q 1118 6 1144 21 q 1063 -10 1092 -10 q 1010 6 1033 -10 q 978 50 986 21 l 799 704 l 518 49 q 479 5 506 21 q 424 -11 453 -11 q 371 5 394 -11 q 338 50 347 21 l 111 875 q 107 904 107 890 q 135 965 107 942 q 199 989 163 989 q 247 974 225 989 q 275 931 268 960 l 450 250 l 739 928 q 775 972 751 957 q 825 988 799 988 q 872 972 851 988 q 901 928 893 956 l 1078 246 l 1365 932 m 754 1085 q 699 1056 731 1056 q 663 1069 678 1056 q 649 1100 649 1082 q 667 1139 649 1119 l 775 1257 q 847 1285 801 1285 q 911 1257 892 1285 l 1000 1140 q 1013 1107 1013 1124 q 996 1072 1013 1086 q 957 1057 979 1057 q 904 1089 924 1057 l 842 1190 l 754 1085 z "},"Ẅ":{"ha":1542,"x_min":107,"x_max":1524,"o":"m 1365 932 q 1400 974 1378 960 q 1449 988 1422 988 q 1501 969 1479 988 q 1524 918 1524 950 q 1513 874 1524 900 l 1157 49 q 1118 6 1144 21 q 1063 -10 1092 -10 q 1010 6 1033 -10 q 978 50 986 21 l 799 704 l 518 49 q 479 5 506 21 q 424 -11 453 -11 q 371 5 394 -11 q 338 50 347 21 l 111 875 q 107 904 107 890 q 135 965 107 942 q 199 989 163 989 q 247 974 225 989 q 275 931 268 960 l 450 250 l 739 928 q 775 972 751 957 q 825 988 799 988 q 872 972 851 988 q 901 928 893 956 l 1078 246 l 1365 932 m 710 1083 q 644 1108 669 1083 q 619 1171 619 1132 q 644 1233 619 1210 q 710 1257 669 1257 q 776 1233 750 1257 q 801 1171 801 1210 q 776 1108 801 1132 q 710 1083 750 1083 m 965 1083 q 900 1108 925 1083 q 875 1171 875 1132 q 900 1233 875 1210 q 965 1257 925 1257 q 1030 1233 1004 1257 q 1056 1171 1056 1210 q 1031 1108 1056 1132 q 965 1083 1006 1083 z "},"Ẁ":{"ha":1542,"x_min":107,"x_max":1524,"o":"m 1365 932 q 1400 974 1378 960 q 1449 988 1422 988 q 1501 969 1479 988 q 1524 918 1524 950 q 1513 874 1524 900 l 1157 49 q 1118 6 1144 21 q 1063 -10 1092 -10 q 1010 6 1033 -10 q 978 50 986 21 l 799 704 l 518 49 q 479 5 506 21 q 424 -11 453 -11 q 371 5 394 -11 q 338 50 347 21 l 111 875 q 107 904 107 890 q 135 965 107 942 q 199 989 163 989 q 247 974 225 989 q 275 931 268 960 l 450 250 l 739 928 q 775 972 751 957 q 825 988 799 988 q 872 972 851 988 q 901 928 893 956 l 1078 246 l 1365 932 m 668 1189 q 651 1229 651 1207 q 670 1269 651 1253 q 714 1286 689 1286 q 768 1253 749 1286 l 846 1119 q 853 1096 853 1106 q 840 1067 853 1078 q 807 1056 826 1056 q 765 1075 783 1056 l 668 1189 z "},"X":{"ha":922,"x_min":25,"x_max":908,"o":"m 768 957 q 831 988 794 988 q 885 965 861 988 q 908 910 908 942 q 885 851 908 879 l 578 497 l 847 128 q 864 79 864 106 q 836 18 864 44 q 775 -8 808 -8 q 717 22 738 -8 l 465 376 l 164 21 q 103 -10 139 -10 q 49 13 72 -10 q 25 69 25 36 q 50 129 25 103 l 371 501 l 121 851 q 104 900 104 875 q 132 961 104 935 q 194 988 160 988 q 253 956 229 988 l 485 625 l 768 957 z "},"Y":{"ha":865,"x_min":58,"x_max":894,"o":"m 749 954 q 815 989 779 989 q 871 966 847 989 q 894 911 894 943 q 871 853 894 881 l 532 450 l 501 81 q 472 15 499 38 q 407 -8 446 -8 q 344 15 368 -8 q 324 82 321 39 l 353 450 l 74 856 q 58 900 58 879 q 86 960 58 933 q 147 986 114 986 q 208 951 183 986 l 450 594 l 749 954 z "},"Ý":{"ha":865,"x_min":58,"x_max":894,"o":"m 749 954 q 815 989 779 989 q 871 966 847 989 q 894 911 894 943 q 871 853 894 881 l 532 450 l 501 81 q 472 15 499 38 q 407 -8 446 -8 q 344 15 368 -8 q 324 82 321 39 l 353 450 l 74 856 q 58 900 58 879 q 86 960 58 933 q 147 986 114 986 q 208 951 183 986 l 450 594 l 749 954 m 553 1074 q 513 1057 535 1057 q 483 1067 494 1057 q 471 1094 471 1078 q 482 1126 471 1111 l 572 1254 q 626 1286 594 1286 q 670 1269 651 1286 q 689 1228 689 1251 q 665 1181 689 1203 l 553 1074 z "},"Ŷ":{"ha":865,"x_min":58,"x_max":894,"o":"m 749 954 q 815 989 779 989 q 871 966 847 989 q 894 911 894 943 q 871 853 894 881 l 532 450 l 501 81 q 472 15 499 38 q 407 -8 446 -8 q 344 15 368 -8 q 324 82 321 39 l 353 450 l 74 856 q 58 900 58 879 q 86 960 58 933 q 147 986 114 986 q 208 951 183 986 l 450 594 l 749 954 m 415 1085 q 360 1056 392 1056 q 324 1069 339 1056 q 310 1100 310 1082 q 328 1139 310 1119 l 436 1257 q 508 1285 463 1285 q 572 1257 553 1285 l 661 1140 q 674 1107 674 1124 q 657 1072 674 1086 q 618 1057 640 1057 q 565 1089 585 1057 l 503 1190 l 415 1085 z "},"Ÿ":{"ha":865,"x_min":58,"x_max":894,"o":"m 749 954 q 815 989 779 989 q 871 966 847 989 q 894 911 894 943 q 871 853 894 881 l 532 450 l 501 81 q 472 15 499 38 q 407 -8 446 -8 q 344 15 368 -8 q 324 82 321 39 l 353 450 l 74 856 q 58 900 58 879 q 86 960 58 933 q 147 986 114 986 q 208 951 183 986 l 450 594 l 749 954 m 371 1083 q 306 1108 331 1083 q 281 1171 281 1132 q 306 1233 281 1210 q 371 1257 331 1257 q 437 1233 411 1257 q 463 1171 463 1210 q 437 1108 463 1132 q 371 1083 411 1083 m 626 1083 q 561 1108 586 1083 q 536 1171 536 1132 q 561 1233 536 1210 q 626 1257 586 1257 q 691 1233 665 1257 q 717 1171 717 1210 q 692 1108 717 1132 q 626 1083 667 1083 z "},"Ẏ":{"ha":865,"x_min":58,"x_max":894,"o":"m 749 954 q 815 989 779 989 q 871 966 847 989 q 894 911 894 943 q 871 853 894 881 l 532 450 l 501 81 q 472 15 499 38 q 407 -8 446 -8 q 344 15 368 -8 q 324 82 321 39 l 353 450 l 74 856 q 58 900 58 879 q 86 960 58 933 q 147 986 114 986 q 208 951 183 986 l 450 594 l 749 954 m 499 1078 q 424 1103 451 1078 q 396 1171 396 1129 q 424 1238 396 1213 q 499 1263 451 1263 q 573 1238 544 1263 q 601 1171 601 1213 q 574 1103 601 1129 q 499 1078 546 1078 z "},"Ỵ":{"ha":865,"x_min":58,"x_max":894,"o":"m 749 954 q 815 989 779 989 q 871 966 847 989 q 894 911 894 943 q 871 853 894 881 l 532 450 l 501 81 q 472 15 499 38 q 407 -8 446 -8 q 344 15 368 -8 q 324 82 321 39 l 353 450 l 74 856 q 58 900 58 879 q 86 960 58 933 q 147 986 114 986 q 208 951 183 986 l 450 594 l 749 954 m 392 -275 q 326 -251 351 -275 q 300 -186 300 -226 q 325 -124 300 -147 q 392 -100 350 -100 q 458 -124 432 -100 q 483 -186 483 -147 q 458 -251 483 -226 q 392 -275 432 -275 z "},"Ỳ":{"ha":865,"x_min":58,"x_max":894,"o":"m 749 954 q 815 989 779 989 q 871 966 847 989 q 894 911 894 943 q 871 853 894 881 l 532 450 l 501 81 q 472 15 499 38 q 407 -8 446 -8 q 344 15 368 -8 q 324 82 321 39 l 353 450 l 74 856 q 58 900 58 879 q 86 960 58 933 q 147 986 114 986 q 208 951 183 986 l 450 594 l 749 954 m 329 1189 q 313 1229 313 1207 q 331 1269 313 1253 q 375 1286 350 1286 q 429 1253 410 1286 l 507 1119 q 514 1096 514 1106 q 501 1067 514 1078 q 468 1056 488 1056 q 426 1075 444 1056 l 329 1189 z "},"Ỷ":{"ha":865,"x_min":58,"x_max":894,"o":"m 749 954 q 815 989 779 989 q 871 966 847 989 q 894 911 894 943 q 871 853 894 881 l 532 450 l 501 81 q 472 15 499 38 q 407 -8 446 -8 q 344 15 368 -8 q 324 82 321 39 l 353 450 l 74 856 q 58 900 58 879 q 86 960 58 933 q 147 986 114 986 q 208 951 183 986 l 450 594 l 749 954 m 539 1083 q 522 1063 535 1071 q 493 1056 508 1056 q 460 1065 474 1056 q 447 1090 447 1075 q 463 1131 447 1117 q 508 1157 479 1144 q 536 1171 528 1165 q 544 1186 544 1176 q 500 1206 544 1206 q 426 1196 468 1206 q 397 1202 408 1192 q 386 1228 386 1213 q 414 1265 386 1256 q 519 1282 457 1282 q 622 1259 585 1282 q 658 1200 658 1236 q 641 1155 658 1171 q 590 1124 624 1139 q 555 1104 567 1113 q 539 1083 543 1096 z "},"Ȳ":{"ha":865,"x_min":58,"x_max":894,"o":"m 749 954 q 815 989 779 989 q 871 966 847 989 q 894 911 894 943 q 871 853 894 881 l 532 450 l 501 81 q 472 15 499 38 q 407 -8 446 -8 q 344 15 368 -8 q 324 82 321 39 l 353 450 l 74 856 q 58 900 58 879 q 86 960 58 933 q 147 986 114 986 q 208 951 183 986 l 450 594 l 749 954 m 326 1114 q 284 1128 300 1114 q 268 1167 268 1143 q 287 1211 268 1196 q 335 1226 306 1226 l 671 1226 q 714 1212 699 1226 q 729 1171 729 1197 q 710 1128 729 1143 q 663 1114 692 1114 l 326 1114 z "},"Ỹ":{"ha":865,"x_min":58,"x_max":894,"o":"m 749 954 q 815 989 779 989 q 871 966 847 989 q 894 911 894 943 q 871 853 894 881 l 532 450 l 501 81 q 472 15 499 38 q 407 -8 446 -8 q 344 15 368 -8 q 324 82 321 39 l 353 450 l 74 856 q 58 900 58 879 q 86 960 58 933 q 147 986 114 986 q 208 951 183 986 l 450 594 l 749 954 m 593 1082 q 546 1090 569 1082 q 486 1115 522 1099 q 438 1137 457 1129 q 400 1144 418 1144 q 366 1136 379 1144 q 339 1111 353 1128 q 320 1093 328 1099 q 300 1088 313 1088 q 265 1131 265 1088 q 283 1190 265 1160 q 331 1241 300 1221 q 404 1261 363 1261 q 453 1252 428 1261 q 511 1226 478 1243 q 560 1205 540 1213 q 597 1197 579 1197 q 631 1206 618 1197 q 658 1231 644 1214 q 677 1249 669 1243 q 697 1254 685 1254 q 732 1213 732 1254 q 715 1153 732 1183 q 666 1102 697 1122 q 593 1082 635 1082 z "},"Z":{"ha":836,"x_min":31,"x_max":832,"o":"m 760 979 q 813 960 793 979 q 832 911 832 940 q 804 840 832 876 l 258 143 l 706 143 q 764 126 744 143 q 783 76 783 108 q 696 0 783 0 l 103 0 q 49 19 68 0 q 31 69 31 39 q 57 139 31 107 l 604 836 l 175 836 q 117 853 136 836 q 97 901 97 869 q 119 960 97 942 q 185 979 140 979 l 760 979 z "},"Ź":{"ha":836,"x_min":31,"x_max":832,"o":"m 760 979 q 813 960 793 979 q 832 911 832 940 q 804 840 832 876 l 258 143 l 706 143 q 764 126 744 143 q 783 76 783 108 q 696 0 783 0 l 103 0 q 49 19 68 0 q 31 69 31 39 q 57 139 31 107 l 604 836 l 175 836 q 117 853 136 836 q 97 901 97 869 q 119 960 97 942 q 185 979 140 979 l 760 979 m 540 1074 q 500 1057 522 1057 q 470 1067 482 1057 q 458 1094 458 1078 q 469 1126 458 1111 l 560 1254 q 614 1286 582 1286 q 658 1269 639 1286 q 676 1228 676 1251 q 653 1181 676 1203 l 540 1074 z "},"Ž":{"ha":836,"x_min":31,"x_max":832,"o":"m 760 979 q 813 960 793 979 q 832 911 832 940 q 804 840 832 876 l 258 143 l 706 143 q 764 126 744 143 q 783 76 783 108 q 696 0 783 0 l 103 0 q 49 19 68 0 q 31 69 31 39 q 57 139 31 107 l 604 836 l 175 836 q 117 853 136 836 q 97 901 97 869 q 119 960 97 942 q 185 979 140 979 l 760 979 m 567 1254 q 622 1283 590 1283 q 658 1270 643 1283 q 672 1239 672 1257 q 654 1200 672 1219 l 546 1082 q 476 1053 518 1053 q 410 1082 433 1053 l 322 1199 q 310 1233 310 1215 q 326 1269 310 1254 q 365 1283 343 1283 q 417 1251 397 1283 l 479 1149 l 567 1254 z "},"Ż":{"ha":836,"x_min":31,"x_max":832,"o":"m 760 979 q 813 960 793 979 q 832 911 832 940 q 804 840 832 876 l 258 143 l 706 143 q 764 126 744 143 q 783 76 783 108 q 696 0 783 0 l 103 0 q 49 19 68 0 q 31 69 31 39 q 57 139 31 107 l 604 836 l 175 836 q 117 853 136 836 q 97 901 97 869 q 119 960 97 942 q 185 979 140 979 l 760 979 m 486 1078 q 411 1103 439 1078 q 383 1171 383 1129 q 411 1238 383 1213 q 486 1263 439 1263 q 560 1238 532 1263 q 589 1171 589 1213 q 561 1103 589 1129 q 486 1078 533 1078 z "},"Ẓ":{"ha":836,"x_min":31,"x_max":832,"o":"m 760 979 q 813 960 793 979 q 832 911 832 940 q 804 840 832 876 l 258 143 l 706 143 q 764 126 744 143 q 783 76 783 108 q 696 0 783 0 l 103 0 q 49 19 68 0 q 31 69 31 39 q 57 139 31 107 l 604 836 l 175 836 q 117 853 136 836 q 97 901 97 869 q 119 960 97 942 q 185 979 140 979 l 760 979 m 376 -275 q 310 -251 336 -275 q 285 -186 285 -226 q 310 -124 285 -147 q 376 -100 335 -100 q 442 -124 417 -100 q 468 -186 468 -147 q 442 -251 468 -226 q 376 -275 417 -275 z "},"a":{"ha":750,"x_min":54,"x_max":671,"o":"m 397 696 q 603 633 535 696 q 671 444 671 571 q 669 404 671 418 l 643 72 q 617 13 640 33 q 556 -8 594 -8 q 498 15 519 -8 q 479 74 476 38 l 481 100 q 403 18 453 47 q 289 -11 353 -11 q 169 15 222 -11 q 85 85 115 40 q 54 188 54 131 q 94 312 54 265 q 221 380 133 358 q 454 401 308 401 l 504 401 l 506 428 q 479 531 511 497 q 378 564 447 564 q 190 510 296 564 q 156 501 172 501 q 114 519 131 501 q 97 561 97 536 q 108 598 97 579 q 140 629 119 617 q 258 678 190 660 q 397 696 326 696 m 333 114 q 444 160 399 114 q 494 279 489 207 l 497 310 l 458 310 q 319 300 369 310 q 246 267 268 290 q 224 206 224 244 q 253 139 224 164 q 333 114 283 114 z "},"á":{"ha":750,"x_min":54,"x_max":671,"o":"m 397 696 q 603 633 535 696 q 671 444 671 571 q 669 404 671 418 l 643 72 q 617 13 640 33 q 556 -8 594 -8 q 498 15 519 -8 q 479 74 476 38 l 481 100 q 403 18 453 47 q 289 -11 353 -11 q 169 15 222 -11 q 85 85 115 40 q 54 188 54 131 q 94 312 54 265 q 221 380 133 358 q 454 401 308 401 l 504 401 l 506 428 q 479 531 511 497 q 378 564 447 564 q 190 510 296 564 q 156 501 172 501 q 114 519 131 501 q 97 561 97 536 q 108 598 97 579 q 140 629 119 617 q 258 678 190 660 q 397 696 326 696 m 333 114 q 444 160 399 114 q 494 279 489 207 l 497 310 l 458 310 q 319 300 369 310 q 246 267 268 290 q 224 206 224 244 q 253 139 224 164 q 333 114 283 114 m 483 786 q 435 763 461 763 q 405 774 417 763 q 393 804 393 786 q 401 833 393 817 l 521 1018 q 550 1049 533 1039 q 586 1060 567 1060 q 635 1040 614 1060 q 657 994 657 1021 q 633 942 657 967 l 483 786 z "},"ă":{"ha":750,"x_min":54,"x_max":674,"o":"m 397 696 q 603 633 535 696 q 671 444 671 571 q 669 404 671 418 l 643 72 q 617 13 640 33 q 556 -8 594 -8 q 498 15 519 -8 q 479 74 476 38 l 481 100 q 403 18 453 47 q 289 -11 353 -11 q 169 15 222 -11 q 85 85 115 40 q 54 188 54 131 q 94 312 54 265 q 221 380 133 358 q 454 401 308 401 l 504 401 l 506 428 q 479 531 511 497 q 378 564 447 564 q 190 510 296 564 q 156 501 172 501 q 114 519 131 501 q 97 561 97 536 q 108 598 97 579 q 140 629 119 617 q 258 678 190 660 q 397 696 326 696 m 333 114 q 444 160 399 114 q 494 279 489 207 l 497 310 l 458 310 q 319 300 369 310 q 246 267 268 290 q 224 206 224 244 q 253 139 224 164 q 333 114 283 114 m 426 804 q 289 844 347 804 q 203 954 231 885 q 199 978 199 967 q 214 1014 199 1000 q 251 1028 229 1028 q 297 999 282 1028 q 353 939 317 961 q 435 917 389 917 q 575 999 521 917 q 625 1029 596 1029 q 660 1016 646 1029 q 674 982 674 1003 q 667 954 674 971 q 571 844 635 885 q 426 804 507 804 z "},"ắ":{"ha":750,"x_min":54,"x_max":671,"o":"m 397 696 q 603 633 535 696 q 671 444 671 571 q 669 404 671 418 l 643 72 q 617 13 640 33 q 556 -8 594 -8 q 498 15 519 -8 q 479 74 476 38 l 481 100 q 403 18 453 47 q 289 -11 353 -11 q 169 15 222 -11 q 85 85 115 40 q 54 188 54 131 q 94 312 54 265 q 221 380 133 358 q 454 401 308 401 l 504 401 l 506 428 q 479 531 511 497 q 378 564 447 564 q 190 510 296 564 q 156 501 172 501 q 114 519 131 501 q 97 561 97 536 q 108 598 97 579 q 140 629 119 617 q 258 678 190 660 q 397 696 326 696 m 333 114 q 444 160 399 114 q 494 279 489 207 l 497 310 l 458 310 q 319 300 369 310 q 246 267 268 290 q 224 206 224 244 q 253 139 224 164 q 333 114 283 114 m 482 919 q 450 907 468 907 q 424 917 435 907 q 413 943 413 928 q 422 968 413 957 l 514 1094 q 565 1124 535 1124 q 606 1106 589 1124 q 624 1067 624 1089 q 603 1025 624 1042 l 482 919 m 425 761 q 293 790 349 761 q 208 872 238 819 q 200 900 200 888 q 213 932 200 919 q 242 944 225 944 q 276 925 261 944 q 432 857 326 857 q 585 925 524 857 q 624 944 603 944 q 649 934 639 944 q 660 907 660 924 q 647 872 660 892 q 556 791 614 821 q 425 761 497 761 z "},"ặ":{"ha":750,"x_min":54,"x_max":674,"o":"m 397 696 q 603 633 535 696 q 671 444 671 571 q 669 404 671 418 l 643 72 q 617 13 640 33 q 556 -8 594 -8 q 498 15 519 -8 q 479 74 476 38 l 481 100 q 403 18 453 47 q 289 -11 353 -11 q 169 15 222 -11 q 85 85 115 40 q 54 188 54 131 q 94 312 54 265 q 221 380 133 358 q 454 401 308 401 l 504 401 l 506 428 q 479 531 511 497 q 378 564 447 564 q 190 510 296 564 q 156 501 172 501 q 114 519 131 501 q 97 561 97 536 q 108 598 97 579 q 140 629 119 617 q 258 678 190 660 q 397 696 326 696 m 333 114 q 444 160 399 114 q 494 279 489 207 l 497 310 l 458 310 q 319 300 369 310 q 246 267 268 290 q 224 206 224 244 q 253 139 224 164 q 333 114 283 114 m 338 -275 q 272 -251 297 -275 q 246 -186 246 -226 q 271 -124 246 -147 q 338 -100 296 -100 q 403 -124 378 -100 q 429 -186 429 -147 q 403 -251 429 -226 q 338 -275 378 -275 m 426 804 q 289 844 347 804 q 203 954 231 885 q 199 978 199 967 q 214 1014 199 1000 q 251 1028 229 1028 q 297 999 282 1028 q 353 939 317 961 q 435 917 389 917 q 575 999 521 917 q 625 1029 596 1029 q 660 1016 646 1029 q 674 982 674 1003 q 667 954 674 971 q 571 844 635 885 q 426 804 507 804 z "},"ằ":{"ha":750,"x_min":54,"x_max":671,"o":"m 397 696 q 603 633 535 696 q 671 444 671 571 q 669 404 671 418 l 643 72 q 617 13 640 33 q 556 -8 594 -8 q 498 15 519 -8 q 479 74 476 38 l 481 100 q 403 18 453 47 q 289 -11 353 -11 q 169 15 222 -11 q 85 85 115 40 q 54 188 54 131 q 94 312 54 265 q 221 380 133 358 q 454 401 308 401 l 504 401 l 506 428 q 479 531 511 497 q 378 564 447 564 q 190 510 296 564 q 156 501 172 501 q 114 519 131 501 q 97 561 97 536 q 108 598 97 579 q 140 629 119 617 q 258 678 190 660 q 397 696 326 696 m 333 114 q 444 160 399 114 q 494 279 489 207 l 497 310 l 458 310 q 319 300 369 310 q 246 267 268 290 q 224 206 224 244 q 253 139 224 164 q 333 114 283 114 m 276 1029 q 258 1068 258 1047 q 276 1106 258 1090 q 317 1122 293 1122 q 365 1093 346 1122 l 444 968 q 451 946 451 960 q 440 919 451 931 q 411 907 428 907 q 379 922 393 907 l 276 1029 m 425 761 q 293 790 349 761 q 208 872 238 819 q 200 900 200 888 q 213 932 200 919 q 242 944 225 944 q 276 925 261 944 q 432 857 326 857 q 585 925 524 857 q 624 944 603 944 q 649 934 639 944 q 660 907 660 924 q 647 872 660 892 q 556 791 614 821 q 425 761 497 761 z "},"ẳ":{"ha":750,"x_min":54,"x_max":671,"o":"m 397 696 q 603 633 535 696 q 671 444 671 571 q 669 404 671 418 l 643 72 q 617 13 640 33 q 556 -8 594 -8 q 498 15 519 -8 q 479 74 476 38 l 481 100 q 403 18 453 47 q 289 -11 353 -11 q 169 15 222 -11 q 85 85 115 40 q 54 188 54 131 q 94 312 54 265 q 221 380 133 358 q 454 401 308 401 l 504 401 l 506 428 q 479 531 511 497 q 378 564 447 564 q 190 510 296 564 q 156 501 172 501 q 114 519 131 501 q 97 561 97 536 q 108 598 97 579 q 140 629 119 617 q 258 678 190 660 q 397 696 326 696 m 333 114 q 444 160 399 114 q 494 279 489 207 l 497 310 l 458 310 q 319 300 369 310 q 246 267 268 290 q 224 206 224 244 q 253 139 224 164 q 333 114 283 114 m 479 932 q 463 915 475 921 q 433 908 450 908 q 401 917 415 908 q 389 944 388 926 q 407 981 390 968 q 453 1006 424 993 q 475 1017 465 1011 q 485 1029 485 1022 q 440 1044 485 1044 q 367 1038 426 1044 q 337 1046 349 1036 q 325 1069 325 1056 q 332 1088 325 1079 q 353 1103 339 1097 q 461 1119 401 1119 q 562 1097 525 1119 q 599 1040 599 1075 q 581 997 599 1011 q 529 968 563 982 q 494 951 506 958 q 479 932 483 944 m 425 761 q 293 790 349 761 q 208 872 238 819 q 200 900 200 888 q 213 932 200 919 q 242 944 225 944 q 276 925 261 944 q 432 857 326 857 q 585 925 524 857 q 624 944 603 944 q 649 934 639 944 q 660 907 660 924 q 647 872 660 892 q 556 791 614 821 q 425 761 497 761 z "},"ẵ":{"ha":750,"x_min":54,"x_max":675,"o":"m 397 696 q 603 633 535 696 q 671 444 671 571 q 669 404 671 418 l 643 72 q 617 13 640 33 q 556 -8 594 -8 q 498 15 519 -8 q 479 74 476 38 l 481 100 q 403 18 453 47 q 289 -11 353 -11 q 169 15 222 -11 q 85 85 115 40 q 54 188 54 131 q 94 312 54 265 q 221 380 133 358 q 454 401 308 401 l 504 401 l 506 428 q 479 531 511 497 q 378 564 447 564 q 190 510 296 564 q 156 501 172 501 q 114 519 131 501 q 97 561 97 536 q 108 598 97 579 q 140 629 119 617 q 258 678 190 660 q 397 696 326 696 m 333 114 q 444 160 399 114 q 494 279 489 207 l 497 310 l 458 310 q 319 300 369 310 q 246 267 268 290 q 224 206 224 244 q 253 139 224 164 q 333 114 283 114 m 538 974 q 492 980 515 974 q 449 992 469 986 q 422 1001 429 999 q 388 1014 415 1004 q 339 1024 360 1024 q 310 1017 321 1024 q 283 997 299 1011 q 264 981 272 986 q 243 975 256 975 q 217 985 226 975 q 208 1013 208 996 q 227 1058 208 1033 q 278 1101 246 1083 q 346 1118 310 1118 q 397 1111 371 1118 q 460 1090 424 1104 q 506 1075 483 1082 q 544 1068 529 1068 q 573 1074 563 1068 q 599 1094 583 1081 q 618 1111 610 1106 q 639 1117 626 1117 q 675 1079 675 1117 q 656 1033 675 1058 q 606 991 638 1008 q 538 974 574 974 m 425 761 q 293 790 349 761 q 208 872 238 819 q 200 901 200 888 q 213 933 200 919 q 242 946 225 946 q 276 925 260 946 q 432 857 326 857 q 585 925 524 857 q 624 944 603 944 q 649 934 639 944 q 660 907 660 924 q 647 872 660 892 q 556 791 614 821 q 425 761 497 761 z "},"ǎ":{"ha":750,"x_min":54,"x_max":671,"o":"m 397 696 q 603 633 535 696 q 671 444 671 571 q 669 404 671 418 l 643 72 q 617 13 640 33 q 556 -8 594 -8 q 498 15 519 -8 q 479 74 476 38 l 481 100 q 403 18 453 47 q 289 -11 353 -11 q 169 15 222 -11 q 85 85 115 40 q 54 188 54 131 q 94 312 54 265 q 221 380 133 358 q 454 401 308 401 l 504 401 l 506 428 q 479 531 511 497 q 378 564 447 564 q 190 510 296 564 q 156 501 172 501 q 114 519 131 501 q 97 561 97 536 q 108 598 97 579 q 140 629 119 617 q 258 678 190 660 q 397 696 326 696 m 333 114 q 444 160 399 114 q 494 279 489 207 l 497 310 l 458 310 q 319 300 369 310 q 246 267 268 290 q 224 206 224 244 q 253 139 224 164 q 333 114 283 114 m 510 1021 q 568 1057 529 1057 q 608 1042 590 1057 q 625 1006 625 1026 q 611 968 625 986 l 499 806 q 462 773 483 785 q 418 761 440 761 q 376 772 396 761 q 344 806 357 783 l 254 974 q 246 1004 246 990 q 265 1042 246 1026 q 307 1057 283 1057 q 341 1047 325 1057 q 365 1017 357 1038 l 428 876 l 510 1021 z "},"â":{"ha":750,"x_min":54,"x_max":671,"o":"m 397 696 q 603 633 535 696 q 671 444 671 571 q 669 404 671 418 l 643 72 q 617 13 640 33 q 556 -8 594 -8 q 498 15 519 -8 q 479 74 476 38 l 481 100 q 403 18 453 47 q 289 -11 353 -11 q 169 15 222 -11 q 85 85 115 40 q 54 188 54 131 q 94 312 54 265 q 221 380 133 358 q 454 401 308 401 l 504 401 l 506 428 q 479 531 511 497 q 378 564 447 564 q 190 510 296 564 q 156 501 172 501 q 114 519 131 501 q 97 561 97 536 q 108 598 97 579 q 140 629 119 617 q 258 678 190 660 q 397 696 326 696 m 333 114 q 444 160 399 114 q 494 279 489 207 l 497 310 l 458 310 q 319 300 369 310 q 246 267 268 290 q 224 206 224 244 q 253 139 224 164 q 333 114 283 114 m 351 799 q 293 763 332 763 q 252 778 269 763 q 235 815 235 793 q 249 853 235 833 l 363 1015 q 399 1048 378 1036 q 443 1060 421 1060 q 485 1048 465 1060 q 515 1015 504 1036 l 606 846 q 614 815 614 829 q 596 778 614 793 q 554 763 578 763 q 494 803 511 763 l 433 943 l 351 799 z "},"ấ":{"ha":750,"x_min":54,"x_max":782,"o":"m 397 696 q 603 633 535 696 q 671 444 671 571 q 669 404 671 418 l 643 72 q 617 13 640 33 q 556 -8 594 -8 q 498 15 519 -8 q 479 74 476 38 l 481 100 q 403 18 453 47 q 289 -11 353 -11 q 169 15 222 -11 q 85 85 115 40 q 54 188 54 131 q 94 312 54 265 q 221 380 133 358 q 454 401 308 401 l 504 401 l 506 428 q 479 531 511 497 q 378 564 447 564 q 190 510 296 564 q 156 501 172 501 q 114 519 131 501 q 97 561 97 536 q 108 598 97 579 q 140 629 119 617 q 258 678 190 660 q 397 696 326 696 m 333 114 q 444 160 399 114 q 494 279 489 207 l 497 310 l 458 310 q 319 300 369 310 q 246 267 268 290 q 224 206 224 244 q 253 139 224 164 q 333 114 283 114 m 642 919 q 611 907 628 907 q 584 918 596 907 q 572 944 572 929 q 582 969 572 958 l 672 1094 q 722 1122 694 1122 q 764 1106 746 1122 q 782 1067 782 1089 q 758 1022 782 1042 l 642 919 m 338 781 q 297 761 318 761 q 264 775 278 761 q 250 808 250 789 q 268 849 250 831 l 368 949 q 438 978 397 978 q 500 949 475 978 l 588 842 q 601 808 601 826 q 585 775 601 789 q 547 761 568 761 q 503 783 519 761 l 432 882 l 338 781 z "},"ậ":{"ha":750,"x_min":54,"x_max":671,"o":"m 397 696 q 603 633 535 696 q 671 444 671 571 q 669 404 671 418 l 643 72 q 617 13 640 33 q 556 -8 594 -8 q 498 15 519 -8 q 479 74 476 38 l 481 100 q 403 18 453 47 q 289 -11 353 -11 q 169 15 222 -11 q 85 85 115 40 q 54 188 54 131 q 94 312 54 265 q 221 380 133 358 q 454 401 308 401 l 504 401 l 506 428 q 479 531 511 497 q 378 564 447 564 q 190 510 296 564 q 156 501 172 501 q 114 519 131 501 q 97 561 97 536 q 108 598 97 579 q 140 629 119 617 q 258 678 190 660 q 397 696 326 696 m 333 114 q 444 160 399 114 q 494 279 489 207 l 497 310 l 458 310 q 319 300 369 310 q 246 267 268 290 q 224 206 224 244 q 253 139 224 164 q 333 114 283 114 m 338 -275 q 272 -251 297 -275 q 246 -186 246 -226 q 271 -124 246 -147 q 338 -100 296 -100 q 403 -124 378 -100 q 429 -186 429 -147 q 403 -251 429 -226 q 338 -275 378 -275 m 351 799 q 293 763 332 763 q 252 778 269 763 q 235 815 235 793 q 249 853 235 833 l 363 1015 q 399 1048 378 1036 q 443 1060 421 1060 q 485 1048 465 1060 q 515 1015 504 1036 l 606 846 q 614 815 614 829 q 596 778 614 793 q 554 763 578 763 q 494 803 511 763 l 433 943 l 351 799 z "},"ầ":{"ha":750,"x_min":54,"x_max":683,"o":"m 397 696 q 603 633 535 696 q 671 444 671 571 q 669 404 671 418 l 643 72 q 617 13 640 33 q 556 -8 594 -8 q 498 15 519 -8 q 479 74 476 38 l 481 100 q 403 18 453 47 q 289 -11 353 -11 q 169 15 222 -11 q 85 85 115 40 q 54 188 54 131 q 94 312 54 265 q 221 380 133 358 q 454 401 308 401 l 504 401 l 506 428 q 479 531 511 497 q 378 564 447 564 q 190 510 296 564 q 156 501 172 501 q 114 519 131 501 q 97 561 97 536 q 108 598 97 579 q 140 629 119 617 q 258 678 190 660 q 397 696 326 696 m 333 114 q 444 160 399 114 q 494 279 489 207 l 497 310 l 458 310 q 319 300 369 310 q 246 267 268 290 q 224 206 224 244 q 253 139 224 164 q 333 114 283 114 m 524 1035 q 511 1067 511 1051 q 531 1106 511 1090 q 575 1122 551 1122 q 625 1089 611 1122 l 681 963 q 683 947 683 957 q 671 919 683 931 q 642 907 658 907 q 610 924 624 907 l 524 1035 m 338 781 q 297 761 318 761 q 264 775 278 761 q 250 808 250 789 q 268 849 250 831 l 368 949 q 438 978 397 978 q 500 949 475 978 l 588 842 q 601 808 601 826 q 585 775 601 789 q 547 761 568 761 q 503 783 519 761 l 432 882 l 338 781 z "},"ẩ":{"ha":750,"x_min":54,"x_max":769,"o":"m 397 696 q 603 633 535 696 q 671 444 671 571 q 669 404 671 418 l 643 72 q 617 13 640 33 q 556 -8 594 -8 q 498 15 519 -8 q 479 74 476 38 l 481 100 q 403 18 453 47 q 289 -11 353 -11 q 169 15 222 -11 q 85 85 115 40 q 54 188 54 131 q 94 312 54 265 q 221 380 133 358 q 454 401 308 401 l 504 401 l 506 428 q 479 531 511 497 q 378 564 447 564 q 190 510 296 564 q 156 501 172 501 q 114 519 131 501 q 97 561 97 536 q 108 598 97 579 q 140 629 119 617 q 258 678 190 660 q 397 696 326 696 m 333 114 q 444 160 399 114 q 494 279 489 207 l 497 310 l 458 310 q 319 300 369 310 q 246 267 268 290 q 224 206 224 244 q 253 139 224 164 q 333 114 283 114 m 650 933 q 633 916 646 922 q 604 910 619 910 q 573 918 586 910 q 560 942 560 926 q 577 982 560 968 q 625 1007 594 996 q 656 1029 656 1019 q 645 1041 656 1038 q 611 1044 635 1044 q 536 1038 599 1044 q 507 1046 518 1036 q 496 1069 496 1056 q 503 1088 496 1079 q 524 1103 510 1097 q 632 1119 567 1119 q 733 1098 696 1119 q 769 1042 769 1076 q 751 998 769 1013 q 700 968 733 983 q 650 933 657 953 m 338 781 q 297 761 318 761 q 264 775 278 761 q 250 808 250 789 q 268 849 250 831 l 368 949 q 438 978 397 978 q 500 949 475 978 l 588 842 q 601 808 601 826 q 585 775 601 789 q 547 761 568 761 q 503 783 519 761 l 432 882 l 338 781 z "},"ẫ":{"ha":750,"x_min":54,"x_max":676,"o":"m 397 696 q 603 633 535 696 q 671 444 671 571 q 669 404 671 418 l 643 72 q 617 13 640 33 q 556 -8 594 -8 q 498 15 519 -8 q 479 74 476 38 l 481 100 q 403 18 453 47 q 289 -11 353 -11 q 169 15 222 -11 q 85 85 115 40 q 54 188 54 131 q 94 312 54 265 q 221 380 133 358 q 454 401 308 401 l 504 401 l 506 428 q 479 531 511 497 q 378 564 447 564 q 190 510 296 564 q 156 501 172 501 q 114 519 131 501 q 97 561 97 536 q 108 598 97 579 q 140 629 119 617 q 258 678 190 660 q 397 696 326 696 m 333 114 q 444 160 399 114 q 494 279 489 207 l 497 310 l 458 310 q 319 300 369 310 q 246 267 268 290 q 224 206 224 244 q 253 139 224 164 q 333 114 283 114 m 538 988 q 489 994 513 988 q 424 1014 465 1000 q 339 1036 367 1036 q 309 1029 321 1036 q 285 1010 297 1022 q 263 992 271 997 q 243 988 256 988 q 208 1026 208 988 q 227 1071 208 1046 q 278 1113 246 1096 q 346 1131 310 1131 q 461 1103 386 1131 q 507 1088 485 1094 q 544 1082 529 1082 q 574 1089 563 1082 q 599 1108 586 1096 q 617 1124 608 1118 q 639 1129 626 1129 q 667 1119 657 1129 q 676 1092 676 1108 q 657 1047 676 1072 q 606 1005 638 1022 q 538 988 574 988 m 338 781 q 297 761 318 761 q 264 775 278 761 q 250 808 250 789 q 268 849 250 831 l 368 949 q 438 978 397 978 q 500 949 475 978 l 588 842 q 601 808 601 826 q 585 775 601 789 q 547 761 568 761 q 503 783 519 761 l 432 882 l 338 781 z "},"ȁ":{"ha":750,"x_min":54,"x_max":671,"o":"m 397 696 q 603 633 535 696 q 671 444 671 571 q 669 404 671 418 l 643 72 q 617 13 640 33 q 556 -8 594 -8 q 498 15 519 -8 q 479 74 476 38 l 481 100 q 403 18 453 47 q 289 -11 353 -11 q 169 15 222 -11 q 85 85 115 40 q 54 188 54 131 q 94 312 54 265 q 221 380 133 358 q 454 401 308 401 l 504 401 l 506 428 q 479 531 511 497 q 378 564 447 564 q 190 510 296 564 q 156 501 172 501 q 114 519 131 501 q 97 561 97 536 q 108 598 97 579 q 140 629 119 617 q 258 678 190 660 q 397 696 326 696 m 333 114 q 444 160 399 114 q 494 279 489 207 l 497 310 l 458 310 q 319 300 369 310 q 246 267 268 290 q 224 206 224 244 q 253 139 224 164 q 333 114 283 114 m 224 982 q 219 1004 219 994 q 238 1044 219 1029 q 279 1060 256 1060 q 319 1044 301 1060 q 338 1001 336 1029 l 360 803 q 351 769 361 782 q 325 757 340 757 q 301 765 313 757 q 286 789 290 774 l 224 982 m 408 981 q 404 1004 404 993 q 422 1044 404 1029 q 463 1060 439 1060 q 502 1044 485 1060 q 521 1001 519 1029 l 543 803 q 534 769 544 782 q 508 757 524 757 q 485 765 496 757 q 469 789 474 774 l 408 981 z "},"ä":{"ha":750,"x_min":54,"x_max":671,"o":"m 397 696 q 603 633 535 696 q 671 444 671 571 q 669 404 671 418 l 643 72 q 617 13 640 33 q 556 -8 594 -8 q 498 15 519 -8 q 479 74 476 38 l 481 100 q 403 18 453 47 q 289 -11 353 -11 q 169 15 222 -11 q 85 85 115 40 q 54 188 54 131 q 94 312 54 265 q 221 380 133 358 q 454 401 308 401 l 504 401 l 506 428 q 479 531 511 497 q 378 564 447 564 q 190 510 296 564 q 156 501 172 501 q 114 519 131 501 q 97 561 97 536 q 108 598 97 579 q 140 629 119 617 q 258 678 190 660 q 397 696 326 696 m 333 114 q 444 160 399 114 q 494 279 489 207 l 497 310 l 458 310 q 319 300 369 310 q 246 267 268 290 q 224 206 224 244 q 253 139 224 164 q 333 114 283 114 m 303 824 q 238 847 263 824 q 213 910 213 871 q 238 972 213 949 q 303 996 263 996 q 369 972 343 996 q 394 910 394 949 q 369 847 394 871 q 303 824 343 824 m 558 824 q 493 847 518 824 q 468 910 468 871 q 493 972 468 949 q 558 996 518 996 q 623 972 597 996 q 649 910 649 949 q 624 847 649 871 q 558 824 599 824 z "},"ȧ":{"ha":750,"x_min":54,"x_max":671,"o":"m 397 696 q 603 633 535 696 q 671 444 671 571 q 669 404 671 418 l 643 72 q 617 13 640 33 q 556 -8 594 -8 q 498 15 519 -8 q 479 74 476 38 l 481 100 q 403 18 453 47 q 289 -11 353 -11 q 169 15 222 -11 q 85 85 115 40 q 54 188 54 131 q 94 312 54 265 q 221 380 133 358 q 454 401 308 401 l 504 401 l 506 428 q 479 531 511 497 q 378 564 447 564 q 190 510 296 564 q 156 501 172 501 q 114 519 131 501 q 97 561 97 536 q 108 598 97 579 q 140 629 119 617 q 258 678 190 660 q 397 696 326 696 m 333 114 q 444 160 399 114 q 494 279 489 207 l 497 310 l 458 310 q 319 300 369 310 q 246 267 268 290 q 224 206 224 244 q 253 139 224 164 q 333 114 283 114 m 431 817 q 356 842 383 817 q 328 910 328 868 q 356 976 328 951 q 431 1001 383 1001 q 505 976 476 1001 q 533 910 533 951 q 506 842 533 868 q 431 817 478 817 z "},"ạ":{"ha":750,"x_min":54,"x_max":671,"o":"m 397 696 q 603 633 535 696 q 671 444 671 571 q 669 404 671 418 l 643 72 q 617 13 640 33 q 556 -8 594 -8 q 498 15 519 -8 q 479 74 476 38 l 481 100 q 403 18 453 47 q 289 -11 353 -11 q 169 15 222 -11 q 85 85 115 40 q 54 188 54 131 q 94 312 54 265 q 221 380 133 358 q 454 401 308 401 l 504 401 l 506 428 q 479 531 511 497 q 378 564 447 564 q 190 510 296 564 q 156 501 172 501 q 114 519 131 501 q 97 561 97 536 q 108 598 97 579 q 140 629 119 617 q 258 678 190 660 q 397 696 326 696 m 333 114 q 444 160 399 114 q 494 279 489 207 l 497 310 l 458 310 q 319 300 369 310 q 246 267 268 290 q 224 206 224 244 q 253 139 224 164 q 333 114 283 114 m 338 -275 q 272 -251 297 -275 q 246 -186 246 -226 q 271 -124 246 -147 q 338 -100 296 -100 q 403 -124 378 -100 q 429 -186 429 -147 q 403 -251 429 -226 q 338 -275 378 -275 z "},"à":{"ha":750,"x_min":54,"x_max":671,"o":"m 397 696 q 603 633 535 696 q 671 444 671 571 q 669 404 671 418 l 643 72 q 617 13 640 33 q 556 -8 594 -8 q 498 15 519 -8 q 479 74 476 38 l 481 100 q 403 18 453 47 q 289 -11 353 -11 q 169 15 222 -11 q 85 85 115 40 q 54 188 54 131 q 94 312 54 265 q 221 380 133 358 q 454 401 308 401 l 504 401 l 506 428 q 479 531 511 497 q 378 564 447 564 q 190 510 296 564 q 156 501 172 501 q 114 519 131 501 q 97 561 97 536 q 108 598 97 579 q 140 629 119 617 q 258 678 190 660 q 397 696 326 696 m 333 114 q 444 160 399 114 q 494 279 489 207 l 497 310 l 458 310 q 319 300 369 310 q 246 267 268 290 q 224 206 224 244 q 253 139 224 164 q 333 114 283 114 m 253 950 q 236 997 236 975 q 257 1043 236 1025 q 306 1061 278 1061 q 344 1049 326 1061 q 372 1011 363 1036 l 446 831 q 451 807 451 814 q 438 776 451 788 q 404 764 424 764 q 353 792 371 764 l 253 950 z "},"ả":{"ha":750,"x_min":54,"x_max":671,"o":"m 397 696 q 603 633 535 696 q 671 444 671 571 q 669 404 671 418 l 643 72 q 617 13 640 33 q 556 -8 594 -8 q 498 15 519 -8 q 479 74 476 38 l 481 100 q 403 18 453 47 q 289 -11 353 -11 q 169 15 222 -11 q 85 85 115 40 q 54 188 54 131 q 94 312 54 265 q 221 380 133 358 q 454 401 308 401 l 504 401 l 506 428 q 479 531 511 497 q 378 564 447 564 q 190 510 296 564 q 156 501 172 501 q 114 519 131 501 q 97 561 97 536 q 108 598 97 579 q 140 629 119 617 q 258 678 190 660 q 397 696 326 696 m 333 114 q 444 160 399 114 q 494 279 489 207 l 497 310 l 458 310 q 319 300 369 310 q 246 267 268 290 q 224 206 224 244 q 253 139 224 164 q 333 114 283 114 m 471 800 q 456 770 469 781 q 422 760 442 760 q 391 770 404 760 q 378 800 378 781 q 393 850 378 829 q 436 894 408 871 q 464 921 456 911 q 472 943 472 931 q 426 972 472 972 q 365 963 399 972 q 354 961 361 961 q 330 972 339 961 q 321 996 321 982 q 329 1022 321 1010 q 353 1039 338 1033 q 447 1056 396 1056 q 554 1029 517 1056 q 592 961 592 1003 q 574 905 592 926 q 522 861 556 883 q 485 831 497 843 q 471 800 472 818 z "},"ȃ":{"ha":750,"x_min":54,"x_max":671,"o":"m 397 696 q 603 633 535 696 q 671 444 671 571 q 669 404 671 418 l 643 72 q 617 13 640 33 q 556 -8 594 -8 q 498 15 519 -8 q 479 74 476 38 l 481 100 q 403 18 453 47 q 289 -11 353 -11 q 169 15 222 -11 q 85 85 115 40 q 54 188 54 131 q 94 312 54 265 q 221 380 133 358 q 454 401 308 401 l 504 401 l 506 428 q 479 531 511 497 q 378 564 447 564 q 190 510 296 564 q 156 501 172 501 q 114 519 131 501 q 97 561 97 536 q 108 598 97 579 q 140 629 119 617 q 258 678 190 660 q 397 696 326 696 m 333 114 q 444 160 399 114 q 494 279 489 207 l 497 310 l 458 310 q 319 300 369 310 q 246 267 268 290 q 224 206 224 244 q 253 139 224 164 q 333 114 283 114 m 433 1028 q 571 988 513 1028 q 657 878 629 947 q 661 854 661 865 q 645 817 661 832 q 608 803 629 803 q 583 810 596 803 q 563 833 571 818 q 507 892 543 871 q 426 914 471 914 q 285 833 339 914 q 235 803 264 803 q 201 816 215 803 q 188 850 188 829 q 194 878 188 861 q 290 987 225 946 q 433 1028 354 1028 z "},"ā":{"ha":750,"x_min":54,"x_max":671,"o":"m 397 696 q 603 633 535 696 q 671 444 671 571 q 669 404 671 418 l 643 72 q 617 13 640 33 q 556 -8 594 -8 q 498 15 519 -8 q 479 74 476 38 l 481 100 q 403 18 453 47 q 289 -11 353 -11 q 169 15 222 -11 q 85 85 115 40 q 54 188 54 131 q 94 312 54 265 q 221 380 133 358 q 454 401 308 401 l 504 401 l 506 428 q 479 531 511 497 q 378 564 447 564 q 190 510 296 564 q 156 501 172 501 q 114 519 131 501 q 97 561 97 536 q 108 598 97 579 q 140 629 119 617 q 258 678 190 660 q 397 696 326 696 m 333 114 q 444 160 399 114 q 494 279 489 207 l 497 310 l 458 310 q 319 300 369 310 q 246 267 268 290 q 224 206 224 244 q 253 139 224 164 q 333 114 283 114 m 258 853 q 215 867 231 853 q 200 907 200 881 q 219 951 200 936 q 267 965 238 965 l 603 965 q 645 951 629 965 q 661 913 661 938 q 642 868 661 883 q 594 853 624 853 l 258 853 z "},"ą":{"ha":750,"x_min":54,"x_max":685,"o":"m 639 -162 q 653 -160 650 -160 q 676 -170 667 -160 q 685 -196 685 -181 q 677 -222 685 -208 q 657 -242 669 -235 q 549 -271 607 -271 q 426 -232 472 -271 q 381 -128 381 -193 q 408 -36 381 -76 q 488 29 436 4 q 479 74 476 49 l 481 99 q 402 17 453 44 q 285 -11 351 -11 q 167 15 219 -11 q 84 85 114 40 q 54 188 54 131 q 94 312 54 265 q 221 380 133 358 q 454 401 308 401 l 504 401 l 506 428 q 480 531 511 497 q 378 564 449 564 q 190 510 294 564 q 156 501 172 501 q 114 519 131 501 q 97 561 97 536 q 108 598 97 579 q 140 629 119 617 q 260 678 192 661 q 397 696 328 696 q 603 633 535 696 q 671 446 671 571 q 669 404 671 418 l 643 72 q 596 1 642 22 q 500 -101 500 -32 q 521 -156 500 -136 q 578 -175 542 -175 q 639 -162 604 -175 m 333 114 q 444 160 399 114 q 494 279 489 206 l 497 310 l 458 310 q 316 299 367 310 q 244 266 265 289 q 224 203 224 243 q 253 138 224 163 q 333 114 283 114 z "},"å":{"ha":750,"x_min":54,"x_max":671,"o":"m 397 696 q 603 633 535 696 q 671 444 671 571 q 669 404 671 418 l 643 72 q 617 13 640 33 q 556 -8 594 -8 q 498 15 519 -8 q 479 74 476 38 l 481 100 q 403 18 453 47 q 289 -11 353 -11 q 169 15 222 -11 q 85 85 115 40 q 54 188 54 131 q 94 312 54 265 q 221 380 133 358 q 454 401 308 401 l 504 401 l 506 428 q 479 531 511 497 q 378 564 447 564 q 190 510 296 564 q 156 501 172 501 q 114 519 131 501 q 97 561 97 536 q 108 598 97 579 q 140 629 119 617 q 258 678 190 660 q 397 696 326 696 m 333 114 q 444 160 399 114 q 494 279 489 207 l 497 310 l 458 310 q 319 300 369 310 q 246 267 268 290 q 224 206 224 244 q 253 139 224 164 q 333 114 283 114 m 431 765 q 326 808 369 765 q 282 911 282 850 q 326 1013 282 971 q 431 1056 369 1056 q 535 1013 492 1056 q 578 911 578 971 q 535 808 578 850 q 431 765 492 765 m 431 844 q 475 864 457 844 q 493 911 493 883 q 475 958 493 939 q 431 976 457 976 q 385 958 403 976 q 368 911 368 939 q 385 863 368 882 q 431 844 403 844 z "},"ǻ":{"ha":750,"x_min":54,"x_max":749,"o":"m 619 1163 q 679 1190 647 1190 q 728 1169 707 1190 q 749 1122 749 1149 q 703 1058 749 1082 l 563 978 q 578 911 578 947 q 535 808 578 850 q 431 767 492 767 q 326 808 369 767 q 283 911 283 850 q 326 1014 283 972 q 431 1056 369 1056 q 501 1039 469 1056 l 619 1163 m 431 846 q 475 865 457 846 q 493 911 493 883 q 475 958 493 939 q 431 976 457 976 q 386 958 404 976 q 368 911 368 939 q 386 865 368 883 q 431 846 404 846 m 397 696 q 603 633 535 696 q 671 446 671 571 q 669 404 671 418 l 643 72 q 617 13 640 33 q 556 -8 594 -8 q 498 15 519 -8 q 479 74 476 38 l 481 99 q 403 17 453 46 q 289 -11 353 -11 q 169 15 222 -11 q 85 85 115 40 q 54 188 54 131 q 94 312 54 265 q 221 380 133 358 q 454 401 308 401 l 504 401 l 506 428 q 479 531 511 497 q 378 564 447 564 q 190 510 296 564 q 156 501 172 501 q 114 519 131 501 q 97 561 97 536 q 108 598 97 579 q 140 629 119 617 q 258 678 190 660 q 397 696 326 696 m 333 114 q 444 160 399 114 q 494 279 489 206 l 497 310 l 458 310 q 316 299 367 310 q 244 267 265 289 q 224 206 224 244 q 253 139 224 164 q 333 114 283 114 z "},"ã":{"ha":750,"x_min":54,"x_max":671,"o":"m 397 696 q 603 633 535 696 q 671 444 671 571 q 669 404 671 418 l 643 72 q 617 13 640 33 q 556 -8 594 -8 q 498 15 519 -8 q 479 74 476 38 l 481 100 q 403 18 453 47 q 289 -11 353 -11 q 169 15 222 -11 q 85 85 115 40 q 54 188 54 131 q 94 312 54 265 q 221 380 133 358 q 454 401 308 401 l 504 401 l 506 428 q 479 531 511 497 q 378 564 447 564 q 190 510 296 564 q 156 501 172 501 q 114 519 131 501 q 97 561 97 536 q 108 598 97 579 q 140 629 119 617 q 258 678 190 660 q 397 696 326 696 m 333 114 q 444 160 399 114 q 494 279 489 207 l 497 310 l 458 310 q 319 300 369 310 q 246 267 268 290 q 224 206 224 244 q 253 139 224 164 q 333 114 283 114 m 524 814 q 469 826 494 814 q 411 860 444 838 q 367 885 383 878 q 335 893 351 893 q 301 883 314 893 q 272 851 289 872 q 251 826 261 835 q 229 818 242 818 q 204 831 213 818 q 196 865 196 844 q 215 930 196 896 q 265 987 233 964 q 335 1010 297 1010 q 390 998 364 1010 q 450 964 417 986 q 494 938 478 946 q 526 931 510 931 q 560 941 547 931 q 589 972 572 951 q 610 997 600 989 q 632 1006 619 1006 q 665 958 665 1006 q 646 894 665 928 q 594 837 626 860 q 524 814 561 814 z "},"æ":{"ha":1171,"x_min":54,"x_max":1122,"o":"m 1122 369 q 1107 324 1122 340 q 1065 308 1092 308 l 664 308 q 715 169 668 217 q 850 122 761 122 q 1008 169 928 122 q 1043 179 1026 179 q 1079 162 1065 179 q 1093 119 1093 144 q 1084 83 1093 101 q 1058 53 1075 65 q 959 7 1021 25 q 838 -11 897 -11 q 669 28 739 -11 q 560 138 599 67 q 453 28 522 67 q 300 -11 385 -11 q 122 44 190 -11 q 54 188 54 100 q 94 312 54 265 q 221 380 133 358 q 454 401 308 401 l 504 401 l 506 428 q 481 531 511 497 q 378 564 450 564 q 190 510 294 564 q 156 501 172 501 q 114 519 131 501 q 97 561 97 536 q 108 598 97 579 q 140 629 119 617 q 260 678 190 660 q 407 696 329 696 q 619 604 561 696 q 843 696 707 696 q 1049 610 975 696 q 1122 369 1122 525 m 840 574 q 727 531 771 574 q 669 401 683 488 l 976 401 q 942 529 978 485 q 840 574 906 574 m 332 114 q 443 161 397 114 q 494 283 489 208 l 496 310 l 458 310 q 315 299 365 310 q 244 266 265 289 q 224 203 224 243 q 253 138 224 163 q 332 114 283 114 z "},"ǽ":{"ha":1171,"x_min":54,"x_max":1122,"o":"m 1122 369 q 1107 324 1122 340 q 1065 308 1092 308 l 664 308 q 715 169 668 217 q 850 122 761 122 q 1008 169 928 122 q 1043 179 1026 179 q 1079 162 1065 179 q 1093 119 1093 144 q 1084 83 1093 101 q 1058 53 1075 65 q 959 7 1021 25 q 838 -11 897 -11 q 669 28 739 -11 q 560 138 599 67 q 453 28 522 67 q 300 -11 385 -11 q 122 44 190 -11 q 54 188 54 100 q 94 312 54 265 q 221 380 133 358 q 454 401 308 401 l 504 401 l 506 428 q 481 531 511 497 q 378 564 450 564 q 190 510 294 564 q 156 501 172 501 q 114 519 131 501 q 97 561 97 536 q 108 598 97 579 q 140 629 119 617 q 260 678 190 660 q 407 696 329 696 q 619 604 561 696 q 843 696 707 696 q 1049 610 975 696 q 1122 369 1122 525 m 840 574 q 727 531 771 574 q 669 401 683 488 l 976 401 q 942 529 978 485 q 840 574 906 574 m 332 114 q 443 161 397 114 q 494 283 489 208 l 496 310 l 458 310 q 315 299 365 310 q 244 266 265 289 q 224 203 224 243 q 253 138 224 163 q 332 114 283 114 m 681 786 q 632 763 658 763 q 602 774 614 763 q 590 804 590 786 q 599 833 590 817 l 718 1018 q 747 1049 731 1039 q 783 1060 764 1060 q 833 1040 811 1060 q 854 994 854 1021 q 831 942 854 967 l 681 786 z "},"b":{"ha":835,"x_min":67,"x_max":783,"o":"m 494 696 q 645 656 579 696 q 747 542 711 617 q 783 368 783 468 q 743 171 783 257 q 629 37 703 85 q 461 -11 556 -11 q 331 19 386 -11 q 243 107 275 50 l 240 75 q 213 14 238 36 q 149 -8 188 -8 q 88 14 110 -8 q 68 75 67 36 l 135 907 q 163 965 136 943 q 229 986 190 986 q 289 965 268 986 q 308 910 310 944 l 282 592 q 372 669 315 642 q 494 696 428 696 m 431 124 q 562 187 514 124 q 610 360 610 250 q 565 510 610 457 q 439 563 521 563 q 309 499 357 563 q 261 326 261 435 q 305 175 261 226 q 431 124 349 124 z "},"c":{"ha":678,"x_min":53,"x_max":674,"o":"m 394 -11 q 215 30 292 -11 q 95 146 138 71 q 53 319 53 221 q 97 519 53 433 q 225 650 142 604 q 421 696 308 696 q 547 680 488 696 q 643 638 606 664 q 674 576 674 618 q 658 526 674 547 q 617 504 642 504 q 586 513 603 504 q 428 560 511 560 q 283 497 335 560 q 232 322 232 435 q 278 177 232 229 q 408 125 325 125 q 485 136 450 125 q 558 171 519 147 q 592 181 576 181 q 629 163 615 181 q 643 119 643 144 q 635 84 643 101 q 610 54 626 67 q 513 7 571 25 q 394 -11 454 -11 z "},"ć":{"ha":678,"x_min":53,"x_max":674,"o":"m 394 -11 q 215 30 292 -11 q 95 146 138 71 q 53 319 53 221 q 97 519 53 433 q 225 650 142 604 q 421 696 308 696 q 547 680 488 696 q 643 638 606 664 q 674 576 674 618 q 658 526 674 547 q 617 504 642 504 q 586 513 603 504 q 428 560 511 560 q 283 497 335 560 q 232 322 232 435 q 278 177 232 229 q 408 125 325 125 q 485 136 450 125 q 558 171 519 147 q 592 181 576 181 q 629 163 615 181 q 643 119 643 144 q 635 84 643 101 q 610 54 626 67 q 513 7 571 25 q 394 -11 454 -11 m 500 786 q 451 763 478 763 q 422 774 433 763 q 410 804 410 786 q 418 833 410 817 l 538 1018 q 567 1049 550 1039 q 603 1060 583 1060 q 652 1040 631 1060 q 674 994 674 1021 q 650 942 674 967 l 500 786 z "},"č":{"ha":678,"x_min":53,"x_max":674,"o":"m 394 -11 q 215 30 292 -11 q 95 146 138 71 q 53 319 53 221 q 97 519 53 433 q 225 650 142 604 q 421 696 308 696 q 547 680 488 696 q 643 638 606 664 q 674 576 674 618 q 658 526 674 547 q 617 504 642 504 q 586 513 603 504 q 428 560 511 560 q 283 497 335 560 q 232 322 232 435 q 278 177 232 229 q 408 125 325 125 q 485 136 450 125 q 558 171 519 147 q 592 181 576 181 q 629 163 615 181 q 643 119 643 144 q 635 84 643 101 q 610 54 626 67 q 513 7 571 25 q 394 -11 454 -11 m 526 1021 q 585 1057 546 1057 q 624 1042 607 1057 q 642 1006 642 1026 q 628 968 642 986 l 515 806 q 478 773 500 785 q 435 761 457 761 q 393 772 413 761 q 361 806 374 783 l 271 974 q 263 1004 263 990 q 281 1042 263 1026 q 324 1057 300 1057 q 358 1047 342 1057 q 382 1017 374 1038 l 444 876 l 526 1021 z "},"ç":{"ha":678,"x_min":53,"x_max":674,"o":"m 428 560 q 283 497 335 560 q 232 322 232 435 q 278 177 232 229 q 408 125 325 125 q 485 136 450 125 q 558 171 519 147 q 592 181 576 181 q 629 163 615 181 q 643 119 643 144 q 635 84 643 101 q 610 54 626 67 q 515 8 572 25 q 400 -11 458 -10 l 390 -57 q 407 -56 396 -56 q 488 -81 458 -56 q 517 -150 517 -106 q 468 -238 517 -206 q 339 -271 419 -271 q 238 -257 279 -271 q 218 -243 225 -253 q 211 -221 211 -233 q 224 -188 211 -201 q 257 -181 238 -175 q 333 -193 296 -193 q 406 -151 406 -193 q 363 -121 406 -121 q 330 -126 347 -121 q 307 -131 313 -131 q 286 -122 293 -131 q 282 -103 279 -114 l 303 -1 q 119 109 186 24 q 53 319 53 194 q 97 519 53 433 q 225 650 142 604 q 421 696 308 696 q 547 680 488 696 q 643 638 606 664 q 674 576 674 618 q 658 526 674 547 q 617 504 642 504 q 586 513 603 504 q 428 560 511 560 z "}}}
